<svg width="145" height="59" viewBox="0 0 145 59" fill="none" xmlns="http://www.w3.org/2000/svg">
<path d="M116.018 57.861C131.801 57.861 144.594 45.0529 144.594 29.2532C144.594 13.4536 131.801 0.645447 116.018 0.645447C100.236 0.645447 87.4424 13.4536 87.4424 29.2532C87.4424 45.0529 100.236 57.861 116.018 57.861Z" fill="#304ACA"/>
<path d="M124.711 20.1361L124.116 23.0543C124.031 23.4712 124.088 23.9044 124.277 24.2855C124.466 24.6667 124.776 24.9741 125.159 25.1593C127.998 26.5394 134.314 29.9495 133.908 32.8007C133.525 35.4943 127.142 35.0887 123.609 35.1677C122.407 35.1953 121.425 34.7798 121.261 38.0189C121.259 38.0379 121.259 38.057 121.261 38.0761L121.195 40.5861C121.195 40.6017 120.814 43.5059 123.835 43.2444C128.271 42.8611 137.622 40.2705 137.12 32.2022C136.655 24.7318 130.84 20.5947 127.505 18.8231C127.24 18.6827 126.947 18.6058 126.647 18.5986C126.348 18.5913 126.051 18.6539 125.78 18.7813C125.509 18.9087 125.271 19.0974 125.086 19.3326C124.9 19.5677 124.772 19.8428 124.711 20.1361Z" fill="white"/>
<path d="M106.147 23.2093L108.386 23.2348C109.968 23.253 111.234 24.6564 111.215 26.3693L111.191 28.4519C111.172 30.1648 109.873 31.5386 108.291 31.5199L106.052 31.4944C104.47 31.4762 103.203 30.0728 103.223 28.3599L103.247 26.2773C103.267 24.5649 104.565 23.1911 106.147 23.2093Z" fill="white"/>
<path d="M113.415 37.1432L113.41 37.5592C113.397 38.672 113.362 41.0281 113.362 41.0291C113.344 42.5522 112.11 43.2579 110.703 43.3452C106.319 43.6167 102.679 42.7945 99.2418 39.9507C98.6214 39.4374 96.6704 37.8249 96.1358 38.23C95.2804 38.8779 94.5009 37.9024 94.1484 37.216C93.5764 36.1011 93.0226 34.98 92.4521 33.8609C91.7387 32.4959 92.3013 31.7336 93.0813 30.9526C93.943 30.0899 94.84 29.04 94.8909 26.5669C94.9658 22.9207 98.7389 23.3029 98.7457 26.0641C98.7498 28.5777 96.4223 36.2706 110.681 35.2743C111.797 35.1963 112.786 35.6066 113.204 36.3616C113.343 36.6112 113.419 36.7797 113.415 37.1432Z" fill="white"/>
<path d="M121.018 15.2511C121.055 16.301 120.95 17.3738 120.899 18.4065C120.823 19.9478 120.747 21.4892 120.67 23.0308L120.128 34.033L119.784 41.0119L119.772 41.2522C119.757 41.5626 119.675 41.8662 119.533 42.1424C118.451 44.2468 115.129 43.5864 115.002 41.2412L114.72 36.0568L114.145 25.4702L113.873 20.4719C113.778 18.7138 113.509 16.8756 113.651 15.1263C113.784 13.4966 114.562 11.7349 116.053 10.8259C117.415 9.99391 118.932 10.3756 119.869 11.6012C120.711 12.7047 120.972 13.96 121.018 15.2511Z" fill="white"/>
<path d="M4.0439 41.7286C4.13299 42.0354 4.2155 42.334 4.29142 42.6245C4.32418 42.7499 4.35746 42.8788 4.39022 43.0109C4.42298 43.143 4.45418 43.274 4.48226 43.4045C4.51034 43.5351 4.53426 43.6604 4.5587 43.7805C4.58314 43.9006 4.6003 44.0109 4.6107 44.1097C4.61084 44.1503 4.61327 44.1909 4.61798 44.2313C4.62359 44.2798 4.62619 44.3286 4.62578 44.3775C4.6261 44.6494 4.58508 44.9197 4.5041 45.1793C4.42246 45.4416 4.31042 45.6934 4.17026 45.9297C4.02371 46.1748 3.85375 46.4052 3.66274 46.6176C3.46379 46.8403 3.24955 47.0488 3.02158 47.2416C2.78817 47.4377 2.54259 47.6189 2.2863 47.784C2.03076 47.9481 1.76714 48.0992 1.49642 48.2369L1.15479 47.5437C1.50533 47.3632 1.84261 47.1579 2.1641 46.9296C2.47589 46.7102 2.76459 46.4596 3.02574 46.1819C3.26721 45.926 3.47054 45.6367 3.62946 45.3228C3.77869 45.03 3.85673 44.7061 3.85722 44.3775C3.85722 44.3442 3.85722 44.3114 3.85254 44.2781C3.84786 44.2449 3.84578 44.2105 3.84266 44.1741C3.82914 44.0521 3.80851 43.9193 3.78078 43.7758C3.75305 43.6323 3.72081 43.4853 3.68406 43.3349C3.64766 43.1851 3.6097 43.0379 3.57018 42.8944C3.53066 42.7509 3.4927 42.6173 3.4563 42.4935C3.4199 42.3697 3.38714 42.2616 3.3575 42.169C3.32786 42.0765 3.3055 42.0073 3.29302 41.961L4.0439 41.7286Z" fill="#626262"/>
<path d="M7.70772 44.7238C7.40458 44.7303 7.10228 44.6894 6.81176 44.6027C6.57699 44.5294 6.36308 44.4012 6.18775 44.2288C6.09001 44.1333 6.01037 44.0209 5.95271 43.897C5.90031 43.7845 5.86038 43.6667 5.83363 43.5455C5.80999 43.4363 5.7959 43.3253 5.79151 43.2137C5.78839 43.1097 5.78683 43.0172 5.78683 42.9412V42.8523C5.78995 42.7962 5.79411 42.6485 5.79931 42.4093C5.80451 42.1701 5.80694 41.8771 5.80659 41.5305C5.80659 41.4081 5.80572 41.2694 5.80399 41.1145C5.80399 40.9585 5.79983 40.8123 5.79671 40.674C5.79671 40.413 5.79342 40.1356 5.78683 39.842C5.78024 39.5484 5.77036 39.2605 5.75719 38.9783C5.74367 38.6975 5.7279 38.435 5.70987 38.191C5.69184 37.9469 5.66966 37.7455 5.64331 37.5867L6.41551 37.4484C6.44533 37.6218 6.47011 37.828 6.48987 38.0672C6.50963 38.3064 6.52523 38.5623 6.53667 38.8348C6.54811 39.1083 6.5573 39.3929 6.56423 39.6886C6.57117 39.9843 6.57446 40.274 6.57411 40.5575C6.57723 40.7489 6.57966 40.9345 6.58139 41.1145C6.58313 41.2944 6.58399 41.4669 6.58399 41.6319C6.58399 41.8863 6.58313 42.1092 6.58139 42.3006C6.57966 42.492 6.57723 42.637 6.57411 42.7358V42.9537C6.56977 43.0927 6.57638 43.2318 6.59387 43.3697C6.6079 43.4887 6.66308 43.5991 6.74988 43.6817C6.84969 43.7741 6.97025 43.8412 7.1014 43.8772C7.28331 43.9293 7.47171 43.9552 7.66092 43.9542H7.70564C7.75679 43.9538 7.8075 43.9636 7.85476 43.9832C7.90202 44.0027 7.94486 44.0316 7.98072 44.0681C8.01739 44.1036 8.04655 44.1461 8.06647 44.1931C8.08638 44.2401 8.09665 44.2906 8.09665 44.3416C8.09665 44.3926 8.08638 44.4432 8.06647 44.4902C8.04655 44.5371 8.01739 44.5796 7.98072 44.6151C7.90765 44.686 7.8095 44.7251 7.70772 44.7238Z" fill="#626262"/>
<path d="M7.22788 44.3426C7.22665 44.29 7.23685 44.2377 7.25776 44.1894C7.27868 44.1411 7.30982 44.0979 7.34904 44.0628C7.43485 43.987 7.5466 43.9471 7.66104 43.9516H8.18104C8.38592 43.9516 8.59877 43.9483 8.8196 43.9417C9.03305 43.9358 9.24578 43.9143 9.45607 43.8772C9.64883 43.8442 9.83619 43.785 10.013 43.7014C10.1756 43.6255 10.3143 43.5065 10.4139 43.3572C10.5574 43.1382 10.6317 42.8811 10.6271 42.6193C10.6243 42.4452 10.5994 42.2722 10.5528 42.1045C10.5194 41.9886 10.4702 41.8778 10.4066 41.7754C10.3225 41.6336 10.2308 41.4965 10.1321 41.3646C10.0229 41.2176 9.89738 41.0616 9.75559 40.8966C9.61381 40.7315 9.46197 40.5672 9.30008 40.4036C9.13853 40.2389 8.96936 40.0756 8.79256 39.9137C8.61576 39.7519 8.43671 39.5959 8.2554 39.4457C8.27204 39.2873 8.28937 39.1355 8.3074 38.9902C8.3256 38.8446 8.34276 38.6964 8.3594 38.5446L10.3198 37.7053L12.2807 36.866C12.3327 36.9913 12.3847 37.113 12.4393 37.23C12.4939 37.347 12.5433 37.4651 12.5927 37.5841L8.98808 39.0989C9.17632 39.2573 9.37686 39.4307 9.58971 39.6189C9.80413 39.8114 10.0073 40.0161 10.1981 40.232C10.4012 40.453 10.5875 40.6889 10.7555 40.9376C10.8944 41.1435 11.0161 41.3604 11.1195 41.5861C11.2062 41.7749 11.2726 41.9724 11.3177 42.1752C11.3555 42.346 11.3755 42.5203 11.3775 42.6952C11.3794 42.8922 11.3517 43.0884 11.2953 43.2771C11.2449 43.4443 11.1779 43.6059 11.0951 43.7597H11.0998C10.8197 44.2582 10.3444 44.5684 9.67395 44.6905C9.607 44.7038 9.53926 44.7128 9.47115 44.7175C9.40147 44.7227 9.33231 44.7253 9.26315 44.7253L7.66364 44.7201C7.54922 44.7244 7.43754 44.6845 7.35164 44.6088C7.31296 44.5761 7.28186 44.5353 7.26049 44.4893C7.23912 44.4434 7.228 44.3933 7.22788 44.3426Z" fill="#626262"/>
<path d="M13.3669 41.7286C13.4563 42.0354 13.5388 42.334 13.6144 42.6245C13.6477 42.7499 13.6804 42.8788 13.7137 43.0109C13.747 43.143 13.7772 43.274 13.8052 43.4045C13.8333 43.5351 13.8572 43.6604 13.8822 43.7805C13.9072 43.9006 13.9233 44.0109 13.9342 44.1097C13.9343 44.1503 13.9369 44.191 13.942 44.2313C13.9472 44.2799 13.9496 44.3286 13.9493 44.3775C13.9495 44.6493 13.9087 44.9196 13.8281 45.1793C13.7463 45.4416 13.6341 45.6934 13.4938 45.9297C13.3474 46.175 13.1774 46.4054 12.9862 46.6176C12.7873 46.8403 12.573 47.0488 12.3451 47.2416C12.1118 47.4379 11.8662 47.619 11.6098 47.784C11.3544 47.9483 11.0907 48.0995 10.8199 48.2369L10.4783 47.5437C10.8274 47.3639 11.1633 47.1596 11.4834 46.9322C11.7952 46.7128 12.0839 46.4622 12.3451 46.1845C12.5867 45.9286 12.7902 45.6393 12.9493 45.3254C13.0983 45.0325 13.1763 44.7087 13.1771 44.3801C13.1771 44.3468 13.1771 44.314 13.1719 44.2807C13.1667 44.2475 13.1651 44.2131 13.162 44.1767C13.1492 44.0547 13.1285 43.9219 13.1001 43.7784C13.0717 43.6349 13.0395 43.4879 13.0034 43.3375C12.967 43.1877 12.929 43.0405 12.8895 42.897C12.85 42.7535 12.812 42.6199 12.7756 42.4961C12.7392 42.3723 12.7065 42.2642 12.6768 42.1716C12.6472 42.0791 12.6248 42.0099 12.6124 41.9636L13.3669 41.7286Z" fill="#626262"/>
<path d="M15.0554 44.7238C15.072 44.4534 15.0861 44.1918 15.0975 43.9391C15.1089 43.6864 15.119 43.4413 15.1277 43.2038C15.1353 42.966 15.141 42.7325 15.1448 42.5034C15.1486 42.2742 15.1502 42.0471 15.1495 41.8222C15.1495 41.2054 15.1387 40.6386 15.1173 40.1218C15.0958 39.6049 15.0703 39.1509 15.0408 38.7599C15.011 38.3688 14.9821 38.0445 14.954 37.787C14.9259 37.527 14.9056 37.3481 14.8921 37.2425L15.6721 37.124C15.6727 37.1347 15.6744 37.1453 15.6773 37.1557C15.6804 37.1708 15.6835 37.1973 15.6872 37.2352C15.6908 37.2732 15.696 37.3226 15.7043 37.3834C15.7127 37.4443 15.7215 37.5233 15.7314 37.619C15.7546 37.8072 15.7745 38.0102 15.7912 38.2279C15.8078 38.4456 15.8241 38.6803 15.8401 38.932C15.8567 39.1764 15.8699 39.4149 15.8796 39.6475C15.8893 39.8801 15.8976 40.0972 15.9045 40.2986C15.9108 40.5294 15.9165 40.7721 15.9217 41.0266C15.9269 41.281 15.9293 41.55 15.929 41.8336C15.929 42.2756 15.9224 42.7401 15.9092 43.2272C15.896 43.7143 15.8713 44.2284 15.8349 44.7695L15.0554 44.7238Z" fill="#626262"/>
<path d="M18.294 41.7286C18.3827 42.0354 18.4653 42.334 18.5415 42.6245C18.5743 42.7499 18.6076 42.8788 18.6403 43.0109C18.6731 43.143 18.7038 43.274 18.7318 43.4045C18.7599 43.5351 18.7838 43.6604 18.8088 43.7805C18.8338 43.9006 18.8499 44.0108 18.8634 44.1096C18.8635 44.1503 18.866 44.1909 18.8707 44.2313C18.8761 44.2798 18.8785 44.3286 18.878 44.3774C18.8782 44.6493 18.8374 44.9196 18.7568 45.1793C18.675 45.4416 18.5628 45.6934 18.4224 45.9296C18.2761 46.1749 18.1061 46.4054 17.9149 46.6176C17.7162 46.8405 17.502 47.049 17.2738 47.2416C17.0405 47.438 16.7949 47.6191 16.5385 47.784C16.2832 47.9482 16.0197 48.0993 15.7491 48.2369L15.4075 47.5437C15.7563 47.3628 16.0921 47.1576 16.4121 46.9296C16.7238 46.7103 17.0124 46.4598 17.2732 46.1819C17.515 45.9262 17.7186 45.6368 17.8775 45.3228C18.0267 45.03 18.1047 44.7061 18.1052 44.3774C18.1053 44.3443 18.1036 44.3111 18.1 44.2781C18.0969 44.2454 18.0938 44.2105 18.0902 44.1741C18.0773 44.0521 18.0567 43.9193 18.0283 43.7758C17.9998 43.6323 17.9678 43.4853 17.9321 43.3349C17.8957 43.1851 17.8577 43.0379 17.8182 42.8944C17.7787 42.7509 17.7402 42.6173 17.7043 42.4935C17.6684 42.3697 17.6346 42.2616 17.605 42.169C17.5754 42.0765 17.553 42.0073 17.5405 41.961L18.294 41.7286ZM18.6107 39.5966L17.8827 40.3246L17.15 39.5919L17.878 38.8639L18.6107 39.5966Z" fill="#626262"/>
<path d="M22.0324 44.7238C21.7291 44.7303 21.4266 44.6894 21.1359 44.6027C20.901 44.5296 20.6871 44.4014 20.5119 44.2288C20.4142 44.1331 20.3344 44.0208 20.2763 43.897C20.2241 43.7845 20.1843 43.6666 20.1578 43.5455C20.1336 43.4364 20.1195 43.3254 20.1156 43.2137C20.112 43.1097 20.1104 43.0172 20.1104 42.9412V42.8523C20.1142 42.7962 20.1184 42.6485 20.1229 42.4093C20.1274 42.1701 20.1298 41.8771 20.1302 41.5305C20.1302 41.4081 20.1302 41.2694 20.1302 41.1145C20.1302 40.9585 20.126 40.8123 20.1224 40.674C20.1224 40.413 20.1191 40.1356 20.1125 39.842C20.1063 39.5466 20.0959 39.2586 20.0829 38.9783C20.0699 38.698 20.0543 38.4354 20.0361 38.191C20.0179 37.9466 19.9955 37.7453 19.969 37.5867L20.7417 37.4484C20.7712 37.6218 20.7958 37.828 20.8156 38.0672C20.8353 38.3064 20.8511 38.5623 20.8629 38.8348C20.8743 39.1083 20.8833 39.3929 20.8899 39.6886C20.8965 39.9843 20.8998 40.274 20.8998 40.5575C20.9029 40.7489 20.9055 40.9345 20.9076 41.1145C20.9097 41.2944 20.9097 41.4669 20.9076 41.6319C20.9076 41.8863 20.9076 42.1092 20.9076 42.3006C20.9076 42.492 20.905 42.637 20.8998 42.7358V42.9537C20.8957 43.0927 20.9023 43.2318 20.9196 43.3697C20.9348 43.4889 20.9908 43.5992 21.0782 43.6817C21.178 43.7741 21.2985 43.8412 21.4297 43.8772C21.6116 43.9293 21.8 43.9552 21.9892 43.9542H22.0339C22.085 43.9537 22.1357 43.9635 22.1828 43.9831C22.23 44.0027 22.2728 44.0316 22.3085 44.0681C22.3453 44.1035 22.3746 44.146 22.3946 44.193C22.4146 44.24 22.4249 44.2905 22.4249 44.3416C22.4249 44.3927 22.4146 44.4432 22.3946 44.4902C22.3746 44.5372 22.3453 44.5797 22.3085 44.6151C22.272 44.6507 22.2288 44.6786 22.1814 44.6973C22.134 44.7159 22.0833 44.725 22.0324 44.7238Z" fill="#626262"/>
<path d="M21.5965 44.34C21.5964 44.2878 21.6082 44.2363 21.6309 44.1892C21.6531 44.143 21.6834 44.1011 21.7203 44.0655C21.7574 44.0302 21.801 44.0025 21.8487 43.9838C21.8992 43.9639 21.9531 43.9539 22.0073 43.9542H26.5725C26.6235 43.9537 26.6742 43.9635 26.7214 43.9831C26.7686 44.0027 26.8113 44.0316 26.847 44.0681C26.8838 44.1035 26.9131 44.146 26.9331 44.193C26.9531 44.24 26.9634 44.2905 26.9634 44.3416C26.9634 44.3927 26.9531 44.4432 26.9331 44.4902C26.9131 44.5372 26.8838 44.5797 26.847 44.6151C26.8109 44.6509 26.7681 44.6792 26.7209 44.6983C26.6738 44.7175 26.6233 44.727 26.5725 44.7264H22.0027C21.9492 44.7266 21.8963 44.7165 21.8467 44.6967C21.799 44.6781 21.7553 44.6504 21.7182 44.6151C21.6817 44.5801 21.6514 44.5392 21.6288 44.4939C21.6063 44.4458 21.5952 44.3931 21.5965 44.34Z" fill="#626262"/>
<path d="M26.0873 44.34C26.0872 44.2878 26.0989 44.2363 26.1216 44.1892C26.1438 44.143 26.1741 44.1011 26.211 44.0655C26.2482 44.0302 26.2918 44.0025 26.3395 43.9838C26.39 43.9639 26.4438 43.9539 26.4981 43.9542H31.0631C31.1142 43.9537 31.1649 43.9635 31.212 43.9831C31.2592 44.0027 31.302 44.0316 31.3377 44.0681C31.3745 44.1035 31.4038 44.146 31.4238 44.193C31.4438 44.24 31.4541 44.2905 31.4541 44.3416C31.4541 44.3927 31.4438 44.4432 31.4238 44.4902C31.4038 44.5372 31.3745 44.5797 31.3377 44.6151C31.3016 44.6509 31.2588 44.6792 31.2116 44.6983C31.1645 44.7175 31.114 44.727 31.0631 44.7264H26.4934C26.44 44.7266 26.387 44.7165 26.3374 44.6967C26.2897 44.6781 26.2461 44.6504 26.2089 44.6151C26.1724 44.5801 26.1422 44.5392 26.1195 44.4939C26.097 44.4458 26.086 44.3931 26.0873 44.34Z" fill="#626262"/>
<path d="M30.608 44.34C30.6069 44.2888 30.6165 44.238 30.6361 44.1907C30.6557 44.1434 30.6849 44.1008 30.7219 44.0654C30.7574 44.0294 30.7999 44.001 30.8467 43.9819C30.8936 43.9628 30.9438 43.9533 30.9944 43.9541H31.5039C31.5403 43.9541 31.5773 43.9541 31.6157 43.9541C31.6542 43.9541 31.6906 43.9541 31.727 43.9541C31.8799 43.9543 32.0327 43.9462 32.1846 43.9297C32.3233 43.9151 32.4597 43.8835 32.5907 43.8356C32.7119 43.7908 32.8236 43.7236 32.9199 43.6374C33.021 43.5443 33.1019 43.4314 33.1575 43.3057V43.3104C33.2162 43.173 33.2434 43.0243 33.2371 42.8751C33.2371 42.5631 33.1645 42.1752 33.0192 41.7114C32.9929 41.6289 32.9606 41.5398 32.9225 41.4441L32.8112 41.1643C32.7748 41.0735 32.7393 40.9901 32.7046 40.9142C32.6703 40.8383 32.6427 40.7774 32.623 40.7312L33.326 40.3796C33.3458 40.4257 33.3723 40.485 33.4056 40.5575C33.4389 40.6299 33.4751 40.7142 33.5143 40.8102C33.5538 40.9059 33.5942 41.0099 33.6354 41.1222C33.677 41.2345 33.7171 41.3515 33.7571 41.4737C33.837 41.7187 33.9014 41.9684 33.95 42.2215C33.991 42.4337 34.0126 42.6491 34.0145 42.8652C34.0279 43.1269 33.9796 43.388 33.8733 43.6275C33.7671 43.867 33.606 44.0781 33.403 44.2438C33.196 44.4211 32.9513 44.549 32.6875 44.6176C32.5236 44.6656 32.355 44.6956 32.1846 44.7071C32.0213 44.7171 31.8653 44.722 31.7166 44.7216H30.9938C30.9433 44.7224 30.893 44.713 30.8462 44.6939C30.7994 44.6747 30.7569 44.6463 30.7214 44.6104C30.685 44.5754 30.6562 44.5334 30.6367 44.4869C30.6172 44.4404 30.6075 44.3904 30.608 44.34ZM33.2121 46.6872L32.4841 47.4152L31.752 46.68L32.48 45.952L33.2121 46.6872Z" fill="#626262"/>
<path d="M37.5413 44.0307C36.7197 44.0307 36.152 43.836 35.8383 43.4467C35.7515 43.3432 35.688 43.2223 35.6521 43.0921C35.6185 42.9711 35.601 42.8463 35.6001 42.7208C35.5994 42.6245 35.6076 42.5285 35.6246 42.4337C35.6373 42.3603 35.659 42.2887 35.6891 42.2205C35.7734 42.0447 35.8781 41.8794 36.0011 41.7281C36.1208 41.5804 36.2534 41.4436 36.3973 41.3194C36.5357 41.2 36.682 41.09 36.8351 40.9902C36.9856 40.8931 37.1326 40.8065 37.2761 40.7302C37.4196 40.6558 37.5548 40.5934 37.6822 40.5419C37.8096 40.4905 37.9204 40.4473 38.0161 40.4109L37.9401 39.6933L38.7201 39.5253C38.7238 39.5513 38.7295 39.609 38.7378 39.6985C38.7461 39.7879 38.7565 39.8914 38.7701 40.0105C38.7836 40.1296 38.7961 40.2554 38.8096 40.3891C38.8231 40.5227 38.8356 40.6491 38.8491 40.7655C38.8626 40.882 38.8735 40.985 38.8839 41.0724C38.8943 41.1597 38.9001 41.2154 38.9037 41.2382V41.233C38.9533 41.6657 39.0002 42.0189 39.0446 42.2928C39.089 42.5667 39.1278 42.7846 39.1611 42.9465C39.183 43.0642 39.2111 43.1807 39.2453 43.2954C39.2682 43.3666 39.2849 43.4134 39.2947 43.4368V43.4316C39.3311 43.5234 39.382 43.6088 39.4455 43.6844C39.5021 43.7484 39.5702 43.8014 39.6463 43.8404C39.728 43.8818 39.8157 43.9103 39.9063 43.9246C40.0184 43.9424 40.1318 43.9507 40.2453 43.9496C40.2962 43.949 40.3466 43.9585 40.3938 43.9776C40.4409 43.9967 40.4838 44.025 40.5199 44.0608C40.5567 44.0963 40.5859 44.1387 40.6059 44.1857C40.6259 44.2327 40.6362 44.2833 40.6362 44.3344C40.6362 44.3854 40.6259 44.436 40.6059 44.483C40.5859 44.53 40.5567 44.5725 40.5199 44.6079C40.4841 44.6444 40.4414 44.6733 40.3942 44.6929C40.347 44.7124 40.2964 44.7223 40.2453 44.7218C40.0996 44.7204 39.9541 44.7105 39.8095 44.6921C39.6394 44.6709 39.4739 44.6224 39.3192 44.5486H39.3244C39.0769 44.4332 38.8607 44.2252 38.6759 43.9246C38.3009 43.9883 37.9216 44.0238 37.5413 44.0307ZM37.9869 41.258L37.6926 41.387C37.5787 41.439 37.4612 41.491 37.3411 41.5575C37.221 41.6241 37.1009 41.6927 36.9818 41.7702C36.8678 41.8445 36.761 41.9291 36.6625 42.0229C36.5721 42.1091 36.4953 42.2085 36.4347 42.3178C36.3781 42.4192 36.3484 42.5334 36.3484 42.6495C36.3449 42.7594 36.3819 42.8668 36.4524 42.9511C36.5249 43.0341 36.6155 43.0994 36.7171 43.142C36.8355 43.1925 36.9605 43.2258 37.0884 43.2408C37.2296 43.2592 37.3719 43.2684 37.5143 43.2683C37.6706 43.2679 37.8269 43.2587 37.9823 43.2408C38.1438 43.2231 38.2856 43.2025 38.4076 43.1789C38.3612 42.9511 38.3142 42.6707 38.2667 42.3375C38.2192 42.0044 38.1689 41.6281 38.1159 41.2086L37.9869 41.258Z" fill="#626262"/>
<path d="M39.8241 44.34C39.823 44.2888 39.8325 44.238 39.8521 44.1907C39.8717 44.1434 39.901 44.1008 39.9379 44.0654C39.9734 44.0295 40.0158 44.0011 40.0625 43.982C40.1093 43.9628 40.1594 43.9534 40.2099 43.9541H40.72C40.7564 43.9541 40.7933 43.9541 40.8313 43.9541C40.8693 43.9541 40.9067 43.9541 40.9426 43.9541C41.0956 43.9543 41.2486 43.9462 41.4007 43.9297C41.5394 43.9151 41.6758 43.8835 41.8068 43.8356C41.928 43.7908 42.0397 43.7236 42.136 43.6374C42.2371 43.5443 42.318 43.4314 42.3736 43.3057V43.3104C42.4323 43.173 42.4594 43.0243 42.4532 42.8751C42.4532 42.5631 42.3806 42.1752 42.2353 41.7114C42.209 41.6289 42.1767 41.5398 42.1386 41.4441C42.1006 41.3484 42.0632 41.2553 42.0273 41.1643C41.9914 41.0733 41.9555 40.9901 41.9207 40.9142C41.8859 40.8383 41.8588 40.7774 41.8391 40.7312L42.5421 40.3796C42.5619 40.4259 42.5884 40.4836 42.6211 40.5575C42.6539 40.6313 42.6908 40.7135 42.7303 40.8102C42.7699 40.9069 42.8104 41.0099 42.8515 41.1222C42.8926 41.2345 42.9331 41.3515 42.9727 41.4737C43.0527 41.7187 43.1173 41.9684 43.1661 42.2215C43.2069 42.4337 43.2283 42.6492 43.2301 42.8652C43.2444 43.1272 43.1966 43.3887 43.0906 43.6287C42.9846 43.8686 42.8234 44.0801 42.6201 44.2458C42.4133 44.4232 42.1687 44.551 41.9051 44.6197C41.7412 44.6676 41.5726 44.6976 41.4023 44.7092C41.239 44.7192 41.083 44.7241 40.9343 44.7237H40.2115C40.161 44.7245 40.1108 44.715 40.0641 44.6959C40.0174 44.6767 39.975 44.6484 39.9395 44.6124C39.9025 44.5774 39.8732 44.5351 39.8533 44.4883C39.8335 44.4414 39.8235 44.3909 39.8241 44.34ZM42.4282 46.6872L41.7002 47.4152L40.9675 46.68L41.6955 45.952L42.4282 46.6872Z" fill="#626262"/>
<path d="M46.7625 44.7191C46.5856 44.7158 46.4093 44.6984 46.2352 44.6671C46.0318 44.6342 45.8302 44.5904 45.6315 44.536C45.443 44.4852 45.2577 44.4232 45.0766 44.3504C44.9396 44.2993 44.8104 44.2293 44.6929 44.1424L45.0246 43.3847C45.1545 43.4598 45.2893 43.526 45.4281 43.5829C45.5848 43.6479 45.7452 43.7033 45.9086 43.7487C46.0797 43.797 46.2533 43.8359 46.4286 43.8652C46.602 43.8946 46.7775 43.9095 46.9533 43.9099C47.1891 43.9105 47.4237 43.8755 47.649 43.8059C47.8624 43.7423 48.0513 43.6154 48.1909 43.4419C48.2483 43.3707 48.2905 43.2885 48.3149 43.2003C48.3392 43.1121 48.3451 43.0198 48.3323 42.9292C48.3038 42.7073 48.2367 42.4921 48.1342 42.2933C48.0133 42.0525 47.8698 41.8237 47.7057 41.61C47.5339 41.3823 47.3488 41.1649 47.1514 40.9589C46.9704 40.7688 46.7786 40.5893 46.5768 40.4213C46.4243 40.2913 46.2603 40.1754 46.087 40.0749C46.1463 39.9429 46.2007 39.8215 46.2503 39.7109C46.2997 39.5991 46.3543 39.4801 46.4063 39.3547C46.5998 39.461 46.7845 39.5827 46.9585 39.7187C47.1497 39.8685 47.3324 40.0289 47.5055 40.1992C47.6857 40.3762 47.856 40.563 48.0156 40.7587C48.1744 40.9528 48.3215 41.1561 48.4561 41.3677C48.5841 41.5681 48.699 41.7765 48.8003 41.9917C48.8924 42.1851 48.9645 42.3874 49.0156 42.5954C49.0402 42.708 49.0576 42.8221 49.0676 42.937C49.0779 43.0541 49.0755 43.172 49.0603 43.2885C49.0457 43.4046 49.0174 43.5186 48.9761 43.6281C48.9344 43.7394 48.8733 43.8424 48.7956 43.9323C48.502 44.2859 48.0943 44.5187 47.5726 44.6307C47.4483 44.6618 47.3217 44.6832 47.194 44.6946C47.0568 44.7109 46.9129 44.7191 46.7625 44.7191Z" fill="#626262"/>
<path d="M49.5159 47.422C49.9831 47.3246 50.4369 47.1717 50.8679 46.9665C51.2378 46.7917 51.5846 46.5714 51.9001 46.3108C52.1674 46.0903 52.398 45.8288 52.5833 45.536C52.7414 45.2893 52.8476 45.0129 52.8953 44.7238H52.5142C52.3062 44.7333 52.0979 44.7309 51.8902 44.7165C51.6683 44.7022 51.4481 44.669 51.2319 44.6172C51.0272 44.5692 50.8293 44.496 50.6427 44.3993C50.4746 44.3143 50.3312 44.1873 50.2267 44.0306V44.0358C50.1212 43.9003 50.0429 43.7456 49.9963 43.5803C49.9477 43.4061 49.9236 43.226 49.9246 43.0452C49.9249 42.8897 49.9407 42.7347 49.9719 42.5824C50.0031 42.4256 50.0444 42.271 50.0957 42.1196C50.1911 41.835 50.3287 41.5662 50.5039 41.3224C50.6437 41.1445 50.817 40.9956 51.014 40.8841C51.188 40.7837 51.3851 40.73 51.586 40.7281C52.0249 40.7281 52.4308 40.9295 52.8038 41.3323V41.3271C52.9502 41.4918 53.0782 41.6719 53.1855 41.8643C53.2996 42.0693 53.3956 42.2838 53.4725 42.5054C53.5529 42.7384 53.6133 42.9778 53.653 43.221C53.6945 43.4722 53.7152 43.7265 53.7148 43.9812C53.7164 44.3423 53.6656 44.7017 53.564 45.0482C53.4658 45.3804 53.3243 45.6983 53.1434 45.9936C52.9627 46.2866 52.7465 46.5561 52.4996 46.796C52.2497 47.0387 51.9751 47.2544 51.6801 47.4397C51.3803 47.6267 51.0628 47.7834 50.7321 47.9077C50.3998 48.034 50.0556 48.1262 49.7046 48.1828L49.5159 47.422ZM51.5803 41.5055C51.4955 41.5073 51.4127 41.5311 51.34 41.5746C51.2541 41.6251 51.1758 41.6877 51.1076 41.7603C51.0295 41.8432 50.9599 41.9336 50.8996 42.0302C50.8349 42.1332 50.7794 42.2418 50.7337 42.3546C50.6882 42.4663 50.6516 42.5814 50.6245 42.6989C50.5991 42.8077 50.5859 42.9189 50.585 43.0306C50.5838 43.132 50.6015 43.2327 50.637 43.3276C50.6676 43.4093 50.7102 43.4861 50.7633 43.5553V43.5501C50.8642 43.6494 50.9825 43.7292 51.1123 43.7857C51.2379 43.8394 51.3693 43.8785 51.5038 43.9022C51.6363 43.925 51.7703 43.9374 51.9047 43.9391C52.0382 43.9391 52.1661 43.9391 52.2885 43.9391C52.3925 43.9391 52.5064 43.9365 52.6301 43.9313C52.7518 43.9266 52.8511 43.9209 52.927 43.9141C52.9184 43.6938 52.8919 43.4745 52.848 43.2584C52.8084 43.064 52.7545 42.8729 52.6868 42.6864C52.6278 42.5227 52.5549 42.3644 52.4689 42.2132C52.3966 42.0851 52.3112 41.9649 52.2141 41.8544C52.1749 41.812 52.1336 41.7715 52.0904 41.7332C52.043 41.6914 51.9924 41.6533 51.939 41.6194C51.8856 41.5849 51.8284 41.5567 51.7685 41.5351C51.7079 41.5144 51.6442 41.5044 51.5803 41.5055Z" fill="#626262"/>
<path d="M56.1308 41.7286C56.2199 42.0354 56.3024 42.334 56.3783 42.6245C56.4111 42.7499 56.4444 42.8788 56.4771 43.0109C56.5099 43.143 56.5406 43.274 56.5686 43.4045C56.5967 43.5351 56.6206 43.6604 56.6456 43.7805C56.6706 43.9006 56.6867 44.0109 56.6976 44.1097C56.6975 44.1503 56.6999 44.191 56.7049 44.2313C56.71 44.2799 56.7125 44.3286 56.7122 44.3775C56.7124 44.6493 56.6716 44.9196 56.591 45.1793C56.5092 45.4416 56.397 45.6934 56.2566 45.9297C56.1103 46.175 55.9403 46.4054 55.7491 46.6176C55.5502 46.8403 55.3359 47.0488 55.108 47.2416C54.8747 47.4379 54.6291 47.619 54.3727 47.784C54.1174 47.9482 53.8539 48.0994 53.5833 48.2369L53.2417 47.5437C53.5906 47.3638 53.9263 47.1595 54.2463 46.9322C54.5582 46.7129 54.8469 46.4624 55.108 46.1845C55.3496 45.9286 55.5531 45.6393 55.7122 45.3254C55.8614 45.0326 55.9395 44.7087 55.94 44.3801C55.94 44.3469 55.9383 44.3137 55.9348 44.2807C55.9316 44.248 55.928 44.2131 55.9249 44.1767C55.9121 44.0547 55.8914 43.9219 55.863 43.7784C55.8346 43.6349 55.8025 43.4879 55.7668 43.3375C55.7304 43.1877 55.6924 43.0405 55.6529 42.897C55.6134 42.7535 55.5749 42.6199 55.539 42.4961C55.5032 42.3723 55.4694 42.2642 55.4397 42.1716C55.4101 42.0791 55.3877 42.0099 55.3752 41.9636L56.1308 41.7286Z" fill="#626262"/>
<path d="M57.3684 47.422C57.8356 47.3247 58.2895 47.1718 58.7204 46.9665C59.0904 46.7917 59.4371 46.5714 59.7526 46.3108C60.0202 46.0906 60.2508 45.8291 60.4358 45.536C60.5939 45.2893 60.7001 45.0129 60.7478 44.7238H60.3667C60.1587 44.7333 59.9504 44.7309 59.7427 44.7165C59.5206 44.7022 59.3002 44.669 59.0839 44.6172C58.8792 44.5691 58.6814 44.4959 58.4947 44.3993C58.3264 44.3146 58.183 44.1875 58.0787 44.0306V44.0358C57.973 43.9004 57.8947 43.7457 57.8484 43.5803C57.7997 43.4061 57.7756 43.226 57.7766 43.0452C57.777 42.8898 57.7927 42.7348 57.8234 42.5824C57.8551 42.4257 57.8964 42.2712 57.9472 42.1196C57.997 41.9713 58.0584 41.8272 58.1307 41.6885C58.1968 41.5619 58.2721 41.4402 58.3559 41.3245C58.4957 41.1465 58.669 40.9976 58.866 40.8862C59.0392 40.7861 59.2353 40.7324 59.4354 40.7302C59.8742 40.7302 60.2802 40.9316 60.6532 41.3344V41.3292C60.7994 41.4938 60.9272 41.674 61.0343 41.8664C61.1488 42.0712 61.2449 42.2857 61.3214 42.5075C61.402 42.7404 61.4625 42.9798 61.5023 43.223C61.5436 43.4744 61.5643 43.7286 61.5642 43.9833C61.5659 44.3444 61.5149 44.7039 61.4129 45.0503C61.3151 45.3827 61.1736 45.7006 60.9922 45.9957C60.8116 46.2887 60.5953 46.5582 60.3485 46.798C60.0988 47.041 59.8241 47.2568 59.529 47.4418C59.2292 47.6287 58.9117 47.7855 58.581 47.9098C58.2487 48.0361 57.9045 48.1283 57.5535 48.1849L57.3684 47.422ZM59.4333 41.5055C59.3485 41.5071 59.2657 41.531 59.1931 41.5746C59.1069 41.625 59.0284 41.6875 58.9601 41.7603C58.882 41.8432 58.8124 41.9336 58.7521 42.0302C58.6876 42.1334 58.6321 42.2419 58.5862 42.3546C58.5409 42.4663 58.5045 42.5814 58.4775 42.6989C58.4519 42.8076 58.4387 42.9189 58.438 43.0306C58.4366 43.132 58.4542 43.2327 58.49 43.3276C58.5203 43.4095 58.5629 43.4863 58.6164 43.5553V43.5501C58.7172 43.6495 58.8355 43.7293 58.9653 43.7857C59.0907 43.8394 59.2219 43.8785 59.3563 43.9022C59.4888 43.925 59.6228 43.9374 59.7572 43.9391C59.8911 43.9391 60.019 43.9391 60.141 43.9391C60.245 43.9391 60.3589 43.9365 60.4826 43.9313C60.6064 43.9261 60.7054 43.9204 60.7795 43.9141C60.7709 43.6938 60.7444 43.4745 60.7005 43.2584C60.661 43.0641 60.6073 42.8729 60.5398 42.6864C60.4806 42.5228 60.4077 42.3645 60.322 42.2132C60.2495 42.0851 60.1639 41.9649 60.0666 41.8544C60.0274 41.812 59.9861 41.7715 59.9429 41.7332C59.8957 41.6914 59.8453 41.6533 59.7921 41.6194C59.7384 41.5849 59.681 41.5566 59.621 41.5351C59.5606 41.5145 59.4971 41.5044 59.4333 41.5055Z" fill="#626262"/>
<path d="M64.3322 43.1788C64.2377 43.3628 64.1582 43.554 64.0946 43.7508C64.0272 43.9627 63.9725 44.1783 63.9308 44.3966C63.8793 44.6701 63.8545 44.9478 63.8569 45.2261C63.8539 45.439 63.8873 45.6509 63.9557 45.8527C64.0741 46.1984 64.291 46.5021 64.5797 46.7263C64.7108 46.8272 64.852 46.9143 65.0009 46.9863C65.1337 47.0527 65.2732 47.105 65.4169 47.1423C65.5358 47.1739 65.658 47.1913 65.7809 47.1943C65.9548 47.1934 66.1285 47.182 66.3009 47.1599C66.4906 47.1359 66.6779 47.0952 66.8604 47.0383C67.0478 46.9804 67.228 46.9015 67.3976 46.8032C67.5713 46.7027 67.7263 46.5729 67.8557 46.4195C67.9951 46.253 68.1033 46.0628 68.175 45.8578C68.2592 45.6109 68.2995 45.3512 68.2941 45.0903C68.2941 44.8477 68.2908 44.5637 68.2842 44.2386C68.2776 43.9134 68.2693 43.5619 68.2593 43.184C68.2492 42.8075 68.2369 42.4172 68.2223 42.013C68.2078 41.6088 68.1929 41.2077 68.1776 40.8097C68.1631 40.4121 68.1481 40.0285 68.1329 39.6589C68.1176 39.2894 68.1036 38.9526 68.0908 38.6486C68.0779 38.3449 68.0665 38.0833 68.0565 37.8639C68.0464 37.6444 68.0398 37.4869 68.0367 37.3912C68.1818 37.3881 68.3123 37.3818 68.4277 37.3735C68.5432 37.3652 68.6701 37.3579 68.8089 37.3517C68.8318 37.9258 68.8566 38.5198 68.8833 39.1337C68.8933 39.3948 68.9049 39.6721 68.9181 39.9657C68.9313 40.2594 68.9436 40.563 68.955 40.8768C68.9665 41.1888 68.9781 41.5039 68.9899 41.8221C69.0016 42.1404 69.0122 42.4524 69.0216 42.7581C69.0347 42.9643 69.0877 43.166 69.1776 43.352C69.215 43.43 69.2605 43.5039 69.3133 43.5724C69.3669 43.6467 69.4312 43.7126 69.5041 43.768C69.5862 43.8253 69.6763 43.8703 69.7714 43.9016C69.8866 43.9381 70.0069 43.9556 70.1276 43.9536C70.1793 43.9527 70.2307 43.9625 70.2784 43.9824C70.3261 44.0024 70.3691 44.0321 70.4048 44.0696C70.4412 44.1054 70.4701 44.1483 70.4897 44.1955C70.5093 44.2428 70.5191 44.2935 70.5187 44.3446C70.5198 44.3955 70.5102 44.446 70.4906 44.493C70.471 44.5399 70.4417 44.5822 70.4048 44.6171C70.368 44.6526 70.3246 44.6805 70.2771 44.6992C70.2295 44.7179 70.1787 44.7269 70.1276 44.7258C69.9302 44.7295 69.7334 44.7037 69.5437 44.6494C69.3728 44.5955 69.2084 44.5232 69.0533 44.4336C69.0533 44.4799 69.0533 44.5329 69.0559 44.5896C69.0585 44.6463 69.059 44.7102 69.0606 44.7726C69.0621 44.835 69.0606 44.8948 69.0606 44.951V45.0898C69.0673 45.4463 69.0164 45.8015 68.9098 46.1418C68.8201 46.4193 68.6827 46.6791 68.5037 46.9093C68.3398 47.1166 68.1413 47.2941 67.9171 47.434C67.6981 47.5696 67.4636 47.6786 67.2187 47.7585C66.9786 47.8367 66.7315 47.8914 66.4808 47.9217C66.2476 47.9506 66.0128 47.9655 65.7778 47.9665C65.5598 47.966 65.3425 47.9426 65.1294 47.8968C64.9137 47.8509 64.7042 47.7795 64.5054 47.6841C64.3036 47.588 64.1155 47.4656 63.9458 47.3201C63.7691 47.1681 63.6162 46.9904 63.4924 46.7928C63.3584 46.5778 63.2568 46.3442 63.1908 46.0997C63.1149 45.8164 63.0781 45.524 63.0816 45.2307C63.0784 44.897 63.1017 44.5635 63.1513 44.2334C63.1882 43.9873 63.2419 43.7441 63.312 43.5054C63.359 43.3407 63.4212 43.1807 63.4976 43.0275C63.5607 42.9089 63.6085 42.8249 63.6411 42.7753L64.3322 43.1788Z" fill="#626262"/>
<path d="M69.6893 44.34C69.6891 44.2877 69.701 44.2361 69.7241 44.1892C69.7459 44.1429 69.7761 44.1009 69.813 44.0655C69.8501 44.0302 69.8938 44.0025 69.9415 43.9838C69.9911 43.9643 70.0441 43.9542 70.0975 43.9542H74.6625C74.7135 43.9537 74.7642 43.9635 74.8114 43.9831C74.8586 44.0027 74.9013 44.0316 74.937 44.0681C74.9738 44.1035 75.0031 44.146 75.0231 44.193C75.0431 44.24 75.0534 44.2905 75.0534 44.3416C75.0534 44.3927 75.0431 44.4432 75.0231 44.4902C75.0031 44.5372 74.9738 44.5797 74.937 44.6151C74.9009 44.6509 74.8581 44.6792 74.8109 44.6983C74.7638 44.7175 74.7133 44.727 74.6625 44.7264H70.0928C70.0393 44.7266 69.9864 44.7165 69.9368 44.6967C69.8891 44.6781 69.8455 44.6504 69.8083 44.6151C69.7718 44.5803 69.7417 44.5392 69.7194 44.4939C69.6974 44.4457 69.687 44.393 69.6893 44.34Z" fill="#626262"/>
<path d="M74.18 44.34C74.1799 44.2878 74.1916 44.2363 74.2143 44.1892C74.2365 44.143 74.2668 44.1011 74.3037 44.0655C74.3409 44.0302 74.3845 44.0025 74.4322 43.9838C74.4818 43.9643 74.5348 43.9542 74.5882 43.9542H79.1533C79.2044 43.9537 79.255 43.9635 79.3022 43.9831C79.3494 44.0027 79.3921 44.0316 79.4279 44.0681C79.4647 44.1035 79.4939 44.146 79.5139 44.193C79.5339 44.24 79.5443 44.2905 79.5443 44.3416C79.5443 44.3927 79.5339 44.4432 79.5139 44.4902C79.4939 44.5372 79.4647 44.5797 79.4279 44.6151C79.3918 44.6509 79.3489 44.6792 79.3018 44.6983C79.2546 44.7175 79.2042 44.727 79.1533 44.7264H74.5835C74.5301 44.7266 74.4771 44.7165 74.4275 44.6967C74.3798 44.6781 74.3362 44.6504 74.299 44.6151C74.2625 44.5801 74.2323 44.5392 74.2096 44.4939C74.188 44.4456 74.1778 44.3929 74.18 44.34Z" fill="#626262"/>
<path d="M78.7349 44.34C78.7339 44.2888 78.7434 44.238 78.763 44.1907C78.7826 44.1435 78.8119 44.1008 78.8488 44.0654C78.8843 44.0295 78.9267 44.0011 78.9734 43.982C79.0202 43.9629 79.0703 43.9534 79.1208 43.9541H79.6705C79.8556 43.9541 80.0595 43.95 80.282 43.9417C80.4991 43.9342 80.7153 43.9093 80.9284 43.8673C81.124 43.8304 81.3131 43.7655 81.49 43.6744C81.6466 43.5976 81.7717 43.469 81.8442 43.3104V43.3151C81.9026 43.1777 81.9296 43.029 81.9232 42.8798C81.9205 42.7027 81.8973 42.5264 81.8541 42.3546C81.8076 42.1601 81.7482 41.9473 81.6757 41.7161C81.6497 41.6336 81.6176 41.5445 81.5795 41.4488C81.5415 41.3531 81.5041 41.26 81.4682 41.169C81.4323 41.078 81.3959 40.9948 81.3642 40.9189C81.3325 40.843 81.3023 40.7821 81.2826 40.7359L81.9856 40.3843C82.0054 40.4306 82.0319 40.4883 82.0647 40.5622C82.0974 40.636 82.1338 40.7182 82.1739 40.8149C82.2139 40.9116 82.2534 41.0146 82.295 41.1269C82.3367 41.2392 82.3767 41.3562 82.4162 41.4784C82.4963 41.7233 82.5608 41.9731 82.6091 42.2262C82.6504 42.4383 82.672 42.6538 82.6736 42.8699C82.6875 43.1316 82.6393 43.3929 82.533 43.6324C82.4267 43.872 82.2654 44.0831 82.0621 44.2485C81.8552 44.4258 81.6107 44.5537 81.347 44.6223C81.2387 44.6529 81.1275 44.6728 81.0153 44.6816C80.8797 44.6951 80.741 44.7052 80.5992 44.7118C80.4574 44.7184 80.3212 44.7224 80.1905 44.7237C80.0621 44.7237 79.9612 44.7263 79.8889 44.7263H79.126C79.0755 44.7271 79.0254 44.7176 78.9786 44.6985C78.9319 44.6794 78.8895 44.651 78.854 44.6151C78.8161 44.5801 78.7859 44.5375 78.7654 44.4901C78.7448 44.4427 78.7345 44.3916 78.7349 44.34ZM79.9581 45.8303L80.6809 46.5583L79.9476 47.291L79.2248 46.563L79.9581 45.8303ZM80.9877 47.3383L81.6414 47.9919L80.9825 48.6508L80.3294 47.9971L80.9877 47.3383ZM81.9679 45.8235L82.6908 46.5463L81.9581 47.279L81.2352 46.5562L81.9679 45.8235Z" fill="#626262"/>
<path d="M64.7532 23.7574C64.6263 23.4032 64.5109 23.046 64.4027 22.6851C64.292 22.3159 64.1921 21.9415 64.0605 21.5786C63.9997 21.4111 63.9472 21.2406 63.8874 21.0726C63.8354 20.9301 63.7465 20.8006 63.7059 20.6566C62.9582 20.5526 62.4356 20.1205 62.2286 19.3608C62.1282 18.9905 62.0534 18.614 61.9468 18.2454C61.8558 17.9302 61.7731 17.586 61.354 17.5298C61.029 17.4862 60.5464 18.055 60.4086 18.4482C60.4564 19.7664 59.5428 20.5354 59.0238 20.615C58.5378 20.6887 58.0432 20.6848 57.5585 20.6036C56.962 20.4996 56.5658 20.1038 56.4015 19.5251C56.285 19.1143 56.1935 18.6967 56.0791 18.2849C55.985 17.9443 55.8971 17.5803 55.4457 17.5298C55.116 17.4934 54.8488 17.755 54.685 18.249C54.5368 18.6967 54.4083 19.1507 54.2534 19.5958C54.0277 20.2458 53.5254 20.5838 52.8494 20.6779C52.0501 20.7876 51.2816 20.7393 50.7236 20.0607C50.6224 19.93 50.5468 19.7815 50.5005 19.6228C50.3752 19.2256 50.2665 18.8236 50.1594 18.4211C49.9946 17.8008 49.7684 17.5059 49.4111 17.5319C48.8532 17.572 48.7975 18.0379 48.6701 18.4274C48.5427 18.8168 48.4351 19.2037 48.3139 19.5906C48.2219 19.8834 48.0082 20.1943 47.7201 20.3238C47.1964 20.5564 46.6456 20.722 46.0805 20.8168C45.7061 20.8766 45.0967 21.472 44.714 21.5078C44.246 21.5526 44.1482 21.1043 44.1482 21.5624V23.5748C44.1482 24.1744 44.6313 23.8348 45.2433 23.7553C46.4601 23.5993 47.7981 24.059 48.7325 23.4474C48.8516 23.3694 48.9733 23.2816 49.0965 23.1828C49.2062 23.0975 49.3453 23.0592 49.4832 23.0763C49.6211 23.0933 49.7467 23.1643 49.8323 23.2738C50.4563 24.0876 51.268 24.6403 52.4323 24.6544C53.6283 24.6694 54.4083 24.0564 55.0323 23.2108C55.0677 23.1643 55.1132 23.1265 55.1655 23.1004C55.2177 23.0742 55.2752 23.0603 55.3337 23.0598C55.3921 23.0593 55.4499 23.0722 55.5026 23.0975C55.5552 23.1227 55.6014 23.1597 55.6376 23.2056C56.2912 24.06 57.0858 24.6741 58.2969 24.6544C59.4409 24.6351 59.8569 24.1822 60.6967 23.4584C60.927 23.2587 61.4892 23.007 61.6706 23.2504C61.7315 23.333 61.7746 23.4064 61.7876 23.4266C63.5109 23.7386 63.6596 23.9165 64.63 24.6747C64.7048 24.7324 64.8192 24.6689 64.9133 24.6668C64.9799 24.36 64.8546 24.0397 64.7532 23.7574Z" fill="#304ACA"/>
<path d="M47.5513 20.395C44.3527 20.8807 43.2873 20.031 42.9695 19.9202C42.5884 19.7902 42.3455 19.4798 42.2363 19.0784C42.1719 18.8386 42.2202 18.6681 42.4963 18.627C43.1354 18.5324 43.5748 18.4507 44.216 18.3779C44.4053 18.3566 44.7563 18.2188 44.9367 17.7992C45.1613 17.3098 45.4271 16.741 45.6938 16.158C45.7196 16.1038 45.7316 16.0441 45.7287 15.9841C45.7258 15.9242 45.7081 15.8659 45.6772 15.8144C45.6464 15.7629 45.6032 15.7199 45.5517 15.6891C45.5001 15.6583 45.4418 15.6408 45.3818 15.638C45.3376 15.6354 45.2976 15.6339 45.2659 15.6344C43.8166 15.6557 42.4267 15.326 41.0445 14.9376C39.7383 14.571 38.4305 14.2065 37.1149 13.8752C35.9558 13.583 34.9428 13.8914 34.0989 14.7353C33.4229 15.4077 32.9185 16.1976 32.542 17.0665C32.4485 17.2882 32.4038 17.5274 32.4109 17.768C32.4156 17.9172 32.5212 18.132 32.6429 18.1902C32.7645 18.2484 32.9923 18.1871 33.1109 18.0961C33.4998 17.7981 33.8503 17.4497 34.2346 17.145C34.6776 16.7935 35.1903 16.6068 35.7582 16.7176C36.7507 16.911 37.7397 17.1216 38.7253 17.3494C38.9681 17.4055 39.2058 17.4814 39.4486 17.5631C39.4979 17.5796 39.5415 17.6098 39.5742 17.6503C39.607 17.6907 39.6274 17.7396 39.6333 17.7913C39.6391 17.843 39.6301 17.8953 39.6072 17.942C39.5844 17.9887 39.5487 18.0279 39.5043 18.055C37.3577 19.3612 34.1483 20.8172 28.8479 20.0918L28.8651 23.9118C29.4677 23.9892 33.9418 23.957 34.8565 23.6518C36.559 23.0829 37.8616 22.0502 39.2417 20.9342C39.4918 20.7325 39.7377 20.5255 39.9863 20.3144C40.0634 20.2491 40.1566 20.2059 40.2563 20.1893C40.3559 20.1727 40.4581 20.1834 40.5522 20.2201C40.6462 20.2569 40.7286 20.3184 40.7906 20.3982C40.8525 20.4779 40.8917 20.573 40.9041 20.6732C40.9192 20.7944 40.9311 20.8932 40.9353 20.9467C41.1199 23.1354 42.8416 23.9014 45.0433 24.0074C45.2939 24.0194 47.8976 23.8956 48.4082 23.6128C48.4332 22.4942 47.5513 21.512 47.5513 20.395Z" fill="#304ACA"/>
<path d="M29.0341 20.1689C29.0342 20.1685 29.0342 20.1681 29.0341 20.1677C29.034 20.1673 29.0338 20.167 29.0335 20.1667C29.0333 20.1664 29.033 20.1661 29.0326 20.166C29.0323 20.1658 29.0319 20.1657 29.0315 20.1657C28.864 20.1533 28.798 20.0773 28.7684 19.8787C28.7164 19.5382 28.636 19.2027 28.5281 18.8756C28.1932 17.8507 27.7419 16.8882 26.8563 16.2111C25.7992 15.4025 24.5163 15.4712 23.6427 16.4664C23.1747 16.9979 22.8107 17.639 22.4904 18.2776C21.9792 19.3072 21.6766 20.3982 21.8144 21.5749C21.9704 22.8905 22.6074 23.6154 23.9095 23.7491C24.9152 23.8531 25.4112 23.8198 26.4242 23.8531C26.485 23.8531 26.6769 23.8588 26.8704 23.8619C26.9286 23.8628 26.9858 23.8767 27.0379 23.9027C27.0899 23.9287 27.1355 23.9661 27.1711 24.0121C27.2068 24.0581 27.2317 24.1115 27.2439 24.1684C27.2561 24.2253 27.2553 24.2843 27.2416 24.3408C27.2405 24.3472 27.2389 24.3534 27.237 24.3595C27.0108 25.1094 26.3899 25.736 25.8974 26.1926C24.1352 27.8274 23.3526 28.3802 21.1566 29.298L20.8878 29.4093C20.8122 29.4405 20.7483 29.4946 20.705 29.564C20.6617 29.6333 20.6412 29.7145 20.6463 29.7961C20.6514 29.8777 20.6819 29.9556 20.7335 30.0191C20.785 30.0825 20.8552 30.1282 20.934 30.1498H20.9392C22.6438 30.6063 23.6469 30.5803 25.2719 30.6063C25.4012 30.6135 25.5306 30.5932 25.6516 30.5469C25.7726 30.5006 25.8824 30.4292 25.9739 30.3375C27.3467 29.0115 28.3139 27.4572 28.6618 25.5587C28.7585 25.0283 28.7954 24.4875 28.8646 23.9092H28.8682C28.8708 22.6612 28.8921 21.4111 29.0341 20.1689ZM24.4253 20.2697C23.7675 20.2214 23.4477 19.8017 23.5221 19.3004C23.5933 18.8158 24.1658 18.3993 24.7077 18.4378C25.4721 18.4898 26.3909 19.2068 26.7315 20.0284C26.7417 20.0535 26.7455 20.0806 26.7429 20.1075C26.7402 20.1343 26.731 20.1601 26.7161 20.1827C26.7012 20.2052 26.681 20.2238 26.6574 20.2367C26.6337 20.2497 26.6072 20.2568 26.5802 20.2573C25.8496 20.2749 25.1336 20.3223 24.4253 20.2697Z" fill="#304ACA"/>
<path d="M4.01945 29.963C3.94838 29.9383 3.88654 29.8925 3.84221 29.8316C3.79788 29.7708 3.77316 29.698 3.77135 29.6227C3.76954 29.5475 3.79073 29.4735 3.83209 29.4106C3.87345 29.3478 3.93301 29.299 4.00281 29.2709C4.20249 29.1898 4.36681 29.1237 4.41413 29.1071C6.35684 28.3937 7.25644 27.7249 8.80292 26.3511C9.3198 25.8919 9.76908 25.3402 10.1731 24.776C10.5974 24.1832 10.6318 23.5098 10.3744 22.8063C9.99112 21.759 9.62452 21.304 8.82008 20.576L8.46596 20.2437C8.06816 19.9213 8.41396 19.3946 8.5242 19.1627L8.91004 18.365C9.06864 18.0363 9.11492 17.8112 9.27768 17.4841C9.42276 17.1934 9.90168 17.1128 10.1331 17.3473C11.2589 18.4825 11.7201 19.8012 12.0337 21.3586C12.7274 24.8036 11.6764 27.6417 9.572 29.7919C9.04836 30.353 8.1706 30.4825 7.82844 30.4679C6.33344 30.4128 6.5196 30.444 4.78021 30.1637C4.57949 30.1086 4.21549 30.0337 4.01945 29.963Z" fill="#304ACA"/>
<path d="M76.5972 13.804L76.3091 15.22C76.2681 15.4219 76.2955 15.6317 76.3869 15.8163C76.4783 16.001 76.6286 16.1499 76.8141 16.2397C78.1895 16.9079 81.2476 18.5594 81.0516 19.9405C80.866 21.2452 77.7756 21.0481 76.0632 21.0845C75.4813 21.098 75.0055 20.8968 74.9259 22.4656C74.9254 22.4748 74.9254 22.484 74.9259 22.4932L74.8942 23.709C74.8942 23.7168 74.7096 25.1228 76.1729 24.9965C78.3216 24.8108 82.8503 23.5561 82.6075 19.6483C82.3823 16.0301 79.5654 14.0271 77.9503 13.1686C77.8221 13.1009 77.68 13.0639 77.5351 13.0606C77.3902 13.0572 77.2466 13.0875 77.1154 13.1491C76.9842 13.2107 76.8691 13.3019 76.7792 13.4156C76.6893 13.5292 76.627 13.6622 76.5972 13.804Z" fill="#304ACA"/>
<path d="M66.6685 13.1519L67.617 13.1629C68.2873 13.1707 68.824 13.765 68.8131 14.491L68.8032 15.375C68.7949 16.103 68.2447 16.6828 67.5744 16.675L66.6254 16.6641C65.9551 16.6563 65.4184 16.0619 65.4294 15.336L65.4392 14.4519C65.4481 13.7265 65.9977 13.1441 66.6685 13.1519Z" fill="#304ACA"/>
<path d="M69.5945 21.7012V21.9019C69.5882 22.4407 69.5716 23.5821 69.5716 23.5821C69.5628 24.32 68.9653 24.6002 68.2836 24.6429C66.1604 24.7739 64.7923 25.0906 62.5183 24.1016C62.0623 23.9029 61.6447 23.1822 61.1081 23.308C60.3728 23.4801 59.8372 24.5945 59.1643 24.282C58.5996 24.0189 60.2225 23.7833 60.0514 23.45C59.7738 22.9102 59.5065 22.3668 59.2299 21.825C58.8846 21.1641 59.1571 20.7949 59.5351 20.4163C59.9511 20.0003 60.3868 19.6436 60.4113 18.4455C60.4477 16.6775 62.276 16.8954 62.2781 18.2328C62.2781 19.4501 61.3676 21.2764 68.2732 20.7943C68.8134 20.7564 69.2924 20.955 69.4946 21.3206C69.5666 21.434 69.6015 21.5671 69.5945 21.7012Z" fill="#304ACA"/>
<path d="M74.068 9.79429C74.0883 10.3663 74.0311 10.9471 74.0035 11.5103C73.9626 12.3475 73.9214 13.1849 73.8798 14.0224L73.5849 19.9993L73.3983 23.7891L73.3915 23.9201C73.3831 24.0886 73.3387 24.2533 73.2615 24.4032C72.6739 25.5472 70.8695 25.1879 70.8003 23.9139L70.648 21.096L70.336 15.3448L70.1883 12.6314C70.1363 11.6762 69.9901 10.6778 70.0671 9.72721C70.1394 8.84321 70.5627 7.88485 71.3723 7.39137C72.1123 6.94001 72.936 7.14644 73.4451 7.81257C73.9016 8.41057 74.0436 9.09281 74.068 9.79429Z" fill="#304ACA"/>
<path d="M16.0418 23.6497C15.4043 23.6497 14.8813 23.5232 14.4729 23.2701C14.0734 23.0262 13.7375 22.691 13.4927 22.292C13.243 21.8796 13.0649 21.428 12.966 20.9561C12.8612 20.4806 12.7996 19.9966 12.7819 19.51C12.7492 18.9874 12.7247 17.1923 12.7086 16.39C12.6925 15.5876 12.6597 14.726 12.6103 13.79C12.5285 12.5323 12.4469 11.4907 12.3654 10.6653C12.3085 10.0947 12.2638 9.63535 12.2312 9.2873C12.2195 9.16442 12.2379 9.04053 12.2848 8.92636C12.3317 8.81219 12.4058 8.71118 12.5006 8.6321L14.2769 7.14802C14.5057 6.96862 14.7059 6.87866 14.7548 6.87866C14.8203 6.87866 15.098 6.98266 15.098 7.19742L15.1593 18.7222C15.1833 19.5791 15.9997 20.3669 16.7526 20.3399H17.8306V23.6481L16.0418 23.6497Z" fill="#304ACA"/>
<path d="M16.5348 32.6026L15.1724 33.965C15.1444 33.9933 15.1111 34.0158 15.0743 34.0312C15.0375 34.0466 14.998 34.0545 14.9582 34.0545C14.9183 34.0545 14.8789 34.0466 14.8421 34.0312C14.8053 34.0158 14.772 33.9933 14.7439 33.965L13.4034 32.6026C13.3477 32.5461 13.3164 32.47 13.3164 32.3907C13.3164 32.3113 13.3477 32.2352 13.4034 32.1788L14.7439 30.8164C14.772 30.7881 14.8054 30.7656 14.8421 30.7503C14.8789 30.7349 14.9183 30.7271 14.9582 30.7271C14.998 30.7271 15.0375 30.7349 15.0742 30.7503C15.111 30.7656 15.1444 30.7881 15.1724 30.8164L16.5348 32.1788C16.5906 32.2352 16.6218 32.3113 16.6218 32.3907C16.6218 32.47 16.5906 32.5461 16.5348 32.6026Z" fill="#304ACA" stroke="#304ACA" stroke-miterlimit="10"/>
<path d="M21.1602 17.8657C21.0954 17.5258 21.0094 17.1903 20.9028 16.8611C20.8001 16.5436 20.6689 16.236 20.5107 15.9422C20.3547 15.6562 20.272 15.5517 20.2403 15.5164C20.2263 15.5008 20.181 15.4607 20.1254 15.4124C20.0399 15.3378 19.9286 15.2995 19.8154 15.3059C19.7021 15.3122 19.5957 15.3625 19.5191 15.4462C19.4849 15.482 19.4532 15.5201 19.4239 15.56L18.1702 17.3C18.1265 17.3658 18.1012 17.4421 18.0969 17.521C18.0976 17.5727 18.1117 17.6235 18.138 17.6681C18.1545 17.6958 18.174 17.7216 18.1962 17.7451C19.1057 18.7409 19.3371 19.3238 19.3371 19.6961C19.3371 20.122 18.9882 20.3248 17.8759 20.3383C17.8428 20.3387 17.8111 20.3516 17.7873 20.3745C17.7634 20.3974 17.7492 20.4285 17.7475 20.4615C17.7407 21.5249 17.6773 22.5857 17.6211 23.6471C18.7623 23.637 19.652 23.196 20.2902 22.3242C20.9357 21.4423 21.2585 20.2742 21.2585 18.8199C21.2554 18.4995 21.2225 18.18 21.1602 17.8657Z" fill="#304ACA"/>
<path d="M20.4983 32.601L19.1577 33.9634C19.1297 33.9917 19.0964 34.0143 19.0596 34.0296C19.0228 34.045 18.9833 34.0529 18.9435 34.0529C18.9036 34.0529 18.8642 34.045 18.8274 34.0296C18.7906 34.0143 18.7572 33.9917 18.7292 33.9634L17.3669 32.601C17.3388 32.573 17.3165 32.5397 17.3013 32.5031C17.2861 32.4664 17.2783 32.4272 17.2783 32.3875C17.2783 32.3479 17.2861 32.3086 17.3013 32.272C17.3165 32.2354 17.3388 32.2021 17.3669 32.1741L18.7292 30.8117C18.7573 30.7834 18.7907 30.7609 18.8274 30.7456C18.8642 30.7302 18.9036 30.7224 18.9435 30.7224C18.9833 30.7224 19.0228 30.7302 19.0595 30.7456C19.0963 30.7609 19.1297 30.7834 19.1577 30.8117L20.4983 32.1741C20.5263 32.2021 20.5486 32.2354 20.5638 32.272C20.579 32.3086 20.5868 32.3479 20.5868 32.3875C20.5868 32.4272 20.579 32.4664 20.5638 32.5031C20.5486 32.5397 20.5263 32.573 20.4983 32.601Z" fill="#304ACA" stroke="#304ACA" stroke-miterlimit="10"/>
<path d="M55.7422 12.0854L54.3798 13.4484C54.3517 13.4767 54.3183 13.4991 54.2814 13.5145C54.2446 13.5298 54.2051 13.5377 54.1653 13.5377C54.1254 13.5377 54.0859 13.5298 54.0491 13.5145C54.0123 13.4991 53.9788 13.4767 53.9508 13.4484L52.6102 12.086C52.5547 12.0295 52.5237 11.9535 52.5237 11.8743C52.5237 11.7952 52.5547 11.7192 52.6102 11.6627L53.9508 10.2998C53.9788 10.2714 54.0123 10.249 54.0491 10.2336C54.0859 10.2183 54.1254 10.2104 54.1653 10.2104C54.2051 10.2104 54.2446 10.2183 54.2814 10.2336C54.3183 10.249 54.3517 10.2714 54.3798 10.2998L55.7422 11.6622C55.7977 11.7186 55.8289 11.7946 55.8289 11.8738C55.8289 11.953 55.7977 12.029 55.7422 12.0854Z" fill="#304ACA" stroke="#304ACA" stroke-miterlimit="10"/>
<path d="M59.7057 12.0839L58.3651 13.4463C58.3371 13.4746 58.3037 13.497 58.2669 13.5124C58.2301 13.5277 58.1907 13.5356 58.1509 13.5356C58.111 13.5356 58.0716 13.5277 58.0348 13.5124C57.998 13.497 57.9647 13.4746 57.9366 13.4463L56.5737 12.0833C56.5173 12.0266 56.4856 11.9499 56.4856 11.8699C56.4856 11.7899 56.5173 11.7131 56.5737 11.6564L57.9366 10.294C57.9647 10.2657 57.998 10.2433 58.0348 10.2279C58.0716 10.2126 58.111 10.2047 58.1509 10.2047C58.1907 10.2047 58.2301 10.2126 58.2669 10.2279C58.3037 10.2433 58.3371 10.2657 58.3651 10.294L59.7057 11.6569C59.7622 11.7136 59.794 11.7904 59.794 11.8704C59.794 11.9505 59.7622 12.0272 59.7057 12.0839Z" fill="#304ACA" stroke="#304ACA" stroke-miterlimit="10"/>
<path d="M57.804 8.82769L56.4634 10.1901C56.4353 10.2184 56.4019 10.2409 56.3651 10.2562C56.3283 10.2716 56.2888 10.2795 56.2489 10.2795C56.2091 10.2795 56.1696 10.2716 56.1328 10.2562C56.0959 10.2409 56.0625 10.2184 56.0344 10.1901L54.672 8.82769C54.644 8.79968 54.6217 8.7664 54.6065 8.72978C54.5913 8.69315 54.5835 8.65389 54.5835 8.61423C54.5835 8.57458 54.5913 8.53531 54.6065 8.49869C54.6217 8.46206 54.644 8.42878 54.672 8.40077L56.0344 7.03837C56.0625 7.00999 56.0959 6.98746 56.1327 6.97208C56.1695 6.95671 56.209 6.94879 56.2489 6.94879C56.2888 6.94879 56.3283 6.95671 56.3652 6.97208C56.402 6.98746 56.4354 7.00999 56.4634 7.03837L57.804 8.40077C57.8604 8.45748 57.8921 8.53423 57.8921 8.61423C57.8921 8.69423 57.8604 8.77098 57.804 8.82769Z" fill="#304ACA" stroke="#304ACA" stroke-miterlimit="10"/>
<path d="M40.1666 32.0784L38.824 33.4408C38.796 33.4692 38.7626 33.4917 38.7258 33.507C38.6891 33.5224 38.6496 33.5303 38.6097 33.5303C38.5699 33.5303 38.5304 33.5224 38.4936 33.507C38.4569 33.4917 38.4235 33.4692 38.3955 33.4408L37.0331 32.0784C37.005 32.0504 36.9828 32.0171 36.9676 31.9805C36.9524 31.9438 36.9446 31.9046 36.9446 31.8649C36.9446 31.8253 36.9524 31.786 36.9676 31.7494C36.9828 31.7127 37.005 31.6795 37.0331 31.6514L38.3955 30.289C38.4235 30.2607 38.4569 30.2383 38.4937 30.2229C38.5305 30.2076 38.5699 30.1997 38.6097 30.1997C38.6496 30.1997 38.689 30.2076 38.7258 30.2229C38.7626 30.2383 38.7959 30.2607 38.824 30.289L40.1645 31.6514C40.1927 31.6793 40.2151 31.7125 40.2305 31.749C40.2459 31.7856 40.2539 31.8248 40.2541 31.8645C40.2543 31.9041 40.2467 31.9434 40.2316 31.9801C40.2166 32.0168 40.1945 32.0502 40.1666 32.0784Z" fill="#304ACA" stroke="#304ACA" stroke-miterlimit="10"/>
</svg>
