<svg xmlns="http://www.w3.org/2000/svg" xmlns:xlink="http://www.w3.org/1999/xlink" width="210" height="105" viewBox="0 0 210 105">
  <defs>
    <linearGradient id="linear-gradient" y1="0.604" x2="1" y2="0.5" gradientUnits="objectBoundingBox">
      <stop offset="0" stop-color="#ac4fff"/>
      <stop offset="1" stop-color="#5c40ff"/>
    </linearGradient>
  </defs>
  <g id="Logo" transform="translate(-1404 -269)">
    <path id="Path_164" data-name="Path 164" d="M45,0C69.385,6.361,90,20.147,90,45A45,45,0,0,1,0,45C0,20.147,20.615-6.361,45,0Z" transform="translate(1524 277)" fill="url(#linear-gradient)"/>
    <g id="music-library-svgrepo-com" transform="translate(1540.223 295.223)">
      <path id="Path_160" data-name="Path 160" d="M19.362,17.092l-.91,1.706h0ZM21.636,18.3l.91-1.706h0ZM24.2,13.488l.91-1.706h0ZM21.93,12.275l.91-1.706h0Zm-4.009,2,1.93.117h0Zm3.646-2.188-.8,1.758h0Zm4.081,3.637,1.932-.061h0Zm-1.292-2.153.964-1.676h0ZM22,18.493l.8-1.758h0Zm3.646-2.188-1.93-.117h0Zm-6.436.7-.964,1.676h0Zm-1.292-2.153-1.932.061h0ZM15.983,26.89a1.933,1.933,0,0,1-1.933,1.933V32.69a5.8,5.8,0,0,0,5.8-5.8ZM14.05,28.823a1.933,1.933,0,0,1-1.933-1.933H8.25a5.8,5.8,0,0,0,5.8,5.8ZM12.117,26.89a1.933,1.933,0,0,1,1.933-1.933V21.09a5.8,5.8,0,0,0-5.8,5.8Zm1.933-1.933a1.933,1.933,0,0,1,1.933,1.933H19.85a5.8,5.8,0,0,0-5.8-5.8Zm5.8,1.933V15.29H15.983v11.6Zm-1.4-8.092,2.275,1.213L22.545,16.6l-2.274-1.213Zm6.663-7.015L22.84,10.57l-1.819,3.412,2.274,1.213Zm-5.265,2.9c0-.114,0-.186,0-.24s0-.063,0-.052l-3.86-.234c-.009.152-.008.34-.008.526Zm2.99-4.114c-.164-.088-.329-.177-.468-.24l-1.61,3.515.046.024.212.113Zm-2.989,3.822a.644.644,0,0,1,.911-.547l1.61-3.515a4.511,4.511,0,0,0-6.381,3.828Zm7.732,1.5c0-.075,0-.155,0-.234l-3.865.123a.185.185,0,0,0,0,.019V15.9Zm-4.288-.7.081.044.017.009,1.927-3.352c-.069-.039-.139-.077-.206-.112Zm4.286.468a4.511,4.511,0,0,0-2.26-3.768l-1.927,3.352a.644.644,0,0,1,.323.538Zm-6.854,4.348c.164.087.329.177.468.24l1.61-3.516-.046-.023-.212-.113Zm2.99-4.114c0,.114,0,.186,0,.24s0,.063,0,.052l3.86.234c.009-.152.008-.34.008-.526Zm-2.522,4.354a4.511,4.511,0,0,0,6.381-3.828l-3.86-.234a.644.644,0,0,1-.911.547Zm-.923-4.865-.081-.044-.017-.009-1.927,3.352c.069.039.139.077.206.112Zm-4.288-.7c0,.075,0,.155,0,.234l3.865-.123a.175.175,0,0,0,0-.019v-.093Zm4.19.65a.645.645,0,0,1-.323-.538l-3.865.123a4.512,4.512,0,0,0,2.26,3.768Z" transform="translate(9.861 12.488)" fill="#fff"/>
      <path id="Path_161" data-name="Path 161" d="M44.952,11.2,42,10.685A4,4,0,0,0,38.061,6H9.9a4,4,0,0,0-3.936,4.685L3.012,11.2A7,7,0,0,1,9.9,3H38.061a7,7,0,0,1,6.891,8.2Z" transform="translate(3.795 3.944)" fill="#fff"/>
      <path id="Path_162" data-name="Path 162" d="M36.413,8.608l-2.982-.327c.065-.594.1-.922.1-1.117a3.647,3.647,0,0,0-3.265-3.643c-.194-.021-.524-.021-1.122-.021h-16.8c-.6,0-.928,0-1.122.021A3.647,3.647,0,0,0,7.957,7.163c0,.2.036.523.1,1.117l-2.982.327A14.007,14.007,0,0,1,4.957,7.17,6.641,6.641,0,0,1,10.9.538,14,14,0,0,1,12.344.5h16.8a14,14,0,0,1,1.442.038A6.655,6.655,0,0,1,36.533,7.17,13.959,13.959,0,0,1,36.413,8.608Z" transform="translate(7.032)" fill="#fff"/>
      <path id="Path_163" data-name="Path 163" d="M35.264,47.166H20.29a74.028,74.028,0,0,1-8.143-.25,9.784,9.784,0,0,1-5.36-2.009,8.986,8.986,0,0,1-2.85-4.825,63.052,63.052,0,0,1-1.344-7.629L1.5,24.72a72.534,72.534,0,0,1-1-9.725c.022-2.859.671-4.825,2.106-6.375,1.416-1.529,3.36-2.386,6.3-2.777A85.459,85.459,0,0,1,19.2,5.5H36.355a85.458,85.458,0,0,1,10.29.343c2.943.392,4.887,1.248,6.3,2.777a7.955,7.955,0,0,1,2.024,4.826,29.664,29.664,0,0,1-.292,6.624,1.5,1.5,0,0,1-2.978-.363c.654-5.361.422-7.56-.956-9.049C48.748,8.5,44.606,8.5,36.355,8.5H19.2c-8.252,0-12.394,0-14.392,2.158C2.849,12.774,3.392,16.627,4.474,24.3l1.09,7.733c.846,6,1.271,9.017,3.136,10.562,1.9,1.57,5.136,1.57,11.589,1.57H35.264c6.454,0,9.693,0,11.589-1.57,1.865-1.544,2.29-4.557,3.136-10.559l1.486.207,1.485.212a63.033,63.033,0,0,1-1.344,7.627,8.985,8.985,0,0,1-2.849,4.824,9.784,9.784,0,0,1-5.36,2.009A74.03,74.03,0,0,1,35.264,47.166Z" transform="translate(0 7.889)" fill="#fff"/>
    </g>
    <text id="موزیکـ_ـــجویار" data-name="موزیکـ
ـــجویار" transform="translate(1461 311)" fill="#735bff" font-size="42" font-family="YekanBakhFaNum-Bold, Yekan Bakh FaNum" font-weight="700"><tspan x="-56.511" y="0">موزیکـ</tspan><tspan y="0"></tspan><tspan x="-54.831" y="40">ـــجویار</tspan></text>
  </g>
</svg>
