<svg xmlns="http://www.w3.org/2000/svg" width="502" height="194" viewBox="0 0 502 194"><g transform="translate(-905 -1427)"><rect width="455" height="104" rx="13" transform="translate(952 1427)" fill="#fff"/><path d="M13,1A12,12,0,0,0,1,13V91a12,12,0,0,0,12,12H442a12,12,0,0,0,12-12V13A12,12,0,0,0,442,1H13m0-1H442a13,13,0,0,1,13,13V91a13,13,0,0,1-13,13H13A13,13,0,0,1,0,91V13A13,13,0,0,1,13,0Z" transform="translate(952 1427)" fill="#e1e1e1"/><circle cx="16" cy="16" r="16" transform="translate(1350 1461)" fill="#e6e6e6"/><path d="M25,4A21,21,0,0,0,10.151,39.849a21,21,0,1,0,29.7-29.7A20.862,20.862,0,0,0,25,4m0-4A25,25,0,1,1,0,25,25,25,0,0,1,25,0Z" transform="translate(1341 1452)" fill="#735bff"/><rect width="280" height="15" rx="4" transform="translate(1053 1459)" fill="#e6e6e6"/><rect width="145" height="15" rx="4" transform="translate(1188 1486)" fill="#e6e6e6"/><g transform="translate(-47 90)"><rect width="455" height="104" rx="13" transform="translate(952 1427)" fill="#fff"/><path d="M13,1A12,12,0,0,0,1,13V91a12,12,0,0,0,12,12H442a12,12,0,0,0,12-12V13A12,12,0,0,0,442,1H13m0-1H442a13,13,0,0,1,13,13V91a13,13,0,0,1-13,13H13A13,13,0,0,1,0,91V13A13,13,0,0,1,13,0Z" transform="translate(952 1427)" fill="#e1e1e1"/><circle cx="16" cy="16" r="16" transform="translate(1350 1461)" fill="#e6e6e6"/><path d="M25,4A21,21,0,0,0,10.151,39.849a21,21,0,1,0,29.7-29.7A20.862,20.862,0,0,0,25,4m0-4A25,25,0,1,1,0,25,25,25,0,0,1,25,0Z" transform="translate(1341 1452)" fill="#729cfe"/><rect width="280" height="15" rx="4" transform="translate(1053 1459)" fill="#e6e6e6"/><rect width="145" height="15" rx="4" transform="translate(1188 1486)" fill="#e6e6e6"/></g></g></svg>