<svg xmlns="http://www.w3.org/2000/svg" xmlns:xlink="http://www.w3.org/1999/xlink" width="803.971" height="804" viewBox="0 0 803.971 804"><defs><filter id="a" x="303.974" y="289.048" width="196" height="213.952" filterUnits="userSpaceOnUse"><feOffset dy="3" input="SourceAlpha"/><feGaussianBlur stdDeviation="3" result="b"/><feFlood flood-opacity="0.161"/><feComposite operator="in" in2="b"/><feComposite in="SourceGraphic"/></filter></defs><g transform="translate(-155.327 -1769.603)"><g transform="matrix(1, 0, 0, 1, 155.33, 1769.6)" filter="url(#a)"><path d="M89,0c35.145,58.3,89,39.847,89,89A89,89,0,0,1,0,89C0,39.847,53.855-58.3,89,0Z" transform="translate(312.97 313)" fill="#0079e2"/></g><text transform="translate(576.302 2198.603)" fill="#fff" font-size="58" font-family="IRANSansFaNum"><tspan x="-27.386" y="0">?</tspan></text><path d="M253,0h1.528l.312,0h0q4.1.029,8.161.188l-.039,1C259.663,1.065,256.311,1,253,1V0Zm19.982.778.132.01.033,0,.05,0,.043,0,.045,0,.061,0,.027,0,.089.007.026,0,.07.006.022,0,.081.007h.012l.195.016h.006l.1.008h0q3.508.288,6.984.67h.006l.094.01h0l.193.021.015,0,.08.009.017,0,.082.009h.013l.093.01.016,0,.074.008.028,0,.068.008.024,0,.084.01.021,0,.074.008.035,0,.053.006.042,0,.051.006.038,0,.082.009.04,0,.051.006.041,0,.046.005.046.005.042,0,.083.01.041,0,.05.006.038,0,.051.006.034,0,.131.015-.117.993c-3.28-.387-6.615-.713-9.913-.971Zm19.859,2.342c1.943.307,3.888.638,5.816.99h.007l.089.016h.007l.185.034.022,0,.069.013.026,0,.061.011.031.006.081.015.045.008.041.008.053.01.031.006.056.01.023,0,.212.039h0l.075.014h0q1.456.272,2.907.561l-.2.981c-3.239-.645-6.537-1.234-9.8-1.75l.156-.988ZM312.45,7.024l.024.006.127.031h0l.06.015.024.006.059.014.021.005.288.07.007,0q3.418.832,6.8,1.756l.018,0,.062.017.016,0,.186.051.036.01.043.012.046.013.037.01.055.015.031.009.085.023.006,0,.082.023.018,0,.077.021.011,0c.486.135.969.27,1.453.407l-.273.962c-3.179-.9-6.421-1.75-9.634-2.524Zm19.236,5.451q.744.243,1.486.491h0l.219.073h0l.047.016.043.014.035.012.054.018.028.009q3.792,1.274,7.526,2.661l-.348.937c-3.1-1.152-6.263-2.256-9.4-3.283Zm18.744,6.966c1.118.467,2.238.944,3.348,1.427h0l.347.151.01,0,.076.033.01,0,.171.075.007,0,.075.033.018.008.067.029.018.008.07.031.014.006.084.037,0,0,.075.033.025.011.059.026.025.011.059.026.024.011.081.036h0l.076.034.03.013.05.022.034.015.046.02.038.017.045.02.054.024.053.024.043.019.038.017.046.02.029.013.052.023.023.01.179.08.022.01.054.024.022.01.056.025.018.008.058.026h0l.206.092.009,0,.065.029.009,0q1.564.7,3.118,1.424l-.422.907c-3-1.394-6.063-2.747-9.111-4.02Zm18.13,8.433q4.449,2.288,8.8,4.749l-.492.87c-2.878-1.627-5.827-3.219-8.765-4.73Zm17.4,9.842q1.329.822,2.647,1.661l0,0,.063.04,0,0,.251.16.013.008.049.031.024.015.047.03.027.017.043.027.038.024.054.034.05.032.031.02.042.027.034.022.045.029.028.018.057.037.016.01.077.049h0l.075.048.012.008.069.044.007,0q2.313,1.489,4.593,3.028l-.559.829c-2.74-1.85-5.555-3.669-8.364-5.408ZM402.538,48.9l.154.113,0,0,.073.053,0,0,.152.112,0,0,.066.049.019.014.053.039.022.016.046.034.028.021.046.034.043.032.047.035.032.023.038.028.034.025.034.025.039.029.03.022.038.029.026.019.083.062.022.016.048.036.017.012.05.037.016.012.052.039,0,0,.177.132.011.008.054.04.011.008.054.041.009.007.241.18.005,0,.057.042.01.007.055.041.009.007.179.134h0l.053.04.015.012.052.039.012.009.234.176.011.008.052.039.015.011.051.039.012.009.167.126.013.01.047.036.021.016.043.033.025.019.045.034.016.012.156.118.024.018.043.032.025.019.042.032.028.021.041.031.027.021.068.052.036.027.036.027.032.024.038.029.033.025.033.025.039.03.031.024.063.048.029.022.041.031.029.022.043.033.028.021.042.032.029.022.045.034.025.019.065.05.031.024.037.029.033.025.037.028.032.025.043.033.024.019.066.051.014.011.059.045.023.018.047.036.024.019.047.036.024.019.047.036.024.018.068.052.015.011.056.044.021.016.049.038.023.018.046.036.026.02.061.047.006,0,.069.053.024.019.045.035.029.022.04.031.03.024.043.033.026.02.064.05.024.019.046.036.03.023.039.03.033.025.037.029.031.024.038.029.037.029.059.046.036.028.029.023.042.033.024.019.044.035.019.015.048.038.008.007.174.136.005,0,.056.044.008.006q.735.577,1.467,1.159l-.623.782c-2.586-2.059-5.248-4.095-7.912-6.05Zm15.642,12.455.288.249.011.009.046.04.019.016.045.039.022.019.039.034.046.04.034.029.05.044.018.016.049.043.02.018.052.045.014.012.209.182h0l.07.061h0q1.18,1.029,2.345,2.071l0,0,.21.188.005,0,.061.054.014.012.055.049.013.012.055.05.014.012.065.058.018.016.045.04.028.025.037.034.031.028.031.028.035.032.026.024.071.064.024.022.043.039.018.016.045.041.015.014.05.045,0,0q1.534,1.387,3.046,2.8l-.682.731c-2.416-2.256-4.91-4.494-7.412-6.653ZM432.795,75c.79.8,1.58,1.606,2.359,2.414l0,0,.059.061.012.012.05.052.014.015.051.053.012.012.063.065,0,0,.056.058.023.024.037.038.027.028.031.032.031.032.028.03.125.13.019.019.039.041.019.02.043.045.009.009q1.913,2,3.783,4.045l-.738.675c-2.231-2.438-4.542-4.865-6.867-7.214l.711-.7Zm13.5,14.751q1.109,1.311,2.2,2.638l0,0,.187.228.012.015.038.047.016.019.036.044.019.023.036.044.012.014.078.095.012.014.034.041.022.027.03.037.025.031.028.034.029.036.026.032.028.035.048.059.03.036.023.029.033.04.023.029.033.041.021.026.042.052.013.016.056.069.009.011.045.056.019.024.036.045.021.026.036.045.019.023.054.067h0l.055.068L449.8,94l.037.046.019.024.037.045.021.026.038.047.017.021.054.067.015.019.04.049.022.028.03.038.027.034.029.036.025.031.037.047.016.02.053.065.024.03.029.037.028.035.027.033.026.033.029.036.027.034.025.032.056.07.021.026.03.037.026.033.028.035.025.031.03.037.023.029.117.147.014.018.036.045.017.021.037.046.015.019.037.047.01.013.133.167.006.008.042.052.011.013.043.054,0,0q.655.825,1.3,1.656l-.788.615c-2.033-2.606-4.145-5.207-6.28-7.731Zm12.3,15.766q2.186,3.042,4.283,6.15l0,0,.041.061,0,.006.041.06,0,0,.115.171.019.028.026.039.025.037.022.033.03.045.017.025.1.152h0l.052.078h0c.3.448.593.888.89,1.339l-.834.551c-1.821-2.757-3.722-5.516-5.652-8.2ZM469.611,122.2c.827,1.367,1.637,2.735,2.439,4.119v0l.044.076.006.01.045.077h0l.095.164,0,0,.042.073.01.017.036.063.01.017.037.065.008.014.045.078.008.013.036.062.016.028.028.049.017.03.028.048.017.029.036.063.007.012.042.073.019.034.025.043.02.035.024.041.02.036.025.044.019.032.032.055.031.055.02.036.023.04.02.036.023.041.02.035.023.04.019.034.042.075.021.037.023.04.019.034.025.044.017.031.026.045.014.025.1.169.012.021.027.047.017.029.025.045.016.028.027.048.008.014.1.179.01.018.031.056.008.015.033.058.006.01.108.193,0,.005.034.06.007.012.034.061,0,.007.187.334,0,.006q.3.545.606,1.091l-.875.483c-1.6-2.893-3.275-5.793-4.987-8.622Zm9.667,17.5.04.079h0l.038.076.012.025.027.054.014.028.025.05.016.032.024.047.037.074.013.025.025.05.014.027.026.053.007.015q.745,1.5,1.472,3l0,0,.127.264.01.02.025.052.012.026.024.049.014.029.077.161.017.036.02.041.02.042.017.035.025.052.012.025.077.161.011.022.029.06.011.023.03.062.009.019.078.164,0,.009.036.076.005.011.036.076,0,.008c.589,1.243,1.165,2.487,1.734,3.742l0,0,.036.078,0,.011.01.021-.911.413c-1.363-3.01-2.806-6.034-4.288-8.989Zm8.249,18.214q.263.647.522,1.3l0,.008.023.058.009.022.021.053.013.031.019.047.015.036.028.071.019.049.013.032.021.053.012.031.022.056.01.026.029.074,0,.008.034.087,0,.007.03.076.007.018.028.07.006.016.1.26,0,.009.032.082,0,0q.371.943.733,1.888h0l.138.36h0l.136.357,0,.007.032.085v0l.1.269v0l.136.359h0l.033.088v0q.625,1.662,1.227,3.333l-.941.339c-1.12-3.109-2.318-6.238-3.561-9.3Zm6.775,18.811c.4,1.274.791,2.539,1.173,3.822l0,.01.023.077.006.02.02.066.007.025.023.078.008.025.019.065.011.039.013.043.013.045.011.037.015.049.008.027.033.113,0,.015.018.06.006.022.018.063,0,.011q.716,2.432,1.384,4.885l-.965.263c-.869-3.189-1.814-6.4-2.81-9.556l.954-.3Zm5.257,19.292q1.109,4.818,2.033,9.7l0,.011.013.07h0l-.983.185c-.613-3.249-1.3-6.528-2.04-9.748Zm3.707,19.65q.09.61.178,1.222l0,.014.008.055,0,.034.007.049.006.043.006.043.012.082,0,.029.009.062,0,.031.009.062,0,.029.012.086v0l.013.094,0,.015.011.081,0,.014.013.09v0q.192,1.38.369,2.763h0l.038.3h0l.012.1v0l.037.293v.006l.012.092v.006l.024.193v.011l.01.084,0,.013.035.285,0,.015.01.083v.011l.023.193v0l.011.088,0,.015.011.09v0l.024.2v0l.011.095v0q.168,1.413.321,2.831l-.994.107c-.354-3.288-.779-6.611-1.262-9.877Zm2.142,19.878c.041.6.08,1.2.116,1.8v0l.005.09v.017l0,.077v.02l.005.09v.025l0,.065,0,.039,0,.049,0,.043,0,.047,0,.084,0,.04,0,.053,0,.031,0,.061v.014q.211,3.654.318,7.335l-1,.029c-.1-3.308-.258-6.655-.482-9.949l1-.068Zm-.42,19.984,1,.01q-.021,2.118-.076,4.227h0q0,.153-.008.305v.016l0,.069h0l0,.154v0l0,.063v.028l0,.058v.031l0,.093v.269l0,.083v.04l0,.052v.041l0,.054v.037l0,.08v.025l0,.073v.036l0,.059v.032l0,.075v.018l0,.092v.02l0,.076v.021l0,.084v.01l0,.1v.011l0,.084v.02l0,.081v.014l-.007.193v.014l0,.084v.015c0,.068,0,.127-.007.195v.007l0,.087v.018l-.007.194h0l0,.1v.009l0,.092v.007l-.008.2v.01l0,.089v.01l-.008.2v.005l0,.089v.016l-.008.193V264l0,.085v.019l0,.08v.017l0,.1v0l0,.087v.031l0,.063v.032l0,.072v.029l0,.076,0,.041,0,.048,0,.046,0,.046,0,.043,0,.079,0,.053,0,.036,0,.057v.023l-.01.212v.009l0,.069v.015l0,.07-1-.049C504.857,262.193,504.955,258.845,504.987,255.537Zm-.972,19.893,1,.088q-.062.7-.127,1.4v.01l-.007.072v0l-.021.217,0,.022-.006.061,0,.028-.005.056,0,.043-.007.076,0,.052,0,.04,0,.051,0,.039-.006.066,0,.022-.009.091,0,.018-.007.076,0,.021-.008.077,0,.017-.019.191v.009l-.009.088v.01l-.03.295h0q-.216,2.143-.467,4.274v0l-.011.1v0l-.023.192,0,.015-.009.077,0,.022-.01.08v.012l-.011.09,0,.027-.007.061,0,.04-.006.048-.005.043-.006.046-.01.083,0,.038-.007.053,0,.031-.007.058,0,.022-.026.214v0q-.072.58-.146,1.158l-.992-.127C503.365,282.055,503.725,278.724,504.016,275.43Zm-2.53,19.753.986.166q-.267,1.583-.553,3.16v0l-.053.289,0,.025-.01.056-.006.031-.01.054-.008.043-.013.069-.01.052-.008.043-.009.047-.007.04-.01.052-.007.035-.016.087,0,.009-.015.081,0,.023-.013.072,0,.019-.015.083,0,.009-.035.188,0,.01-.017.091h0c-.324,1.723-.666,3.444-1.025,5.154l-.979-.205C500.313,301.737,500.936,298.443,501.485,295.183ZM497.4,314.674l.97.244q-.076.3-.153.6v.005l-.018.071,0,.008-.052.2-.006.023-.013.052-.009.034-.012.048-.011.042-.011.043-.019.073-.008.032-.015.06-.01.039-.013.05-.009.035-.015.059-.007.026-.045.175-.006.023-.018.068-.005.021-.02.075,0,.014-.047.179,0,.018-.019.074,0,.017-.021.079,0,.01-.048.182,0,.013-.02.075-.005.019-.019.074,0,.016-.047.177-.006.024-.017.064-.007.026-.018.067-.005.02-.024.089h0l-.022.084-.008.031-.014.054-.009.035-.014.052-.01.036-.016.058-.016.059-.012.046-.012.045-.011.041-.013.047-.009.033-.014.053,0,.018-.036.136h0l-.019.07,0,.009-.019.07v.005q-.752,2.791-1.566,5.556l-.959-.282C495.71,321.113,496.592,317.879,497.4,314.674Zm-5.624,19.106.947.32q-1.6,4.745-3.391,9.405l-.934-.358C489.58,340.062,490.716,336.91,491.775,333.78Zm-7.126,18.6.919.395q-.586,1.365-1.188,2.721l0,.005-.125.282v0l-.028.062-.007.016-.026.057-.01.022-.025.056v0l-.059.132,0,.01-.023.051-.013.03-.022.049-.013.028-.023.051-.009.02-.055.123,0,0-.023.052-.012.026-.022.05-.014.03-.021.047-.014.031-.022.049,0,.006-.051.114-.013.028-.022.049-.013.03-.022.048-.013.03-.023.05-.011.023-.041.091-.015.034-.019.043-.017.038-.019.041-.016.036-.02.045-.016.035-.031.069-.021.046-.02.045-.015.033-.022.047-.013.029-.023.05-.013.029-.022.047-.01.022-.048.1-.01.022-.023.051-.013.027-.023.05-.012.027-.024.053,0,.008-.055.12-.008.016-.022.049-.014.03-.022.049-.013.029-.022.048-.014.03-.047.1-.008.017-.022.049-.013.028-.022.048-.014.031-.022.047-.014.03-.022.047-.015.032-.04.087-.013.029-.022.048-.015.032-.02.044-.017.037-.02.042-.02.043-.028.06-.022.048-.018.038-.02.044-.017.036-.02.042-.018.039-.02.043-.017.036-.034.074-.016.035-.021.045-.016.034-.022.048-.015.032-.026.056-.011.023-.037.08-.006.013-.032.069-.011.022-.028.06-.01.022-.031.065-.008.016-.079.168h0l-.04.084,0,.005c-.174.369-.344.727-.52,1.095l-.9-.431C481.961,358.464,483.344,355.412,484.649,352.376Zm-8.581,17.972.885.466q-2.337,4.433-4.838,8.752l-.865-.5C472.906,376.2,474.527,373.271,476.068,370.348Zm-9.978,17.237.845.535q-2.676,4.228-5.513,8.342l-.823-.568C462.475,393.172,464.323,390.376,466.09,387.585Zm-11.307,16.4.8.6q-2,2.671-4.072,5.287l-.006.007-.052.065-.007.009-.114.143-.011.013-.044.055-.019.024-.034.043-.023.029-.03.038-.027.033-.019.024-.12.151-.013.017-.04.05-.009.012-.044.055,0,0q-.73.915-1.468,1.824l-.776-.631C450.74,409.266,452.8,406.624,454.784,403.98Zm-12.562,15.455.751.661-.014.016-.036.041-.007.008-.14.159-.013.014-.043.048-.01.012-.045.051,0,.005-.2.229,0,0-.051.058h0q-2.927,3.3-5.965,6.5l-.007.007-.05.052,0,0-.145.152-.015.016-.724-.69C437.775,424.387,440.038,421.916,442.222,419.435Zm-13.737,14.421.7.718c-.312.3-.627.607-.94.908l0,0-.134.128-.011.01-.053.051-.018.017-.044.042-.023.022-.043.041-.021.02-.057.055-.027.026-.038.036-.034.033-.026.025-.039.037-.02.019-.042.04-.013.012-.211.2-.01.009-.052.049,0,0q-2.688,2.557-5.451,5.034l-.668-.744C423.663,438.445,426.113,436.159,428.485,433.857Zm-14.826,13.3.638.77q-1.774,1.47-3.575,2.907h0l-.06.048h0l-.3.242h0l-.06.048h0q-1.9,1.507-3.821,2.978l-.607-.795C408.491,451.351,411.113,449.264,413.659,447.155Zm-15.825,12.092.575.818q-.7.493-1.406.982l0,0-.061.042-.005,0-.059.041-.007.005-.122.084h0l-.047.033-.024.016-.043.03-.031.021-.039.027-.034.023-.035.024-.056.038-.037.026-.047.033-.03.021-.043.029-.029.02-.047.032-.025.017-.064.044-.007.005-.074.051-.015.01-.06.041-.018.012-.057.039-.017.012-.064.044-.01.007-.153.1,0,0-.073.05-.008.006-.071.048,0,0-.312.213h0q-1.259.857-2.527,1.7h0l-.077.051,0,0-.233.154-.01.007-.066.043-.013.009-.068.045-.008.005-.15.1-.022.014-.05.033-.03.02-.043.028-.031.02-.045.03-.029.019-.069.045-.035.023-.034.023-.043.028-.028.018-.045.03-.024.015-.048.031-.014.009-.176.115-.012.008-.055.036-.013.008q-.52.34-1.042.677l-.543-.84C392.351,463.023,395.13,461.15,397.834,459.247Zm-16.728,10.808.509.861-.041.024,0,0-.323.191-.008,0-.32.188-.011.007-.072.042-.007,0-.241.141-.011.006-.07.041-.011.006-.07.041-.011.006-.158.092-.016.009-.061.035-.022.013-.057.033-.022.013-.068.039-.008,0-.078.046-.014.008-.064.037-.02.012-.057.033-.024.014-.056.032-.022.013-.069.04-.007,0-.076.044-.021.012-.056.032-.026.015-.05.029-.028.016-.052.03-.025.015-.074.043-.023.013-.051.029-.035.02-.041.024-.036.021-.039.022-.037.021-.044.025-.059.034-.041.024-.04.023-.036.02-.04.023-.035.02-.042.024-.031.017-.157.09-.029.017-.046.026-.026.015-.049.028-.024.014-.05.029-.012.007-.121.069,0,0-.055.031-.019.011-.054.031-.019.011-.054.031-.014.008-.258.146-.007,0-.063.036,0,0q-2.276,1.289-4.581,2.532l-.475-.88C375.342,473.387,378.26,471.739,381.105,470.056Zm-17.53,9.452.439.9q-4.489,2.2-9.068,4.214l-.4-.915C357.567,482.373,360.606,480.961,363.576,479.508Zm-18.223,8.032.367.93c-.913.36-1.823.712-2.741,1.062h0l-.262.1-.021.008-.064.024-.024.009-.063.024-.023.009-.08.03-.029.011-.052.02-.041.015-.039.015-.045.017-.033.012-.2.073h0l-.065.024-.013,0-.067.025h0q-2.741,1.028-5.512,1.995l-.329-.944C339.135,489.919,342.277,488.752,345.352,487.54ZM326.547,494.1l.291.957-.836.253h0l-.09.027-.007,0-.084.025-.008,0-.182.054-.009,0-.077.023-.021.006-.068.02-.021.006-.085.025h0l-.084.025-.034.01-.052.015-.037.011-.051.015-.034.01-.06.018-.028.008-.079.023-.035.01-.051.015-.036.011-.05.015-.038.011-.049.014-.058.017-.055.016-.044.013-.043.013-.044.013-.037.011-.049.014-.03.009-.115.034-.012,0-.056.016-.026.008-.055.016-.026.008-.058.017-.015,0-.2.059-.013,0-.063.018-.016,0-.065.019-.006,0-.215.062-.008,0-.067.019-.013,0q-3,.864-6.024,1.656l-.253-.967C320.162,495.974,323.386,495.062,326.547,494.1ZM307.28,499.14l.214.977q-4.869,1.069-9.807,1.95l-.175-.985C300.767,500.5,304.054,499.848,307.28,499.14Zm-19.605,3.494.136.991-.013,0-.023,0-.072.01-.02,0-.085.012h-.006q-3.3.452-6.631.818h-.006l-.09.01h-.008l-.191.021-.017,0-.075.008-.023,0-.073.008-.021,0-.091.01-.021,0-.066.007-.039,0-.051.005-.041,0-.051.005-.074.008-.044,0-.053.006-.034,0-.056.006-.028,0-.059.006h0l-.147.015h-.011l-.067.007-.017,0-.068.007h0q-.778.081-1.557.157l-.1-1C281.073,503.476,284.4,503.084,287.675,502.634Zm-19.822,1.936.058,1c-1.3.076-2.6.141-3.912.2h-.009l-.089,0h-.011l-.1,0h0l-.1,0h-.007l-.084,0h-.023l-.078,0h-.016l-.094,0h-.014l-.076,0h-.031l-.062,0h-.034l-.1,0-.116,0-.095,0-.042,0-.1,0h-.023l-.054,0H262.6l-.083,0-.206.008H262.3l-.068,0h-.014q-2.145.077-4.3.118l-.019-1C261.208,504.89,264.557,504.761,267.853,504.57Zm-29.875-.01c3.3.194,6.645.325,9.954.39l-.02,1h-.178l-.183,0h-.043l-.1,0h-.042l-.069,0h-.237l-.071,0h-.019l-.091,0h-.027l-.068,0h-.028l-.073,0-.114,0-.092,0h-.03l-.069,0h-.023l-.189,0h-.021l-.073,0h-.024l-.093,0-.113,0-.076,0-.1,0h-.023l-.1,0-.084,0h-.025l-.073,0h-.023l-.089,0h0l-.09,0h-.031l-.062,0h-.035l-.064,0h-.028l-.086,0-.092,0h-.042l-.047,0h-.045l-.057,0-.069,0h-.044l-.051,0h-.037l-.051,0h-.038l-.1,0h-.034l-.084,0-.063,0h-.017l-.216-.008h-.009l-.072,0h-.008q-2.888-.1-5.76-.274Zm-19.82-1.949c3.272.453,6.6.846,9.894,1.17l-.1,1c-1.106-.109-2.206-.224-3.307-.347h-.007l-.093-.01h0l-.19-.021-.021,0-.074-.008-.02,0-.079-.009-.015,0-.09-.01-.028,0-.06-.007-.04,0-.051-.006-.039,0-.056-.006-.062-.007-.053-.006-.044-.005-.043-.005-.05-.006-.036,0-.053-.006h0l-.133-.016-.026,0-.058-.007-.026,0-.062-.007h-.013l-.213-.025-.015,0-.068-.008h-.011q-2.4-.286-4.79-.616Zm-19.6-3.507c3.226.71,6.512,1.366,9.767,1.948l-.176.984q-4.937-.883-9.806-1.956Zm-19.264-5.054c3.16.965,6.384,1.88,9.58,2.718l-.254.967q-.87-.228-1.738-.463h0l-.071-.019-.01,0-.218-.059h0l-.056-.015-.032-.009-.049-.013-.036-.01-.047-.013-.059-.016-.028-.008-.08-.022-.025-.007-.064-.018-.024-.007-.067-.018-.021-.006-.181-.05h0l-.091-.025h0q-3.376-.929-6.71-1.947Zm-18.8-6.571c3.075,1.214,6.216,2.382,9.335,3.473l-.33.944q-4.73-1.653-9.372-3.487Zm-18.218-8.045c2.969,1.454,6.007,2.869,9.029,4.2l-.4.915q-1.251-.552-2.5-1.118l-.006,0-.066-.03-.007,0-.192-.087-.022-.01-.045-.021-.036-.017-.043-.02-.038-.018-.038-.018-.062-.028-.027-.013-.07-.032-.02-.009-.063-.029-.021-.009-.069-.032-.012-.005c-1.928-.885-3.831-1.788-5.732-2.719ZM124.75,469.97c2.844,1.685,5.761,3.335,8.668,4.905l-.475.88q-.925-.5-1.846-1.007l-.01-.006-.053-.029-.028-.015-.042-.023-.044-.024-.03-.017-.158-.088-.008,0-.074-.041-.008,0q-3.23-1.788-6.4-3.667Zm-16.721-10.819c2.7,1.9,5.48,3.78,8.254,5.575l-.543.84q-1.015-.657-2.024-1.323l-.007,0-.055-.036-.019-.012-.052-.034-.012-.008-.168-.112-.023-.015-.043-.028-.029-.019-.042-.028-.033-.022-.038-.026-.038-.025-.056-.037-.044-.029-.035-.023-.039-.026-.035-.023-.039-.026-.033-.022-.041-.027-.033-.022-.069-.046-.016-.01-.058-.039-.023-.015-.053-.035-.023-.015-.052-.035-.023-.015-.069-.047,0,0-.076-.051-.012-.008-.06-.041-.022-.015-.052-.035-.024-.016-.06-.04-.011-.007-.152-.1-.012-.008-.061-.041-.019-.013-.059-.04-.016-.011-.071-.048,0,0-.078-.053h0l-.072-.048-.015-.01-.061-.041-.015-.01-.064-.043-.011-.008-.152-.1-.009-.006-.067-.045-.013-.009-.065-.044-.01-.007-.23-.156-.008-.005-.069-.047-.01-.007-.071-.048,0,0-.23-.157-.011-.008-.065-.045-.012-.008-.069-.047-.006,0-.153-.1-.01-.007-.065-.045-.012-.008-.065-.044-.012-.008-.226-.156-.013-.009-.061-.042-.017-.012-.066-.045-.007,0-.153-.105-.008-.006-.064-.044-.018-.012-.06-.041-.014-.01-.069-.048-.005,0-.076-.053-.006,0-.065-.045-.023-.016-.053-.037-.02-.014-.056-.039-.017-.012-.146-.1-.02-.014-.053-.037-.024-.016-.052-.036-.022-.015-.061-.043-.01-.007-.074-.051-.015-.01-.058-.041-.022-.016-.051-.035-.024-.017-.051-.036-.023-.016-.057-.04-.015-.011-.071-.05-.019-.013-.053-.037-.026-.018-.046-.032-.028-.019-.045-.032-.028-.019-.07-.049-.01-.007-.06-.042-.027-.019-.046-.032-.027-.019-.047-.033-.025-.018-.012-.008Zm-15.817-12.1c2.544,2.111,5.165,4.2,7.789,6.207l-.608.794q-1-.765-1.993-1.54l-.006,0-.064-.05-.013-.01-.057-.045-.016-.013-.066-.051,0,0-.071-.055-.019-.015-.05-.039-.027-.021-.041-.032-.031-.024-.039-.031-.031-.025-.032-.025-.075-.059-.023-.018-.039-.031-.028-.022-.043-.034-.022-.017-.045-.036-.017-.014-.227-.179-.009-.007-.057-.045,0,0q-2.359-1.864-4.672-3.784ZM77.394,433.739c2.37,2.3,4.819,4.591,7.278,6.8l-.668.744q-.609-.547-1.215-1.1l0,0-.216-.2-.016-.014-.04-.036-.025-.023-.037-.033-.03-.028-.031-.028-.045-.041-.019-.017-.065-.059-.012-.011-.055-.05-.013-.012-.058-.053-.008-.007q-2.745-2.516-5.417-5.112Zm-13.727-14.43c2.182,2.482,4.444,4.955,6.722,7.35l-.725.689q-.8-.844-1.6-1.7l-.012-.013-.04-.043-.02-.021-.035-.037-.027-.029-.032-.034-.029-.031-.055-.059-.028-.03-.029-.031-.033-.036-.024-.025-.039-.042-.02-.022-.05-.054-.009-.009L67.459,425l-.006-.006-.058-.063,0-.005q-2.273-2.453-4.474-4.957ZM51.116,403.845c1.98,2.646,4.04,5.289,6.124,7.855l-.776.63q-1.548-1.907-3.06-3.845l-.006-.008-.041-.052-.012-.015-.039-.051-.006-.008-.129-.166-.012-.016-.037-.047-.015-.02-.035-.045-.017-.021-.037-.047,0-.005-.076-.1-.018-.023-.029-.038-.025-.033-.027-.034-.028-.036-.024-.032-.036-.047-.016-.021-.054-.07-.006-.008-.048-.063-.013-.017-.041-.053-.015-.02-.045-.058-.008-.01-.169-.219-.007-.008-.052-.068,0,0q-.984-1.281-1.955-2.578Zm-11.3-16.4c1.765,2.793,3.611,5.59,5.486,8.313l-.824.567c-.283-.411-.563-.82-.844-1.233l-.012-.017-.038-.056-.016-.024-.032-.047-.02-.029-.03-.044-.021-.031-.027-.04-.051-.075-.013-.019-.034-.051-.012-.018-.037-.055-.005-.008q-2.208-3.264-4.316-6.6ZM29.854,370.2c1.539,2.924,3.158,5.858,4.813,8.721l-.866.5q-2.5-4.329-4.832-8.755Zm-8.569-17.977c1.3,3.037,2.684,6.09,4.106,9.074l-.9.43q-1.29-2.706-2.517-5.446l-.007-.015-.024-.053-.013-.029-.021-.048-.014-.032-.02-.045-.033-.074-.012-.026L21.8,355.9l-.014-.031-.024-.053-.012-.027-.027-.06-.01-.022-.075-.169v0l-.038-.086h0c-.419-.945-.829-1.885-1.237-2.836Zm-7.114-18.6c1.056,3.131,2.191,6.283,3.371,9.37l-.934.357q-.528-1.38-1.04-2.769l0-.01-.024-.065,0-.011-.1-.274-.007-.018-.021-.057-.009-.025-.02-.055-.005-.015-.046-.126,0-.01-.018-.049-.012-.034-.018-.048-.012-.032-.017-.048-.013-.036-.024-.065-.021-.057-.013-.036-.016-.045-.014-.04-.017-.047-.012-.034-.021-.058-.009-.025-.03-.083-.006-.016-.025-.069-.009-.024L14.993,339l-.007-.02-.026-.072-.005-.014-.063-.174,0-.012-.028-.077,0-.013-.028-.078,0-.01-.064-.179h0l-.032-.088,0,0q-.77-2.153-1.5-4.319ZM8.56,314.51c.8,3.206,1.684,6.44,2.616,9.612l-.96.282q-.24-.816-.474-1.634l-.005-.019-.015-.052-.01-.036L9.7,322.62l-.017-.058-.007-.024-.051-.179,0-.01-.024-.084,0-.006q-1.059-3.729-2.007-7.506ZM4.487,295.017c.547,3.261,1.167,6.554,1.843,9.788l-.979.2-.009-.042,0-.023-.038-.181,0-.016-.016-.079,0-.014c-.652-3.141-1.243-6.292-1.777-9.475ZM1.97,275.262c.288,3.295.646,6.626,1.063,9.9l-.992.126c-.146-1.146-.283-2.285-.414-3.435v0l-.011-.095v0l-.022-.192,0-.018-.008-.069,0-.032-.007-.062,0-.03-.009-.084,0-.043-.005-.045-.005-.049,0-.036-.006-.056,0-.02-.023-.21V280.8q-.3-2.715-.536-5.447Zm-.959-19.894c.031,3.308.126,6.657.285,9.953l-1,.048q-.168-3.494-.242-7.012v-.007q0-.149-.006-.3v-.1q0-.1,0-.194v-.175c0-.008,0-.039,0-.047v-.127c0-.013,0-.026,0-.039v-.154c0-.01,0-.02,0-.03v-.12c0-.017,0-.044,0-.061v-.313c0-.007,0-.014,0-.021,0-.034,0-.046,0-.08,0-.005,0-.01,0-.015,0-.068,0-.126,0-.194v-.012c0-.034,0-.05,0-.084,0-.006,0-.011,0-.017,0-.068,0-.128,0-.2v-.1s0,0,0-.006c0-.1,0-.2,0-.3h0c0-.094,0-.186,0-.28ZM.6,235.384l1,.069c-.227,3.294-.391,6.641-.489,9.948l-1-.03,0-.076v0l0-.074v-.009c0-.072,0-.144.007-.216v-.018l0-.061v-.028l0-.061v-.016l0-.111v-.038l0-.05v-.042l0-.047,0-.049v-.04l0-.085v-.033l0-.061v-.034l0-.068v-.023l0-.092v-.019l0-.075v-.027l0-.069v-.025c0-.068,0-.121.007-.189v-.018l0-.08v-.017l0-.094h0l0-.1h0l0-.092v-.017l0-.089v-.006l.008-.2v-.005l0-.095v-.006c0-.1.008-.2.012-.3v0c0-.1.008-.2.012-.3v0c.006-.135.011-.267.017-.4v0c0-.1.009-.2.013-.3v-.006c0-.1.009-.2.014-.3v0c.006-.135.012-.265.019-.4v-.006c.086-1.8.191-3.609.314-5.4Zm2.155-19.876.989.147c-.485,3.266-.912,6.589-1.268,9.876l-.994-.108q.169-1.558.357-3.11v0l.036-.3,0-.017.008-.063,0-.024.007-.06,0-.018.013-.109,0-.038.006-.047.005-.041.006-.048.005-.044.005-.043.01-.082,0-.035.007-.056,0-.037.007-.053,0-.04.008-.065,0-.021.011-.088,0-.029.008-.064,0-.03.008-.062,0-.03.011-.089,0-.013.01-.079,0-.024.009-.071,0-.022.011-.084v-.007l.012-.095v-.011l.01-.08,0-.023.01-.074,0-.019.024-.186,0-.014.01-.078,0-.022.01-.077,0-.015.012-.092,0-.014.01-.078,0-.026.009-.066,0-.027.011-.083v-.007l.012-.091,0-.025.009-.066,0-.03.008-.062,0-.031.012-.086,0-.023.009-.065.005-.04.007-.049.006-.042.007-.049.005-.04.011-.08.007-.05,0-.036.007-.054,0-.03.008-.057,0-.021.029-.207,0-.012.01-.07v-.008Q2.576,216.737,2.759,215.508Zm3.72-19.648.974.225c-.743,3.219-1.432,6.5-2.047,9.747l-.983-.186,0-.012.012-.063,0-.013.024-.124,0-.022.009-.05.007-.038.009-.047.008-.043.008-.043.01-.054.01-.054.012-.064.006-.03.011-.059.006-.033.013-.065,0-.021.036-.185,0-.01.016-.084,0-.011q.846-4.358,1.839-8.66Zm5.27-19.288.953.3c-1,3.151-1.945,6.366-2.816,9.555l-.965-.264c.4-1.468.816-2.936,1.243-4.393h0l.027-.091v0l.082-.278v0l.026-.088,0-.005.081-.274,0-.01.023-.077.005-.018.023-.076,0-.012.053-.177.005-.018.021-.07.006-.021.022-.075,0-.012.027-.09v0l.025-.084.006-.021.02-.067.007-.024.021-.069.006-.019.026-.086,0-.014.021-.07.009-.03.017-.056.01-.032.017-.056.009-.03.023-.075.008-.027.02-.065.011-.035.014-.047.012-.041.013-.044.012-.041.015-.048.021-.069.013-.044.013-.044.012-.039.014-.047.011-.036.014-.046.011-.037.029-.1.008-.025.017-.054.008-.027.017-.056.007-.023.085-.277,0-.011.021-.069v0Q11.479,177.425,11.749,176.572Zm6.787-18.806.926.377c-1.245,3.062-2.445,6.19-3.567,9.3l-.941-.34Q16.656,162.389,18.536,157.765ZM26.8,139.556l.893.449c-1.484,2.954-2.929,5.977-4.294,8.986l-.911-.413c.285-.627.573-1.256.862-1.88h0l.162-.348h0l.038-.082,0-.008.119-.256,0-.005.036-.077.006-.012.036-.077,0-.006.08-.171v0l.038-.08.006-.013.033-.071.007-.014.036-.076,0-.008.079-.168.006-.012.034-.072.007-.014.034-.072.005-.011.079-.167.007-.014.031-.066.011-.022.028-.059.012-.025.036-.076v0l.039-.082.009-.019.029-.062.012-.025.026-.055.013-.028.029-.062.009-.018.039-.082,0-.006.035-.073.012-.025.026-.055.015-.03.025-.052.013-.026.032-.067.006-.013.037-.078.014-.029.023-.048.017-.035.022-.046.016-.034.024-.05.014-.029.036-.074.018-.037.019-.04.021-.043.018-.036.019-.04.02-.042.018-.038.027-.056.024-.049.022-.046.019-.039.02-.042.018-.038.02-.04.019-.039.02-.041.031-.064.022-.045.021-.043.017-.034.021-.043.017-.035.021-.043.018-.038.019-.039.018-.036.041-.084.014-.028.024-.048.013-.027.024-.049.014-.028.025-.051,0-.008.06-.123.006-.012.024-.048.015-.03.024-.048.013-.027.025-.051.01-.019.09-.183.008-.016.027-.055.01-.021.028-.057.005-.011.132-.267,0-.008.031-.062.005-.011.135-.272h0Q26.518,140.114,26.8,139.556Zm9.678-17.5.855.518c-1.714,2.828-3.394,5.727-4.993,8.619l-.875-.484q.681-1.232,1.376-2.455h0l.037-.064,0-.007.036-.064h0l.151-.266.005-.01.035-.061,0-.007.149-.261.005-.009.033-.058.008-.014.034-.059,0-.006.151-.262,0-.008.036-.062,0-.007.149-.259.006-.01.034-.058.008-.014.033-.057.007-.012.111-.192v0l.033-.057.011-.018.031-.054.009-.016.146-.251.007-.013.033-.056.009-.016.033-.057.005-.009.112-.192,0-.005.033-.056.01-.017.031-.052.012-.021.031-.053,0-.006.105-.18.015-.025.028-.048.014-.024.03-.051.01-.017.1-.173.012-.02.029-.049.015-.026.027-.046.016-.028.027-.045.017-.029.051-.086.015-.026.026-.044L35,124.53l.026-.044.017-.03.027-.046.017-.028.026-.043.041-.07.016-.026.03-.051.017-.029.027-.045.019-.032.029-.048.016-.026.043-.073h0l.046-.077.012-.019.034-.057.014-.024.035-.059.009-.015.045-.076h0l.1-.16.006-.01.043-.072,0-.006C35.955,122.923,36.213,122.495,36.476,122.06Zm11.03-16.677.812.584c-1.931,2.683-3.834,5.441-5.657,8.2l-.834-.552q.408-.616.819-1.23l.009-.014.035-.052.015-.023.1-.143.03-.044.016-.023.037-.055.012-.018.045-.067,0-.005q1.913-2.843,3.895-5.623l.011-.016.038-.053.018-.025.035-.049.016-.023.031-.043.054-.076.011-.016.039-.055.007-.01.042-.058,0,0ZM59.815,89.625l.763.646c-2.136,2.523-4.25,5.123-6.285,7.727l-.788-.616.017-.022.044-.056.038-.048.021-.027.035-.044.019-.024.038-.049.016-.021.049-.063,0,0,.175-.223h0q1.5-1.9,3.027-3.777l0,0,.056-.068.005-.006.174-.213.014-.017.04-.048.021-.026.035-.042.022-.027.036-.044.02-.024.051-.062L57.5,92.4l.019-.023.037-.045.015-.018.039-.048.011-.013Q58.709,90.932,59.815,89.625ZM73.324,74.883l.71.7c-2.327,2.347-4.639,4.773-6.872,7.21l-.737-.676q1.4-1.524,2.818-3.025l.007-.008.046-.048.012-.013.045-.047.011-.011.132-.139.027-.029.03-.032.03-.032.029-.03.035-.037.024-.025.052-.054.008-.008.061-.064.015-.016.046-.048.019-.02.045-.047.015-.016.055-.058.006-.006.127-.133.009-.009.056-.058.008-.009.059-.062,0,0,.2-.2h0l.064-.066,0,0,.261-.271,0,0,.062-.065,0,0,.2-.2h0l.062-.064.007-.007.057-.059.009-.009.128-.132,0,0,.058-.059.016-.016.044-.045.022-.023.042-.043.02-.02.055-.056.007-.007.059-.06.03-.031.028-.029.037-.038.019-.02.041-.042.013-.013Q72.558,75.656,73.324,74.883ZM87.948,61.247,88.6,62c-2.5,2.157-5,4.394-7.417,6.648l-.682-.731q2.159-2.013,4.36-3.972l0,0,.069-.061h0l.14-.124.007-.006.058-.051.021-.018.045-.04.023-.02.043-.038.026-.023.047-.042.051-.045.026-.023.04-.035.025-.022.041-.036.019-.017.046-.04.011-.009Q86.768,62.264,87.948,61.247ZM103.6,48.8l.591.807c-2.665,1.953-5.329,3.987-7.916,6.045l-.622-.783q2.248-1.788,4.533-3.522h0l.3-.229h0l.071-.054.006,0,.224-.169h0l.069-.052.012-.009.061-.046.012-.009.068-.051,0,0,.147-.111.011-.008.062-.046.013-.01.062-.047.01-.008.148-.111.006,0,.065-.049.014-.01.058-.044.017-.013.064-.048.007,0,.149-.111.007-.005.064-.047.015-.011.063-.047.007-.006.222-.165.01-.008.066-.049.006,0c.426-.316.856-.633,1.284-.947ZM120.18,37.627l.526.851c-2.811,1.737-5.626,3.555-8.368,5.4l-.559-.829q3.473-2.34,7.029-4.57l0,0,.072-.045.012-.008.071-.044.005,0,.156-.1.019-.012.051-.032.033-.021.041-.025.035-.022.041-.025.034-.021.041-.025.076-.047.022-.013.052-.032.018-.011.053-.033.015-.009ZM137.59,27.8l.457.89c-2.939,1.509-5.889,3.1-8.768,4.724l-.492-.871.771-.434,0,0,.075-.042.011-.006.065-.036.019-.01.077-.043.016-.009.058-.032.04-.022.033-.018.047-.026.023-.013.056-.031h0Q133.8,29.744,137.59,27.8Zm18.135-8.421.385.923c-3.05,1.271-6.116,2.622-9.114,4.014l-.421-.907.014-.007.042-.02.039-.018.038-.018.045-.021.055-.025.056-.026.028-.013.052-.024.03-.014.055-.025.026-.012.069-.032.011,0,.084-.039.008,0,.074-.034.019-.009.067-.031.015-.007.074-.034.01,0,.171-.078,0,0,.081-.037.007,0,.081-.037,0,0,.261-.119h0l.085-.039,0,0,.347-.158h0l.345-.156.009,0,.082-.037h0l.256-.116.014-.006.075-.034.009,0,.253-.114.017-.008.068-.03.016-.007.075-.034.008,0,.167-.075.018-.008.067-.03.018-.008.065-.029.02-.009.079-.035h0l.081-.036.027-.012.055-.024.029-.013.052-.023.032-.014.058-.026.022-.01.077-.034.036-.016.045-.02.037-.016.043-.019.038-.017.043-.019.038-.017.039-.017.078-.034.036-.016.042-.018.037-.017.044-.02.034-.015.046-.02.023-.01.118-.052.006,0,.058-.025.019-.008.058-.025.017-.008.061-.027,0,0,.208-.091,0,0,.065-.028.011,0,.063-.028.01,0,.272-.118.013-.006.064-.028.007,0,.28-.121,0,0,.067-.029.008,0,.279-.121,0,0,.067-.029.007,0,.068-.029h0l.207-.089.009,0,.057-.025.022-.009.057-.024.019-.008.058-.025.009,0,.124-.053.013-.005.055-.024.022-.009.053-.023.029-.012.048-.02.036-.015L154,20.1l.069-.029.037-.016.044-.019.039-.017.044-.019.035-.015.052-.022.029-.012.08-.034.013-.006.07-.03.021-.009.067-.028.016-.007.076-.032.007,0,1.026-.43Zm18.748-6.953.31.951c-3.142,1.025-6.307,2.128-9.406,3.277l-.348-.938q2.572-.954,5.174-1.855h0l.088-.03h0l.182-.063h0l.08-.028.02-.007.068-.023.02-.007.07-.024.017-.006.085-.029.018-.006.065-.022.033-.011.048-.016.041-.014.038-.013.048-.016.012,0,.118-.04.022-.007.056-.019.025-.008.059-.02.012,0Q172.952,12.92,174.474,12.423Zm19.239-5.438.233.972c-3.214.772-6.456,1.619-9.636,2.518l-.272-.962q3.672-1.038,7.389-1.968l.008,0,.072-.018h0l.215-.054.016,0,.058-.015.026-.007.055-.014.03-.007.178-.044.039-.01.043-.011.046-.011.041-.01.053-.013.031-.008.084-.021.023-.006.068-.017.024-.006.067-.016.022-.005.085-.021h0l.187-.046h.006l.8-.195Zm19.612-3.892.156.988c-3.266.514-6.564,1.1-9.8,1.744l-.195-.981q4.884-.969,9.842-1.751ZM233.186.764l.077,1c-3.3.256-6.634.58-9.914.964l-.116-.993q4.948-.58,9.953-.968ZM253,0V1c-3.255,0-6.551.063-9.8.187l-.038-1c.524-.02,1.05-.039,1.575-.055h0l.2-.006.092,0h.027l.072,0h.021l.086,0,.09,0h.086L245.6.106h.021l.067,0h.009q2.3-.065,4.6-.089h.085l.213,0h.1l.2,0H253Z" transform="translate(304.302 1918.603)" fill="#707070"/><path d="M402,0h3.733c.056,0,.108,0,.163,0h0c2.042.019,4.066.054,6.1.1l-.024,1C408.669,1.041,405.313,1,402,1V0Zm19.993.489q5.007.245,9.981.612l-.074,1c-3.3-.243-6.648-.449-9.957-.611Zm19.944,1.47q4.2.415,8.384.915h.01l.132.016.029,0,.108.013.055.007.086.01.078.009.059.007.108.013.034,0,.13.016.013,0,.713.088-.123.992c-3.283-.406-6.619-.777-9.914-1.1Zm19.848,2.456.02,0,.064.01.088.013.072.011.085.013.068.01.086.013.069.01.088.013.074.011.076.011.086.013.071.011.085.013.069.01.084.013.073.011.087.013.063.01.1.015.058.009.1.015.059.009.093.014.064.01.1.015.056.009.1.015.061.009.1.015.056.009.1.015.06.009.1.015.054.008.1.016.051.008.1.016.051.008.1.016.05.008.11.017.041.006.115.018.04.006.115.018.039.006.116.018.038.006.124.02.025,0,.131.021.025,0,.129.021.026,0,.127.02.029,0,.126.02.028,0,.127.021.027,0,.128.021.026,0,.129.021.025,0,.132.021.02,0,.138.022.014,0,.143.023h.009l.146.024h.008l.3.05h0q2,.329,4,.678L471.484,7c-3.259-.569-6.572-1.106-9.847-1.594Zm19.7,3.442q4.913.985,9.78,2.089l-.221.975c-3.227-.732-6.509-1.433-9.755-2.084l.2-.981Zm19.5,4.422q3.186.807,6.351,1.664h0l.142.039.017,0,.122.033.042.011.1.028.05.014.094.026.066.018.075.021.085.023.055.015.109.03.03.008.125.034.019.005c.723.2,1.453.4,2.174.6l-.27.963c-3.187-.893-6.43-1.757-9.638-2.57Zm19.258,5.393.851.262h0l.138.043.013,0,.133.041.014,0,.127.039.024.008.125.039.022.007.124.039.025.008.125.039.022.007.12.038.032.01.118.037.027.008.118.037.033.01.114.036.032.01.114.036.035.011.113.036.033.01.113.036.036.011.113.036.033.011.113.036.036.011.114.036.032.01.116.037.032.01.119.038.026.008.118.038.034.011.114.036.031.01.119.038.026.008.124.04.019.006.129.041.018.006.134.043.006,0,.141.045,0,0,.143.046h0l.145.047h0q2.351.755,4.692,1.539l-.318.948c-3.138-1.051-6.334-2.077-9.5-3.049Zm18.963,6.352q.734.267,1.467.536l.013,0,.131.048.033.012.107.039.063.023.079.029.08.029.062.023.091.034.052.019.106.039.034.012.117.043.026.01.122.045.02.008.122.045.023.009.127.047.014.005.135.05.007,0,.138.051.006,0,.135.05.011,0,.138.052h0l.142.053h0l.141.053h0l.141.053h0l.284.107h0l.138.052.009,0,.133.05.013.005.132.05.01,0,.133.05.013.005.129.049.017.007.123.046.028.01.117.044.026.01.115.044.035.013.107.041.041.016.1.038.054.02.09.034.054.021.09.034.063.024.077.029.079.03.062.024.093.036.05.019.1.039.042.016.118.045.023.009.138.053,0,0q1.312.5,2.619,1.015l-.365.931c-3.082-1.207-6.222-2.392-9.333-3.522Zm18.621,7.294q3.458,1.456,6.883,2.974l.007,0,.132.059.014.006.125.055.022.01.117.052.028.012.106.047.043.019.091.041.055.024.079.035.068.03.066.03.078.035.054.024.094.042.036.016.106.048.027.012.119.053.007,0,.809.363-.411.912c-3.018-1.36-6.094-2.7-9.144-3.984Zm18.232,8.217,1.122.542.008,0,.129.063.014.007.117.057.029.014.105.051.036.018.093.045.053.026.079.038.061.03.072.035.071.035.058.028.082.04.049.024.093.045.038.019.1.048.037.018.1.051.01,0c.5.246.979.481,1.479.728l.018.009.111.055.027.013.1.049.042.021.093.046.045.022.083.041.06.03.071.035.068.034.067.033.073.036.063.031L581.1,42l.058.029.086.043.047.024.09.045.048.024.094.047.041.021.1.05.036.018.109.055.024.012.116.058.023.011.121.061.014.007.129.065.007,0q1.394.7,2.782,1.411l-.456.89c-2.946-1.509-5.952-3-8.934-4.436Zm17.8,9.117.008,0,.1.054.036.02.1.055.034.019.108.059.028.015.1.055.036.02.407.223.044.024.089.049.073.04.062.034.067.037.068.038.072.04.061.033.078.043.057.031.074.041.063.035.067.037.068.038.072.04.06.033.081.045.051.028.087.048.047.026.083.046.053.029.084.046.049.027.087.048.045.025.092.051.042.024.089.049.047.026.091.05.041.023.095.053.036.02.1.057.029.016.1.057.032.018.1.058.026.015.108.06.023.013.113.063.017.01.114.064.021.012.117.066,0,0c1.535.859,3.054,1.722,4.576,2.6l-.5.866c-2.867-1.654-5.795-3.295-8.7-4.876Zm17.322,9.993c.787.48,1.58.969,2.363,1.454l0,0,.119.074.011.007.111.069.021.013.1.063.031.019.088.054.048.03.078.049.055.034.07.044.063.039.063.039.073.046.049.031.088.055.04.025.094.059.034.021.1.062.03.019.109.068.017.011.119.075.01.006q2.249,1.409,4.478,2.847l-.542.84c-2.782-1.795-5.624-3.579-8.448-5.3l.521-.854Zm16.8,10.842q3.078,2.1,6.108,4.242h0l.112.08.019.014.1.071.027.019.092.065.039.028.081.058.048.034.071.05.065.046.056.04.074.053.048.034.084.06.039.028.094.067.028.02.114.081.007.005.887.635-.583.812c-2.689-1.93-5.439-3.854-8.174-5.716Zm16.245,11.663q1.791,1.355,3.571,2.732l.007.005.111.086.009.007.1.078.022.017.1.076.022.017.092.072.031.024.09.07.03.023.088.068.034.027.086.067.033.026.084.065.039.031.08.062.041.032.077.06.046.036.075.058.044.034.076.06.047.037.072.056.049.039.069.054.056.044.064.05.057.044.063.05.063.049.056.044.068.053.053.041.074.058.045.035.091.071.028.022.112.088.008.006q.921.724,1.837,1.453l-.623.782c-2.59-2.061-5.242-4.119-7.881-6.115ZM659.881,93.6c.511.428,1.016.852,1.524,1.282l.01.008.1.089.01.009.1.083.021.017.094.08.022.019.087.074.033.028.081.069.036.03.079.067.039.033.075.064.042.036.072.061.047.04.071.06.042.036.075.064.041.035.077.066.035.03.081.069.038.033.078.066.036.031.082.07.032.027.086.073.025.021.091.078.022.019.095.081.012.01c1.107.948,2.2,1.892,3.294,2.852l.011.01.1.088.029.025.082.072.056.049.058.051.463.407-.661.751c-2.485-2.187-5.031-4.373-7.569-6.5Zm15.013,13.212c1.125,1.041,2.256,2.1,3.369,3.152l0,0,.1.1.014.013.088.083.032.031.074.07.044.042.06.057.063.06.043.041.084.08.021.02.1.1,0,0q1.585,1.507,3.153,3.031l-.7.717c-2.374-2.307-4.809-4.616-7.239-6.863Zm14.341,13.938.72.737.013.013.084.086.026.027.075.077.036.037.064.066.046.047.058.059.054.055.048.049.062.063.045.047.064.066.041.042.068.07.04.041.069.072.036.037.072.075.035.036.078.08.026.027.085.088.022.023.1.1.005.005.1.1.011.011.862.9.018.019.089.093.025.026.08.083.036.038.07.073.041.043.063.066.048.051.058.061.049.051.057.06.048.051.058.061.053.055.049.051.06.063.045.047.062.065.042.044.064.067.041.043.068.072.032.034.074.078.031.032.075.079.029.031.075.079.029.031.079.083.018.019.088.093.012.013.094.1,0,0,.1.107h0c.345.365.685.726,1.029,1.093l0,0,.084.09.023.024.066.07.042.045.056.06.05.053.05.054.057.061.045.048.063.068.035.038.073.078.029.031.08.086.02.021.091.1,0,.005-.732.682c-2.257-2.421-4.575-4.848-6.891-7.213Zm13.635,14.63,0,0q3.316,3.739,6.54,7.561l-.764.645c-2.134-2.53-4.33-5.068-6.526-7.544Zm12.895,15.286q3.127,3.9,6.16,7.878l-.8.606c-2.006-2.632-4.073-5.276-6.144-7.858Zm12.122,15.906,0,0,.072.1.018.025q2.469,3.414,4.867,6.881l0,.007.074.107.018.026.061.088.03.043.046.067.044.064.029.042.5.72-.824.566c-1.873-2.728-3.807-5.471-5.747-8.153Zm11.319,16.487c.708,1.089,1.416,2.189,2.114,3.285l.083.13.012.018.156.246.006.009.161.254.007.011.077.121.006.009.077.121.008.013.077.122h0l.082.13,0,.005.08.126,0,.008.077.121.01.016.075.118.006.01.076.121.007.011.076.12.008.012.073.116.012.019.072.115.009.014.073.116.011.018.071.113.012.02.069.109.015.024.068.109.014.023.065.1.019.031.063.1.019.03.061.1.021.034.061.1.021.034.056.089.028.045.051.082.031.05.045.073.038.06.037.059.046.074.022.036.06.1.005.008c.273.44.539.869.81,1.31l-.852.524c-1.735-2.818-3.53-5.653-5.335-8.428Zm10.486,17.028q1.256,2.157,2.485,4.332l.013.023.064.113.015.026.06.105.023.041.053.093.026.045.049.087.029.052.047.083.031.055.044.078.034.061.04.072.039.07.034.06.042.075.034.06.042.076.031.056.045.081.03.053.047.084.027.049.047.084.028.05.049.088.022.04.054.1.02.036.056.1.017.03.059.105.015.027.06.109.011.02.064.115.01.018.065.117.008.014.067.12.006.011q.442.8.882,1.6l-.877.481c-1.593-2.9-3.244-5.822-4.909-8.683Zm9.625,17.529q.537,1.039,1.068,2.081l.006.013.061.12.019.037.05.1.022.044.047.092.027.053.041.081.031.062.036.072.037.073.032.063.038.076.03.06.042.083.026.052.044.087.024.048.045.089.026.052.041.081.029.058.042.083.025.05.044.087.026.051.044.088.025.051.041.082.03.06.039.078.03.06.037.075.034.068.034.068.041.082.026.051.048.1.02.04.056.112.011.022.066.132,0,0q.977,1.957,1.934,3.926l-.9.437c-1.446-2.976-2.95-5.976-4.47-8.917Zm8.739,17.987c1.328,2.917,2.616,5.838,3.876,8.792h0l.057.134.007.016.049.114.018.042.023.054-.92.391c-1.3-3.045-2.648-6.116-4.019-9.129l.91-.414Zm7.829,18.4.007.016.008.021c1.218,3.076,2.408,6.192,3.552,9.3l-.939.345c-1.141-3.106-2.338-6.242-3.557-9.319Zm6.9,18.771.2.586.036.106.013.037c.98,2.908,1.932,5.843,2.847,8.78l-.955.3c-.984-3.16-2.023-6.351-3.086-9.485Zm5.948,19.093c.092.323.183.645.274.968l0,.007.039.139,0,.013.037.133.006.022.035.125.008.027.034.12.009.033.032.115.01.036.031.112.012.043.029.1.014.05.027.1.016.056.026.092.016.059.025.089.018.067.022.08.02.073.021.075.022.079.019.069.023.083.018.065.025.09.016.058.027.1.014.05.029.106.012.042.03.109.011.04.032.118.008.029.034.124.007.024.037.134,0,.013.038.14,0,.009.04.147h0q.717,2.638,1.4,5.29l-.968.249c-.825-3.206-1.7-6.445-2.607-9.628Zm4.984,19.367q.122.529.243,1.059l.01.042.024.1.02.088.013.059.029.13,0,.016c.457,2.016.9,4.055,1.329,6.083l.005.024.022.106.011.053.016.079.017.079.012.055.022.1.005.025q.174.832.344,1.666l-.98.2c-.663-3.243-1.377-6.522-2.121-9.747Zm4.008,19.593v0l.008.043q.383,2.146.743,4.3v.008l.024.144,0,.018.022.134,0,.028.021.124.006.039.018.111.009.053.017.1.01.058.015.093.012.071.013.082.013.078.012.074.015.089.01.064.015.091.01.063.015.093.01.062.015.094.01.06.016.1.009.057.016.1.009.056.016.1.009.054.016.1.009.056.016.1.009.055.015.1.01.06.015.1.01.06.014.09.011.069.014.085.012.073.012.075.013.085.01.066.015.1.008.051.017.109.007.041.019.122,0,.023.022.142v0c.077.493.153.979.228,1.473l-.988.151c-.5-3.273-1.05-6.584-1.632-9.841Zm3.025,19.769.065.508,0,.022.016.126.007.053.012.093.01.08.009.07.013.1.006.046.015.121,0,.029q.49,3.938.9,7.9v.011l.014.13,0,.031.012.117,0,.042.011.107.005.052.01.1.006.063.009.085.005.052-.995.1c-.337-3.294-.721-6.628-1.14-9.91l.992-.127Zm2.039,19.894q.12,1.549.228,3.1v.012l.009.134,0,.024.008.122,0,.037.008.115,0,.043.008.111,0,.046.008.117,0,.038.008.121,0,.034.009.126,0,.029.009.128,0,.029.009.135v.018l.009.141v.014l.01.146v.007l.01.152v0q.163,2.494.295,5l-1,.053c-.174-3.307-.393-6.656-.648-9.954Zm1.054,19.97c.041,1.467.075,2.923.1,4.394v.011l0,.147c0,.009,0,.018,0,.027,0,.04,0,.089,0,.13v.043l0,.114c0,.018,0,.035,0,.053l0,.1c0,.023,0,.046,0,.069v.088q0,.037,0,.074c0,.027,0,.055,0,.082v.083c0,.027,0,.045,0,.072s0,.061,0,.092,0,.034,0,.061v.106c0,.027,0,.02,0,.047s0,.075,0,.113v.043l0,.119v.033l0,.127c0,.014,0,.011,0,.025q0,.07,0,.139c0,.014,0-.006,0,.008l0,.15v.005q.021,1.718.027,3.44l-1,0c-.012-3.313-.066-6.668-.159-9.974Zm-.925,19.985,1,.021q-.1,4.777-.308,9.526v0l-.007.148v.022l-.006.131,0,.044,0,.107v.012l-1-.045C802.734,417.115,802.844,413.761,802.913,410.449Zm-.9,19.929,1,.07q-.349,5-.82,9.966l-1-.094C801.505,437.026,801.781,433.681,802.011,430.378Zm-1.883,19.859.993.119-.058.482,0,.022-.016.13-.01.082-.008.068-.016.129,0,.023q-.4,3.26-.849,6.5l0,.011-.02.142,0,.02-.018.132,0,.031-.017.121-.006.044-.015.106-.009.063-.013.09-.011.077-.01.074-.013.1-.008.057-.018.125,0,.024-.021.147v.006c-.052.365-.106.743-.159,1.108l-.99-.144C799.294,456.851,799.734,453.524,800.129,450.237Zm-2.867,19.741.986.168q-.844,4.943-1.806,9.835l-.981-.193C796.1,476.541,796.7,473.241,797.262,469.977Zm-3.848,19.573.976.217c-.122.546-.246,1.1-.37,1.646v.006l-.031.136,0,.019-.029.129-.005.024-.028.121-.008.033-.026.113-.009.041-.024.1-.012.051-.022.1-.013.056-.019.085-.016.072-.015.066-.021.09-.011.046-.025.109-.008.035-.027.119-.006.026-.03.129,0,.013-.033.14,0,.007-.034.146v0q-.708,3.044-1.462,6.07l-.97-.242C791.925,496.047,792.7,492.781,793.414,489.55Zm-4.822,19.356.964.266q-1.332,4.828-2.781,9.606l-.957-.29C786.779,515.321,787.712,512.1,788.592,508.907ZM782.806,528l.949.314-.087.262-.008.023-.043.128-.006.017-.04.119-.01.029-.04.119-.009.027-.036.108-.014.041-.035.105-.014.041-.035.106-.014.041-.036.107-.013.04-.033.1-.017.052-.032.1-.017.05-.032.094-.018.054-.032.1-.017.051-.031.091-.019.058-.029.086-.021.063-.028.082-.022.064-.028.082-.023.068-.023.069-.027.08-.023.069-.026.078-.023.067-.028.081-.022.066-.028.083-.02.059-.03.089-.02.06-.029.085-.021.062-.029.084-.022.064-.03.087-.019.055-.032.094-.019.055-.032.092-.018.052-.032.095-.018.054-.033.095-.017.049-.035.1-.016.046-.035.1-.016.046-.035.1-.016.047-.036.1-.013.037-.039.114-.011.032-.04.116-.01.03-.04.116-.011.032-.042.12-.008.023-.044.127-.007.02-.045.13-.005.016-.046.133,0,.013q-.616,1.768-1.247,3.529l-.941-.338C780.673,534.313,781.766,531.14,782.806,528Zm-6.736,18.777.932.361q-.48,1.239-.968,2.474l0,0-.053.133-.008.022-.047.119-.012.03-.042.107-.019.047-.037.092-.022.056-.033.082-.027.068-.028.071-.03.076-.025.062-.036.09-.017.044-.04.1-.015.039-.043.108-.011.029-.047.117-.008.02-.051.128v0c-.693,1.731-1.39,3.439-2.106,5.158l-.923-.384C773.623,552.975,774.874,549.861,776.069,546.775ZM768.4,565.191l.913.407v0l-.059.132,0,.011-.051.113-.015.034-.042.093-.023.051-.032.071-.033.075-.021.047-.042.094-.013.028c-.286.639-.578,1.283-.867,1.92l0,0-.06.131,0,.01-.055.121-.01.022-.052.115-.011.025-.051.111-.014.03-.049.108-.014.032-.047.1-.019.042-.044.1-.02.045-.042.092-.023.051-.039.084-.027.059-.036.077-.031.067-.033.071-.033.071-.032.069-.033.072-.032.069-.033.072-.031.066-.036.078-.028.061-.037.081-.027.058-.04.086-.024.053-.042.091-.022.047-.046.1-.019.041-.046.1-.019.041-.047.1-.019.04-.047.1-.017.037-.049.106-.016.035-.05.107-.015.032-.052.112-.013.029-.053.114-.012.026-.053.113-.013.029-.048.1-.018.039-.039.084-.028.059-.024.051-.043.091,0,0c-.351.748-.707,1.5-1.062,2.247l-.9-.43C765.648,571.261,767.053,568.213,768.4,565.191ZM759.822,583.2l.892.452q-2.264,4.463-4.636,8.86l-.88-.475C756.769,589.125,758.325,586.151,759.822,583.2Zm-9.467,17.559.868.5q-.776,1.357-1.562,2.708h0l-.078.134v0l-.077.132,0,.007-.073.125-.009.015-.069.119-.011.019-.067.115-.011.018-.068.116-.012.02-.067.115-.01.017-.069.118-.009.015-.073.124,0,.006-.075.128,0,.007-.075.128,0,.006-.074.126-.006.01q-1.187,2.017-2.4,4.018l0,0-.077.127-.006.01-.072.119-.006.009-.855-.518C747.01,606.524,748.713,603.631,750.355,600.759Zm-10.33,17.065.842.539c-1.8,2.816-3.624,5.588-5.494,8.356l-.829-.56C736.4,623.416,738.242,620.611,740.025,617.824ZM728.86,634.355l.815.58c-.358.5-.7.983-1.062,1.484l-.014.019-.065.091-.028.038-.051.071-.042.058-.043.059-.049.068-.036.05-.056.078L728.2,637l-.062.087-.021.029-.074.1-.012.017-.083.114,0,.006q-2.059,2.847-4.167,5.656h0l-.8-.6C724.96,639.76,726.941,637.051,728.86,634.355Zm-11.971,15.957.785.62-.039.049-.04.051-.064.081-.028.036-.077.1-.012.015q-1.826,2.307-3.68,4.582l0,0-.092.113-.006.007-.089.108-.012.014-.083.1-.018.021-.077.094-.033.04-.062.076-.052.063-.043.053-.09.11-.006.007q-.842,1.027-1.69,2.048l-.769-.639C712.726,655.518,714.838,652.91,716.889,650.312Zm-12.747,15.345.753.658-.009.01-.049.056-.049.056-.065.075-.036.042-.407.465-.018.02-.086.1-.014.016-.086.1-.024.027-.081.092-.017.019-.084.1-.022.025-.081.092-.022.025-.077.088-.029.033-.076.086-.024.027-.076.086-.03.034-.073.083-.029.033-.07.079-.035.039-.07.079-.03.034-.072.081-.03.034-.074.084-.028.031-.074.084-.029.033-.075.084-.028.031-.072.081-.032.036-.07.078-.034.038-.065.073-.038.043-.067.075-.035.04-.064.071-.04.045-.064.072-.038.043-.06.067-.044.049-.055.062-.048.054-.041.046-.664.741,0,0-.1.111h0l-.1.112h0c-.916,1.018-1.832,2.026-2.758,3.035l-.737-.676C699.727,670.651,701.966,668.15,704.143,665.658Zm-13.49,14.7.72.694q-2.224,2.305-4.484,4.576h0l-.106.107-.033.033-.075.075-.046.046-.059.06-.057.057-.051.051-.063.063-.042.042-.069.069-.039.039-.079.079-.023.023-.088.088-.019.019-.092.092-.012.012-.1.1-.005.005c-.5.5-.986.98-1.486,1.474l-.7-.712C686,685.123,688.355,682.736,690.653,680.354Zm-14.2,14.011.685.729-.031.029-.067.063-.057.054-.05.047-.073.069-.034.031-.083.078-.024.023-.1.091-.007.007q-3.384,3.167-6.85,6.264l-.666-.746C671.565,698.9,674.04,696.631,676.453,694.365Zm-14.875,13.292.648.762q-2.93,2.491-5.914,4.931l0,0-.111.091-.017.013-.1.078-.045.037-.069.057-.086.07-.026.021q-.664.542-1.332,1.081l-.629-.778C656.472,711.944,659.056,709.8,661.578,707.658ZM646.064,720.2l.609.793q-3.965,3.046-8.005,5.993l-.589-.808C640.752,724.226,643.439,722.215,646.064,720.2Zm-16.116,11.757.569.822-.855.59-.031.022-.069.048-.062.043-.046.032-.087.06-.023.016-.11.075-.007,0q-1.928,1.323-3.872,2.625l-.009.006-.12.08-.011.008-.115.077-.022.015-.107.071-.023.016-.1.07-.025.017-.106.071-.022.015-.1.07-.027.018-.1.069-.026.017-.1.068L624.3,737l-.109.073-.015.01-.114.076-.015.01-.121.08,0,0q-.846.561-1.695,1.118l-.549-.836C624.443,735.714,627.226,733.839,629.948,731.955ZM613.268,742.9l.528.849q-4.1,2.547-8.261,4.994l-.027.016-.035.021-.1.059-.009.006-.126.074-.506-.862C607.583,746.379,610.456,744.644,613.268,742.9Zm-17.2,10.1.485.875-.2.113-.067.037-.044.024-.09.05-.055.031-.079.044-.055.031-.081.045-.048.027-.086.048-.056.031-.078.043-.065.036-.068.037-.073.04-.063.034-.069.038-.066.036-.072.04-.063.034-.074.04-.059.032-.079.043-.055.03-.078.043-.055.03-.086.047-.046.025-.093.051-.038.021-.1.055-.031.017-.1.056-.032.017-.106.058-.025.014-.11.06-.022.012-.112.061-.023.013-.11.06-.024.013-.116.063-.01.006-.126.068,0,0c-1.158.628-2.3,1.241-3.467,1.858l-.024.012-.1.054-.036.019-.091.048-.052.027-.076.04-.066.035-.06.032-.088.046-.041.022-.1.053-.03.016-.119.063-.01.005-1.242.651-.463-.887C590.214,756.192,593.169,754.6,596.065,753Zm-17.684,9.23.44.9-.344.168h0l-.133.065-.008,0-.125.061-.02.01-.113.055-.031.015-.1.05-.045.022-.091.044-.05.024-.085.041-.066.032-.068.033-.085.041-.049.024-.107.052-.028.014-.118.057-.02.01q-3.651,1.77-7.343,3.468l-.418-.909C572.378,765.125,575.409,763.685,578.38,762.227Zm-18.123,8.335.4.919q-1.219.524-2.442,1.04h0l-.112.047-.037.016-.082.035-.063.026-.04.017q-3.085,1.3-6.191,2.546l-.028.011-.11.044-.069.028-.061.024-.372-.928C554.118,773.156,557.217,771.87,560.258,770.562Zm-18.517,7.418.349.937c-1.1.41-2.2.813-3.308,1.214l-.007,0-.137.05-.008,0-.131.047-.02.007-.119.043-.031.011-.111.04-.037.013-.107.038-.04.014-.1.036-.05.018-.094.034-.051.018-.093.033-.054.019-.092.033-.053.019-.091.033-.059.021-.085.03-.061.022-.084.03-.065.023-.079.028-.068.024-.078.028-.07.025-.075.027-.071.025-.075.027-.073.026-.073.026-.072.025-.075.027-.073.026-.072.026-.075.026-.071.025-.077.027-.068.024-.08.028-.064.023-.085.03-.063.022-.078.028-.069.024-.078.027-.068.024-.076.027-.071.025-.076.027-.07.025-.076.027-.069.024-.078.027-.07.024-.077.027-.067.024-.091.032-.055.019-.088.031-.06.021-.085.03-.062.021-.078.027-.07.024-.073.025-.074.026-.08.028-.066.023-.091.031-.056.02-.285.1-.073.025-.083.028-.054.019-.093.032-.054.019-.094.032h0l-.325-.946C535.479,780.264,538.638,779.134,541.741,777.98Zm-18.865,6.481.3.954q-2.282.721-4.58,1.416l-.013,0-.123.037-.029.009-.1.031-.054.016-.079.024-.075.023-.06.018-.1.029-.035.011-.118.035-.022.007q-2.088.627-4.185,1.232l-.277-.961C516.507,786.428,519.719,785.458,522.875,784.461Zm-19.167,5.527.253.967q-2.339.611-4.689,1.2h0l-.145.036-.021.005-.129.032-.025.006-.126.031-.029.007-.119.029-.046.011-.1.025-.056.014-.1.023-.056.014-.1.023-.063.015-.086.021-.078.019-.07.017-.088.022-.064.016-.082.02-.07.017-.088.021-.061.015-.1.023-.056.014-.1.024-.05.012-.1.024-.051.012-.11.027-.039.009-.115.028-.036.009-.116.028-.037.009-.106.026-.048.012-.105.025-.045.011-.1.025-.048.011-.1.025-.049.012-.1.023-.057.014-.094.023-.057.014-.092.022-.061.015-.088.021-.066.016-.078.019-.077.018-.073.017-.08.019-.068.016-.086.02-.065.015-.088.021-.057.013-.1.023-.047.011-.107.025-.04.009-.114.027-.011,0-.229-.973C497.25,791.634,500.507,790.826,503.709,789.989Zm-19.42,4.56.2.979c-3.267.681-6.519,1.317-9.814,1.919l-.18-.984C477.757,795.869,481.05,795.224,484.289,794.549Zm-19.624,3.584.155.988q-2.356.37-4.722.712h0l-.151.022h-.007l-.142.02-.02,0-.126.018-.036.005-.111.016-.051.007-.1.015-.055.008-.093.013-.07.01-.077.011-.081.011-.068.01-.095.013-.051.007-.105.015-.047.007-.113.016-.032,0-.127.018-.019,0-.14.02h0q-1.312.183-2.627.359l-.083.011-.072.01-.471.062-.13-.991C458.076,799.124,461.4,798.645,464.666,798.132Zm-19.778,2.6.106.994c-.58.062-1.15.121-1.73.18l-.02,0-.129.013-.077.008-.073.007-.115.012-.034,0-.146.015h0q-3.8.382-7.628.693l-.081-1C438.257,801.4,441.6,801.083,444.888,800.734ZM425,802.351l.056,1-.064,0-.082,0-.053,0-.108.006h-.025q-4.033.225-8.088.37h-.009l-.151.005h0l-.15.005h-.008l-.15.005h0l-.151.005h-.007l-.151.005h-.006l-.15.005h-.007l-.152.005h0l-.469.015-.032-1C418.35,802.686,421.7,802.538,425,802.351Zm-29.926.59c2.295.039,4.623.058,6.921.058,1.017,0,2.049,0,3.066-.011l.008,1c-.758.006-1.488.009-2.246.011h-2.952l-.324,0-.3,0H397.2q-1.071-.012-2.141-.031Zm-19.932-.826c3.3.218,6.651.4,9.961.536l-.041,1-.208-.009h-.022l-.132-.006-.04,0-.112,0-.056,0-.1,0-.072,0-.079,0-.086,0-.067,0-.1,0-.051,0-.113,0-.039,0-.126-.006h-.021l-.139-.006h-.013q-3.435-.156-6.854-.369h-.02l-.135-.008-.036,0-.116-.007-.083-.005-.073,0-1.1-.071Zm-19.866-1.808c3.286.381,6.624.727,9.922,1.027l-.091,1c-1.35-.123-2.709-.253-4.055-.39l-.056-.006-.1-.01-.12-.012-.036,0q-2.8-.285-5.584-.609Zm-19.751-2.791c3.263.544,6.58,1.055,9.858,1.518l-.14.99-.068-.01-.046-.007-.1-.014-.067-.01-.075-.011-.093-.013-.047-.007-.115-.016-.028,0q-4.64-.663-9.246-1.432Zm-19.587-3.773c3.232.707,6.52,1.383,9.77,2.009l-.189.982q-.92-.177-1.839-.359l-.01,0-.138-.027-.023,0-.123-.024-.042-.008-.1-.021-.061-.012-.084-.017-.081-.016-.066-.013-.091-.018-.06-.012-.1-.02-.05-.01-.109-.022-.04-.008-.117-.024-.034-.007-.118-.024-.035-.007-.125-.025-.024,0-.134-.027-.016,0-.14-.028-.012,0-.138-.028-.017,0-.139-.028-.012,0-.143-.029-.01,0-.143-.029-.011,0-.14-.029-.014,0-.144-.029h-.006l-.151-.031h0l-.306-.063h0l-.457-.095h0l-.148-.031h-.006c-1.34-.279-2.691-.567-4.026-.859ZM296.568,789c3.193.868,6.443,1.707,9.657,2.5l-.238.971q-.836-.2-1.671-.413h0l-.139-.035-.025-.006-.12-.03-.037-.009-.1-.026-.06-.015-.08-.02-.079-.02-.061-.015-.1-.026-.036-.009-.12-.03-.024-.006-.137-.035h0c-1.659-.419-3.307-.847-4.957-1.287l-.023-.006-.123-.033-.048-.013-.094-.025-.079-.021-.069-.018-.1-.027-.042-.011-.131-.035-.014,0-1.2-.325Zm-19.112-5.713c3.146,1.027,6.349,2.028,9.52,2.976l-.286.958c-.914-.273-1.843-.555-2.754-.834h0l-.14-.043-.013,0-.131-.04-.023-.007-.123-.038-.027-.008-.12-.037-.03-.009-.117-.036-.033-.01-.113-.035-.042-.013-.1-.032-.047-.015-.1-.031-.053-.016-.094-.029-.056-.017-.091-.028-.059-.018-.09-.028-.054-.017-.095-.03-.053-.016-.1-.03-.046-.015-.1-.032-.047-.015-.1-.032-.043-.014-.1-.033-.045-.014-.1-.033-.042-.013-.106-.033-.042-.013-.106-.033-.036-.011-.113-.036-.028-.009-.123-.039-.012,0-.137-.043h0c-1.178-.372-2.368-.755-3.542-1.138Zm-18.8-6.664c3.091,1.184,6.24,2.344,9.36,3.45l-.334.943-.852-.3-.014-.005-.107-.038-.043-.015-.1-.034-.051-.018-.082-.029-.068-.024-.064-.023-.084-.03-.052-.019-.1-.035-.043-.015-.1-.037-.045-.016-.105-.038-.033-.012-.113-.041-.035-.013-.113-.041-.032-.012-.113-.041-.036-.013-.113-.041-.028-.01-.119-.043-.027-.01-.122-.044-.02-.007-.125-.045-.023-.008-.124-.045-.021-.008-.123-.045-.025-.009-.122-.045-.023-.008-.12-.044-.029-.011-.12-.044-.023-.008-.125-.046-.021-.008-.125-.046-.023-.008-.118-.043-.033-.012-.111-.041-.038-.014-.1-.038-.044-.016-.1-.037-.048-.018-.092-.034-.058-.022-.085-.031-.06-.022-.084-.031-.061-.023-.085-.031-.063-.023-.075-.028-.075-.028-.066-.024-.082-.03-.058-.021-.088-.033-.054-.02-.093-.035-.043-.016-.106-.039-.031-.012-.114-.042-.027-.01-.118-.044-.022-.008-.127-.047h0c-1.007-.376-2.027-.762-3.031-1.146Zm-18.446-7.6c3.028,1.337,6.115,2.654,9.175,3.914l-.381.925-.027-.011-.1-.042-.04-.016-.1-.042-.044-.018-.1-.042-.042-.017-.1-.042-.043-.018-.1-.043-.037-.015-.105-.044-.039-.016-.109-.045-.03-.013-.115-.048-.026-.011-.127-.053-.011,0-.133-.056-.01,0-.137-.057,0,0q-3.824-1.594-7.607-3.265Zm-18.042-8.51c2.958,1.487,5.975,2.956,8.968,4.368l-.427.9c-.494-.233-.982-.465-1.475-.7l-.008,0-.119-.057-.035-.017-.1-.046-.058-.028-.071-.034-.084-.04-.049-.024-.1-.049-.03-.014-.124-.06-.01,0q-2.672-1.281-5.321-2.6l-.017-.009-.11-.055-.037-.019-.084-.042-.063-.032-.062-.031-.084-.042-.033-.017-.113-.057h0l-.8-.4Zm-17.595-9.4c2.88,1.632,5.82,3.25,8.739,4.81l-.471.882q-1.584-.846-3.16-1.706l-.014-.008-.114-.062-.039-.021-.094-.051-.047-.026-.083-.045-.066-.036-.063-.035-.081-.044-.047-.026-.1-.054-.03-.016-.11-.061-.018-.01c-1.575-.865-3.134-1.735-4.7-2.621Zm-17.1-10.265c2.8,1.773,5.651,3.536,8.488,5.239l-.515.857q-4.289-2.574-8.51-5.252Zm-16.574-11.1c2.7,1.91,5.469,3.812,8.218,5.654l-.557.831-.052-.035-.022-.015-.1-.064-.045-.03-.071-.048-.075-.05-.046-.031-.092-.062-.032-.021-.117-.079,0,0q-2.916-1.962-5.8-3.973l-.016-.012-.105-.074-.049-.034-.07-.049-.077-.054-.044-.031-.1-.073-.012-.009c-.444-.311-.872-.612-1.314-.924Zm-16-11.91c2.606,2.042,5.273,4.078,7.928,6.054l-.6.8-.008-.006-.062-.046-.067-.05-.022-.016c-.838-.624-1.683-1.259-2.515-1.889l0,0-.118-.089h0l-.117-.089-.006,0-.113-.085-.014-.01-.1-.077-.036-.028-.083-.063-.051-.039-.067-.051-.073-.055-.047-.036q-2.234-1.7-4.444-3.432ZM139.5,705.147c2.5,2.168,5.065,4.334,7.618,6.439l-.636.772q-3.859-3.181-7.637-6.455Zm-14.747-13.434c2.391,2.289,4.844,4.579,7.291,6.808l-.673.739-.664-.606h0l-.1-.093-.014-.013-.1-.087-.017-.016-.086-.079-.031-.028-.08-.073-.032-.03-.077-.071-.038-.035-.074-.068-.038-.035-.072-.066-.044-.041-.069-.064-.042-.038-.07-.065-.042-.039-.072-.066-.036-.033-.077-.071-.035-.032-.078-.072-.031-.028-.082-.076-.029-.026-.085-.078-.022-.02-.091-.084-.014-.013c-1.678-1.553-3.318-3.1-4.969-4.677Zm-14.065-14.147c2.275,2.4,4.612,4.813,6.945,7.16l-.709.705q-2.2-2.213-4.367-4.461l-.024-.025-.083-.086-.03-.032-.074-.076-.04-.042-.065-.068-.048-.05-.054-.056-.056-.058-.051-.053-.057-.059-.047-.049-.062-.065-.041-.043-.071-.074-.029-.031-.079-.082-.025-.026-.083-.086-.02-.021-.086-.089-.019-.02-.089-.093-.011-.011-.1-.1,0,0c-.416-.436-.838-.88-1.253-1.318ZM97.335,662.742c2.153,2.513,4.368,5.035,6.583,7.495l-.743.669q-3.345-3.715-6.6-7.513Zm-12.6-15.466c2.026,2.617,4.113,5.245,6.2,7.811l-.775.632c-.286-.351-.56-.688-.844-1.04l-.008-.009-.085-.106-.011-.014-.079-.1-.02-.025-.075-.093-.021-.026-.072-.089-.028-.035-.066-.082-.031-.039-.063-.078-.035-.043-.063-.079-.029-.036-.067-.083-.032-.039-.063-.078-.034-.042-.06-.075-.037-.046-.06-.075-.032-.04-.063-.079-.034-.043-.061-.076-.036-.046L88,653.034l-.037-.046-.061-.076-.019-.024-.077-.1-.01-.012-.348-.436-.02-.025-.067-.084-.028-.036-.059-.075-.037-.046L87.172,652l-.032-.041-.065-.082-.03-.037-.067-.084-.028-.035-.064-.081-.032-.04-.064-.081-.03-.038L86.7,651.4l-.029-.037-.065-.082-.031-.039-.062-.078-.034-.043-.064-.081L86.383,651l-.068-.086-.025-.032-.072-.091-.021-.026-.072-.091-.024-.03-.073-.092-.019-.024-.075-.1-.017-.022-.079-.1-.013-.016-.08-.1-.015-.019-.083-.105,0,0c-.567-.722-1.138-1.454-1.7-2.18ZM72.919,631.2c1.894,2.714,3.848,5.442,5.809,8.109l-.806.592c-.552-.75-1.092-1.49-1.639-2.245l0,0-.083-.115-.006-.009-.075-.1-.016-.022-.068-.094-.023-.032-.059-.081-.034-.046-.055-.076-.035-.049-.051-.071-.04-.056-.047-.066-.046-.063-.039-.054-.054-.076-.034-.047-.057-.08-.031-.043-.061-.085-.029-.04-.066-.091-.021-.029-.073-.1-.017-.023L75.084,636l-.011-.016-.081-.112-.01-.014q-1.454-2.03-2.884-4.079ZM61.912,614.566c1.757,2.8,3.573,5.626,5.4,8.387l-.834.552c-.243-.368-.5-.757-.742-1.126l-.02-.031-.051-.078-.035-.054-.042-.064-.045-.069-.032-.048-.055-.084-.025-.038-.065-.1-.011-.016-.077-.117-.006-.009q-2.135-3.266-4.208-6.576ZM51.747,597.4c1.615,2.888,3.289,5.8,4.976,8.645l-.86.51q-.618-1.044-1.229-2.09l-.007-.012-.068-.116-.011-.019-.061-.1-.021-.036-.055-.094-.023-.039-.052-.089-.028-.048-.048-.083-.032-.055-.043-.073-.037-.064-.04-.069-.039-.066-.037-.064-.043-.074-.034-.058-.052-.089-.022-.037-.06-.1-.017-.029-.064-.111-.012-.021-.068-.117-.01-.017q-.467-.809-.931-1.62l-.008-.014-.07-.123-.006-.011-.068-.118-.022-.038-.054-.095-.028-.049-.045-.08-.037-.065-.038-.067-.044-.078-.028-.05-.053-.093-.02-.036-.062-.108-.01-.018L52.06,600l-.006-.011c-.4-.7-.785-1.389-1.18-2.1Zm-9.3-17.65c1.469,2.965,3,5.954,4.539,8.883l-.885.466c-.425-.807-.857-1.634-1.277-2.444l-.015-.029-.046-.089-.027-.053-.035-.067-.039-.075-.026-.049-.048-.094-.016-.03-.058-.112-.009-.017-.064-.124,0-.008-.068-.131,0-.007q-1.142-2.218-2.258-4.453L42.1,581.3l-.061-.122-.011-.022-.055-.11L41.953,581l-.044-.088-.03-.06-.037-.073-.036-.073-.032-.063-.042-.086-.022-.045-.051-.1-.016-.031-.058-.117-.007-.013-.026-.052Zm-8.4-18.091c1.319,3.035,2.694,6.1,4.089,9.1l-.907.421q-.394-.847-.784-1.7l-.006-.013-.057-.124-.013-.029-.049-.108-.019-.041-.044-.1-.024-.052-.038-.084-.029-.063-.035-.076-.03-.066-.033-.072-.032-.07-.032-.07-.034-.074-.028-.061L35.9,568.3l-.025-.055-.04-.087-.024-.052-.04-.087-.025-.055-.04-.087-.022-.049-.042-.094-.021-.046-.043-.095-.02-.045-.042-.093-.023-.051-.041-.091-.019-.043-.045-.1-.017-.039-.046-.1-.017-.039-.046-.1-.015-.032-.05-.111-.009-.021-.054-.119-.009-.019-.054-.12-.01-.021-.052-.117L35,566.3l-.05-.111-.01-.022-.054-.12-.006-.012-.057-.128,0-.008c-.249-.558-.492-1.1-.739-1.663l0-.006-.055-.125-.008-.017-.058-.132,0-.006-.058-.132,0-.008-.059-.134,0-.005-.058-.133,0-.008q-.323-.735-.642-1.469Zm-7.489-18.488c1.165,3.1,2.386,6.223,3.629,9.291l-.927.375q-1.2-2.965-2.356-5.953c0-.012,0,.011,0,0l-.053-.138,0-.013-.049-.128-.008-.021-.043-.112-.016-.041-.037-.1-.02-.051-.032-.084-.026-.066-.026-.067-.031-.082-.018-.048-.04-.1-.007-.019-.049-.129v0c-.274-.717-.549-1.44-.819-2.159ZM20,524.333c1.009,3.152,2.071,6.335,3.159,9.461l-.945.329c-1.1-3.15-2.147-6.3-3.167-9.485Zm-5.6-19.145c.849,3.2,1.751,6.431,2.681,9.608l-.96.281,0-.009-.037-.127-.006-.019-.038-.13-.006-.019-.04-.137,0-.01-.042-.145v0q-1.307-4.494-2.512-9.032Zm-4.635-19.4c.688,3.238,1.427,6.511,2.2,9.73l-.973.232q-1.16-4.855-2.2-9.754ZM6.108,466.177c.526,3.269,1.1,6.575,1.707,9.828l-.983.183q-.915-4.905-1.711-9.852ZM3.431,446.409c.363,3.291.771,6.622,1.215,9.9l-.991.134q-.125-.925-.246-1.852l0-.024-.017-.129-.006-.047-.013-.1-.013-.1-.007-.053c-.224-1.728-.436-3.453-.638-5.187v0L2.7,448.8l0-.023-.015-.13,0-.036L2.66,448.5l-.006-.054-.012-.1-.007-.064-.009-.082-.01-.086-.007-.065-.011-.1-.006-.051-.012-.109-.005-.044-.014-.122,0-.023-.016-.141v-.008q-.052-.465-.1-.93ZM1.738,426.533c.2,3.306.443,6.653.724,9.949l-1,.085q-.066-.776-.129-1.552v0l-.012-.145v-.011l-.009-.116,0-.044-.009-.115,0-.04-.009-.108,0-.051-.009-.107,0-.048-.008-.105,0-.054-.009-.112,0-.041-.009-.119,0-.037-.01-.123,0-.032-.01-.123,0-.034-.01-.13,0-.022-.011-.139v-.016l-.011-.148v0l-.012-.152v0q-.236-3.113-.425-6.24ZM1.026,406.6c.037,3.312.116,6.667.234,9.972l-1,.036q-.016-.46-.032-.921v-.023l0-.122,0-.045,0-.1,0-.071q0-.04,0-.081l0-.086,0-.064,0-.1,0-.053,0-.119c0-.011,0-.022,0-.033l0-.138v-.017c-.045-1.453-.082-2.9-.111-4.357v0l0-.152v-.016c0-.054,0-.086,0-.14,0-.008,0-.017,0-.025l0-.126v-.039l0-.116v-.048c0-.04,0-.061,0-.1v-.062l0-.091v-.143c0-.031,0-.062,0-.094v-.044l0-.119c0-.013,0,0,0-.009q-.02-1.17-.033-2.341Zm-.736-20,1,.038c-.124,3.3-.21,6.66-.253,9.972l-1-.013v-.118C.082,393.167.166,389.888.29,386.6Zm1.244-19.959,1,.087c-.287,3.3-.537,6.642-.743,9.947l-1-.062q.039-.625.08-1.249v-.013l.009-.14,0-.051.007-.1.009-.131,0-.023C1.083,372.143,1.295,369.382,1.534,366.639Zm2.23-19.873.991.136c-.45,3.277-.866,6.607-1.235,9.9l-.994-.111q.453-4.04.986-8.054l0-.016.014-.106.007-.056.01-.072.012-.088.006-.046.016-.117v-.011C3.641,347.665,3.7,347.223,3.763,346.766Zm3.215-19.737.983.185c-.613,3.251-1.194,6.556-1.726,9.824l-.987-.161q.453-2.779.943-5.546v0l.025-.143,0-.012.023-.132,0-.024.023-.126.005-.028.019-.109.009-.05.016-.091.012-.064.014-.08.014-.077.013-.072.015-.081.012-.068.016-.091.009-.052.019-.1.009-.05.019-.106.008-.044.02-.109.008-.046.02-.112.006-.036.021-.117.007-.041.021-.114.008-.042.02-.109.01-.052.019-.1.01-.052.018-.1.011-.062.017-.09.014-.074.014-.075.016-.085.013-.068.017-.092.01-.057.02-.108.008-.043.023-.124,0-.024.026-.139,0-.011Zm4.2-19.552.972.234c-.775,3.217-1.521,6.489-2.215,9.725l-.978-.21.008-.036.015-.071L9,317.033l.014-.064.02-.093.012-.056.022-.1.01-.047.024-.111.008-.036.026-.12.006-.029.028-.128,0-.02L9.2,316.1l0-.017.031-.14,0-.008.031-.144,0-.009.032-.147v0c.122-.559.246-1.117.371-1.675h0l.034-.151v0l.033-.146,0-.012.032-.141,0-.011.031-.138,0-.02.03-.131.005-.023.028-.125.007-.033.027-.119.008-.036.026-.113.01-.043.024-.106.012-.052.022-.1.014-.061.021-.09.015-.066.019-.082.017-.076.017-.073.02-.087.014-.06.022-.1.013-.056.024-.1.01-.043.027-.118.007-.03.03-.131,0-.015.032-.14,0-.01Q10.738,309.294,11.176,307.476Zm5.171-19.317.959.283c-.935,3.174-1.844,6.4-2.7,9.6l-.966-.259Q14.935,292.949,16.346,288.159Zm6.132-19.034.944.33c-1.094,3.124-2.163,6.3-3.178,9.455l-.952-.307c.343-1.065.692-2.133,1.044-3.194l0-.009.047-.141v0l.047-.143,0-.005.047-.142v0l.046-.139,0-.012.046-.137,0-.006.046-.137,0-.013.045-.135,0-.011.044-.132.007-.02.043-.129,0-.014.044-.13.006-.019.043-.128.006-.018.042-.124.01-.031.039-.115.012-.035.037-.109.014-.043.034-.1.018-.053.03-.087.024-.071.025-.075.025-.074.024-.07.028-.082.022-.065.032-.1.015-.045.039-.115.01-.03.045-.133,0-.009Q21.938,270.67,22.479,269.125Zm7.078-18.7.926.377c-1.249,3.065-2.476,6.189-3.647,9.284l-.935-.354q.443-1.17.892-2.335l0,0,.053-.137.005-.013.049-.128.009-.023.046-.118.012-.03.042-.109.017-.045.036-.094.022-.056.032-.083.026-.068.028-.072.029-.074.026-.066.032-.083.022-.057.034-.088.02-.052.038-.1.017-.043.039-.1.016-.04.042-.108.011-.028.045-.114.011-.029.047-.119.006-.015.05-.127.007-.017.05-.128,0-.009.052-.133,0-.011.052-.132,0-.011.051-.129.008-.02.106-.269v0l.112-.282v0l.225-.567.012-.03.1-.255.057-.144v0Q29.028,251.722,29.557,250.422ZM37.564,232.1l.906.423c-1.4,3-2.783,6.058-4.108,9.09l-.916-.4Q35.449,236.623,37.564,232.1Zm8.912-17.9.884.468c-1.549,2.926-3.082,5.911-4.557,8.874l-.9-.446Q44.139,218.608,46.476,214.193Zm9.794-17.436.859.511c-1.693,2.845-3.372,5.75-4.993,8.635l-.872-.49q.721-1.283,1.451-2.56l.015-.027.035-.061c.716-1.251,1.442-2.506,2.17-3.749l0-.008.071-.122.011-.018.063-.108.033-.056.044-.074.06-.1.016-.027Q55.751,197.629,56.27,196.757ZM66.919,179.83l.833.553c-1.832,2.757-3.654,5.576-5.416,8.377l-.846-.533Q64.15,184,66.919,179.83ZM78.4,163.453l.8.594c-1.966,2.663-3.926,5.387-5.825,8.1l-.819-.574c.651-.928,1.3-1.841,1.954-2.763l.011-.016.072-.1.018-.025.065-.09.027-.037.059-.083.032-.045.05-.07.043-.06.044-.061.047-.066.038-.054.054-.075.034-.047.059-.083.026-.037.067-.093.023-.031.07-.1.017-.024.076-.106.012-.017.086-.119v0Q76.957,165.4,78.4,163.453Zm12.274-15.789.774.633c-2.1,2.562-4.188,5.186-6.219,7.8l-.789-.614q.67-.862,1.345-1.721l.005-.007.088-.111.013-.017.079-.1.022-.028.073-.093.022-.028.071-.09.028-.036.065-.082.031-.04.062-.079.035-.044.06-.076.036-.045.056-.071.043-.054.046-.059.05-.064.038-.048.06-.076.029-.036.066-.083.027-.034.07-.088.01-.012c1.157-1.458,2.3-2.883,3.481-4.324l.013-.015.07-.086.029-.035.057-.07.042-.052Zm13.04-15.162.742.671c-2.22,2.455-4.44,4.973-6.6,7.482L97.1,140c.639-.743,1.266-1.467,1.911-2.205l.016-.018.075-.086.027-.031.063-.073.042-.048.052-.06.05-.057.048-.055.057-.065.039-.044.065-.074.033-.038.073-.084.024-.027.081-.092.019-.021.089-.1.008-.009.1-.111,0,0Q101.824,134.588,103.709,132.5ZM117.483,118l.708.706c-2.338,2.342-4.68,4.747-6.959,7.146l-.725-.689.082-.086,0,0,.1-.1.01-.01.088-.092.019-.02.082-.086.025-.026.072-.076.038-.04.066-.07.038-.04.066-.069.041-.043.064-.067.041-.043.065-.068.043-.045.062-.065.044-.046.06-.063.048-.05.058-.06.047-.049.059-.062.048-.05.058-.061.046-.048.06-.062.045-.047.063-.065.036-.038.07-.073.036-.037.07-.072.035-.037.071-.074.031-.032.076-.079.017-.018.089-.092h0l.838-.866h0Q115.481,120.01,117.483,118Zm14.474-13.8.672.741c-2.451,2.224-4.909,4.51-7.3,6.794l-.69-.724Q128.248,107.569,131.956,104.2Zm15.138-13.068.635.773c-2.558,2.1-5.125,4.261-7.631,6.424l-.654-.757c.666-.575,1.32-1.135,1.989-1.706l0,0,.1-.083.022-.019.078-.066.044-.038.066-.056.051-.043.062-.053.059-.05.052-.044.068-.058.045-.038.076-.065.039-.033.08-.067.036-.031.087-.074.026-.022.1-.081.018-.016.106-.09.009-.007.111-.094.007-.006Q144.922,92.919,147.095,91.136Zm15.766-12.3.6.8c-2.659,1.971-5.33,4-7.94,6.039l-.615-.788.57-.444.005,0,.106-.082.019-.015.09-.07.038-.03.078-.06.045-.035.071-.055.057-.044L156.04,84l.066-.051.052-.04.077-.059.042-.033.082-.063.038-.029.093-.072.025-.019.1-.079.018-.014.11-.085.012-.009.112-.086.011-.008q.679-.523,1.36-1.043l0,0,.114-.087.04-.03.081-.062.048-.037.072-.055.063-.048.056-.042.077-.058.04-.031.088-.067.032-.025.092-.07.026-.02.1-.079.012-.009.114-.086,0,0C160.49,80.6,161.668,79.717,162.861,78.833Zm16.356-11.506.555.832c-2.753,1.836-5.522,3.733-8.229,5.638l-.575-.818C173.7,71.058,176.438,69.18,179.217,67.327Zm16.907-10.68.513.859c-2.841,1.7-5.7,3.454-8.5,5.222l-.534-.845c1.718-1.085,3.417-2.141,5.152-3.2l.016-.01.1-.062.03-.018.072-.044.065-.04.054-.033.077-.047.053-.032.082-.05.043-.026.09-.055.039-.024.1-.058.033-.02.1-.059.039-.024.094-.057.036-.022.095-.057.038-.023.1-.058.035-.021.1-.059.035-.021.1-.06.033-.02.1-.059.034-.021.1-.06.033-.02.1-.059.037-.022.1-.057.039-.023.09-.054.044-.026.091-.055.041-.025.087-.052.048-.029.084-.05.05-.03.08-.048.053-.032.08-.048.054-.032.071-.043.064-.038.06-.036.075-.045.044-.026Zm17.418-9.826.469.883c-2.922,1.554-5.865,3.166-8.748,4.792l-.491-.871c2.523-1.423,5.049-2.813,7.605-4.182l.019-.01.1-.054.045-.024.078-.042.066-.035.06-.032.085-.046.041-.022.105-.056L213,47.11Zm17.887-8.945.425.905c-3,1.406-6.016,2.869-8.977,4.35l-.447-.894q2.093-1.047,4.2-2.07l.028-.014.108-.052.064-.031.072-.035.088-.042.049-.023.094-.045.044-.021.1-.05.033-.016.113-.055.022-.011.12-.058.017-.008.124-.06.012-.006C228.955,39.045,230.187,38.459,231.429,37.876Zm18.312-8.04.379.925c-3.062,1.254-6.152,2.565-9.183,3.9l-.4-.916.015-.007.124-.055.007,0Q245.182,31.7,249.741,29.836Zm18.69-7.113.332.943c-3.121,1.1-6.273,2.254-9.366,3.431l-.356-.935q1.676-.638,3.359-1.261l.006,0,.135-.05.017-.006.128-.047.021-.008.12-.044.032-.012.111-.041.037-.014.106-.039.043-.016.1-.037.047-.017.1-.035.053-.019.092-.034.055-.02.089-.033.057-.021.089-.033.057-.021.085-.031.063-.023.08-.029.066-.024.079-.029.067-.024.08-.029.067-.024.077-.028.069-.025.08-.029.065-.023.083-.03.063-.023.088-.032.056-.02.094-.034.051-.019.1-.037.043-.016.109-.039.036-.013.132-.047.011,0Q267.03,23.216,268.431,22.723Zm19.023-6.167.284.959c-3.173.942-6.378,1.936-9.526,2.957l-.308-.951q1.482-.48,2.968-.949l.021-.007.125-.039.033-.01.112-.035.045-.014.1-.032.057-.018.084-.026.078-.024.067-.021.088-.028.056-.017.095-.03.053-.017.1-.032.04-.013.11-.034.038-.012.114-.035.031-.01.117-.036.032-.01.122-.038.021-.007.129-.04.019-.006.131-.041.015,0,.132-.041.018-.005.133-.041.012,0,.136-.042.013,0,.133-.041.017-.005.128-.039.023-.007.127-.039.019-.006.128-.039.023-.007.121-.037.03-.009.113-.035.042-.013.1-.032.045-.014.1-.031.057-.017.085-.026.072-.022.07-.021.088-.027.056-.017.1-.03.047-.014.117-.035.023-.007.137-.042.006,0Q286.4,16.866,287.453,16.555Zm19.308-5.206.236.972c-3.216.781-6.467,1.615-9.662,2.476l-.26-.966q2.107-.568,4.224-1.114h.006l.146-.038h0l.145-.037.009,0,.138-.035.018,0,.129-.033.027-.007.122-.031.03-.008.121-.031.033-.008.117-.03.034-.009.113-.029.044-.011.105-.027.046-.012.1-.026.053-.013.1-.024.058-.015.088-.022.07-.018.079-.02.071-.018.08-.02.074-.019.075-.019.076-.019.074-.019.08-.02.071-.018.079-.02.072-.018.085-.021.06-.015.1-.024.051-.013.1-.026.045-.011.1-.026.051-.013.1-.025.046-.011.107-.027.042-.01.111-.027.04-.01.108-.027.045-.011.11-.027.037-.009.116-.029.034-.008.119-.029.032-.008.116-.029.04-.01.112-.028.038-.009.115-.028.035-.008.118-.029.034-.008.114-.028.042-.01.113-.027.035-.008.115-.028.039-.009Zm19.544-4.233.187.982c-3.252.62-6.54,1.289-9.774,1.989l-.212-.977.143-.031.013,0,.121-.026.039-.008.1-.021.06-.013.077-.017.081-.017.06-.013.095-.02.05-.011.109-.023.029-.006.127-.027.015,0c1.427-.3,2.843-.6,4.275-.889l.01,0,.141-.028.021,0,.126-.025.041-.008.111-.022.047-.009.1-.021.058-.012.093-.019.072-.014L322.8,7.8l.091-.018.059-.012.106-.021.041-.008.124-.025.024,0,.145-.029h0Q324.845,7.394,326.305,7.116Zm19.732-3.252.138.99c-3.279.457-6.6.961-9.861,1.5l-.163-.987Q341.074,4.556,346.037,3.864ZM365.906,1.6l.089,1c-3.3.294-6.637.632-9.924,1.007l-.113-.994C359.258,2.232,362.581,1.894,365.906,1.6ZM385.862.318l.039,1c-3.31.131-6.661.3-9.962.516l-.064-1c2.774-.178,5.54-.327,8.328-.448h0l.153-.007h.013l.143-.006h.023l.134-.006h.032l.121-.005.045,0,.109,0,.056,0,.1,0,.07,0,.082,0,.083,0,.066,0,.1,0,.049,0,.116,0h.027l.137-.005ZM402,0V1c-2.034,0-4.1.015-6.127.046l-.015-1Q398.152.012,400.453,0H402Z" transform="translate(155.302 1769.603)" fill="#707070"/></g></svg>