<svg xmlns="http://www.w3.org/2000/svg" width="193.074" height="68.183" viewBox="0 0 193.074 68.183"><g transform="translate(-115.75 -48.54)"><ellipse cx="34.054" cy="34.091" rx="34.054" ry="34.091" transform="translate(240.717 48.54)" fill="#0079e2"/><path d="M3427.738,478.768l-.71,3.478a2.282,2.282,0,0,0,1.243,2.508c3.383,1.645,10.909,5.709,10.426,9.106-.457,3.21-8.064,2.725-12.274,2.821-1.431.032-2.6-.462-2.8,3.4a.525.525,0,0,0,0,.068l-.078,2.992a2.692,2.692,0,0,0,3.146,3.167c5.287-.457,16.428-3.545,15.829-13.159-.554-8.9-7.484-13.832-11.459-15.944A2.3,2.3,0,0,0,3427.738,478.768Z" transform="translate(-3142.609 -407.001)" fill="#fff"/><path d="M2998.43,587l2.668.031a3.562,3.562,0,0,1,3.371,3.735l-.029,2.482a3.563,3.563,0,0,1-3.456,3.657l-2.668-.03a3.564,3.564,0,0,1-3.372-3.735l.029-2.482A3.566,3.566,0,0,1,2998.43,587Z" transform="translate(-2735.423 -511.569)" fill="#fff"/><path d="M2755.464,619.593l-.006.493c-.015,1.326-.056,4.134-.056,4.135-.022,1.815-1.493,2.656-3.169,2.76-5.224.324-9.562-.656-13.658-4.045-.739-.612-3.064-2.533-3.7-2.047-1.02.772-1.948-.391-2.369-1.209-.683-1.329-1.341-2.665-2.021-4-.849-1.627-.18-2.535.749-3.466a6.65,6.65,0,0,0,2.156-5.226c.09-4.344,4.588-3.89,4.594-.6.005,3-2.768,12.163,14.223,10.976a3.087,3.087,0,0,1,3.006,1.3A1.558,1.558,0,0,1,2755.464,619.593Z" transform="translate(-2483.797 -527.559)" fill="#fff"/><path d="M3251.676,286.744c.044,1.248-.081,2.529-.141,3.76q-.136,2.756-.272,5.511l-.646,13.111-.41,8.314-.014.287a2.6,2.6,0,0,1-.286,1.061,2.88,2.88,0,0,1-5.4-1.074l-.335-6.178-.685-12.616-.323-5.953a47.99,47.99,0,0,1-.266-6.371,6.614,6.614,0,0,1,2.863-5.124,3.333,3.333,0,0,1,4.544.924A7.286,7.286,0,0,1,3251.676,286.744Z" transform="translate(-2970.949 -220.798)" fill="#fff"/><g transform="translate(115.75 93.148)" opacity="0.61"><path d="M280.662,953.923a3.932,3.932,0,0,1-1.1.144h-5.729a3.194,3.194,0,0,1-.961-.144,2.024,2.024,0,0,1-.817-.49,2.439,2.439,0,0,1-.567-.913,4.089,4.089,0,0,1-.212-1.413v-8.959h1.248v8.728a2.345,2.345,0,0,0,.355,1.336,1.3,1.3,0,0,0,1.163.528h5.4a1.584,1.584,0,0,0,1.191-.356,1.217,1.217,0,0,0,.327-.855,2.686,2.686,0,0,0-.115-.73,2.329,2.329,0,0,0-.634-.923l-4.153-4.134v-1.365l6.363-2.518.327,1.248-5.459,2.134,3.479,3.48a11.174,11.174,0,0,1,.759.865,4.526,4.526,0,0,1,.471.731,2.473,2.473,0,0,1,.231.673,3.987,3.987,0,0,1,.058.692,2.593,2.593,0,0,1-.2,1.067,1.926,1.926,0,0,1-.567.74A2.5,2.5,0,0,1,280.662,953.923Z" transform="translate(-263.514 -941.86)" fill="#231f20"/><rect width="1.249" height="11.919" transform="translate(24.626 0.288)" fill="#231f20"/><rect width="1.615" height="1.403" transform="translate(35.891 14.438)" fill="#231f20"/><path d="M762.529,954.051V956.7a2.805,2.805,0,0,1-.759,2.105,2.837,2.837,0,0,1-2.067.74h-2.347a3.2,3.2,0,0,1-.961-.144,2.018,2.018,0,0,1-.817-.49,2.446,2.446,0,0,1-.567-.913,4.066,4.066,0,0,1-.211-1.413V947.63h1.248v8.728a2.346,2.346,0,0,0,.356,1.336,1.3,1.3,0,0,0,1.163.528h2.057a1.738,1.738,0,0,0,1.2-.4,1.415,1.415,0,0,0,.452-1.115v-2.653Z" transform="translate(-722.889 -947.342)" fill="#231f20"/><path d="M120.344,1076.22h1.23v5.193a5.551,5.551,0,0,1-.356,2.028,4.793,4.793,0,0,1-.971,1.567,4.273,4.273,0,0,1-1.452,1.01,4.6,4.6,0,0,1-1.817.356h-1.135l-.1-1.307h.942a4.048,4.048,0,0,0,1.653-.308,3.193,3.193,0,0,0,1.135-.817,3.319,3.319,0,0,0,.654-1.163,4.41,4.41,0,0,0,.211-1.365Z" transform="translate(-115.75 -1069.511)" fill="#231f20"/><path d="M457.974,1076.22H459.2v5.193a5.551,5.551,0,0,1-.356,2.028,4.793,4.793,0,0,1-.971,1.567,4.268,4.268,0,0,1-1.452,1.01,4.6,4.6,0,0,1-1.816.353h-1.134l-.1-1.307h.942a4.048,4.048,0,0,0,1.653-.308,3.2,3.2,0,0,0,1.134-.817,3.321,3.321,0,0,0,.654-1.164,4.408,4.408,0,0,0,.211-1.365Z" transform="translate(-436.521 -1069.511)" fill="#231f20"/><rect width="1.615" height="1.404" transform="translate(28.432 2.845)" fill="#231f20"/><path d="M603.885,1076.22h1.23v5.193a5.55,5.55,0,0,1-.356,2.028,4.792,4.792,0,0,1-.971,1.567,4.268,4.268,0,0,1-1.452,1.01,4.6,4.6,0,0,1-1.817.356h-1.134l-.1-1.307h.942a4.048,4.048,0,0,0,1.653-.308,3.2,3.2,0,0,0,1.135-.819,3.321,3.321,0,0,0,.654-1.164,4.414,4.414,0,0,0,.211-1.365Z" transform="translate(-575.145 -1069.511)" fill="#231f20"/><path d="M977.353,1011.112v2.653a1.418,1.418,0,0,1-.452,1.115,1.737,1.737,0,0,1-1.2.4h-2.057a1.3,1.3,0,0,1-1.192-.519,2.492,2.492,0,0,1-.327-1.346v-5.729h-1.211v1.326h-2.076a2.969,2.969,0,0,0-1.432.327,3.067,3.067,0,0,0-1.009.865,3.819,3.819,0,0,0-.606,1.221,4.884,4.884,0,0,0-.2,1.394,3.1,3.1,0,0,0,.74,2.287,2.925,2.925,0,0,0,2.144.73,6.789,6.789,0,0,0,.7-.038,4.369,4.369,0,0,0,.749-.144,3.146,3.146,0,0,0,.711-.3,1.961,1.961,0,0,0,.567-.48,2.136,2.136,0,0,0,.9,1.355,2.972,2.972,0,0,0,1.538.375h2.134a2.6,2.6,0,0,0,2.826-2.845v-2.653Zm-6.441,2.038a1.2,1.2,0,0,1-.586,1.019,2.794,2.794,0,0,1-1.605.4,2.246,2.246,0,0,1-1.442-.4,1.822,1.822,0,0,1-.5-1.481,2.708,2.708,0,0,1,.538-1.759,1.865,1.865,0,0,1,1.538-.663h2.057Z" transform="translate(-923.153 -1004.403)" fill="#231f20"/><rect width="1.615" height="1.403" transform="translate(51.701 14.438)" fill="#231f20"/><path d="M1285.222,1016.428a2.837,2.837,0,0,1,.221,1.067,2.239,2.239,0,0,1-.74,1.721,3,3,0,0,1-2.1.683h-5.363l-.1-1.327h5.306a1.763,1.763,0,0,0,1.163-.346,1.121,1.121,0,0,0,.413-.9,1.587,1.587,0,0,0-.135-.6,2.038,2.038,0,0,0-.4-.615l-3.576-4.038.98-.923,3.614,4.172A3.818,3.818,0,0,1,1285.222,1016.428Z" transform="translate(-1219.146 -1007.69)" fill="#231f20"/><path d="M1581,1076.22h1.248v5.193a5.548,5.548,0,0,1-.356,2.028,4.791,4.791,0,0,1-.971,1.567,4.268,4.268,0,0,1-1.452,1.01,4.6,4.6,0,0,1-1.817.356h-.5l-.1-1.307h.366a3.861,3.861,0,0,0,1.615-.308,3.137,3.137,0,0,0,1.106-.817,3.393,3.393,0,0,0,.644-1.163,4.395,4.395,0,0,0,.212-1.365Z" transform="translate(-1504.09 -1069.511)" fill="#231f20"/><path d="M1733.424,1052.834a2.732,2.732,0,0,0-1.019-.663,3.5,3.5,0,0,0-1.211-.212,3.1,3.1,0,0,0-1.394.3,2.955,2.955,0,0,0-1.01.8,3.572,3.572,0,0,0-.615,1.154,4.478,4.478,0,0,0-.211,1.384,5.182,5.182,0,0,0,.144,1.278,2.24,2.24,0,0,0,.509.971,2.291,2.291,0,0,0,1,.615,5.188,5.188,0,0,0,1.615.212h1.922a4.26,4.26,0,0,1-.269,1.278,3.135,3.135,0,0,1-.671,1.065,3.18,3.18,0,0,1-1.086.73,3.853,3.853,0,0,1-1.49.269H1727.6l.115,1.307h2.038a4.539,4.539,0,0,0,1.942-.4,4.356,4.356,0,0,0,1.461-1.086,4.809,4.809,0,0,0,.913-1.586,5.657,5.657,0,0,0,.317-1.884v-2.615a5.154,5.154,0,0,0-.26-1.74A3.188,3.188,0,0,0,1733.424,1052.834Zm-.25,4.508h-1.73a4.922,4.922,0,0,1-1.115-.105,1.631,1.631,0,0,1-.7-.327,1.176,1.176,0,0,1-.365-.567,2.83,2.83,0,0,1-.106-.826,2.547,2.547,0,0,1,.5-1.653,1.728,1.728,0,0,1,1.423-.615,1.972,1.972,0,0,1,1.538.615,3,3,0,0,1,.557,2.038Z" transform="translate(-1647.113 -1046.462)" fill="#231f20"/><path d="M1474.9,1060.246a5.65,5.65,0,0,0,.317-1.884v-2.615a5.167,5.167,0,0,0-.259-1.74,3.19,3.19,0,0,0-.7-1.173,2.727,2.727,0,0,0-1.019-.663,3.5,3.5,0,0,0-1.211-.212,3.1,3.1,0,0,0-1.394.3,2.96,2.96,0,0,0-1.009.8,3.561,3.561,0,0,0-.615,1.151,4.466,4.466,0,0,0-.212,1.384,5.217,5.217,0,0,0,.144,1.278,2.244,2.244,0,0,0,.51.971,2.3,2.3,0,0,0,1,.615,5.181,5.181,0,0,0,1.615.212h1.922a4.239,4.239,0,0,1-.269,1.278,3.146,3.146,0,0,1-.673,1.067,3.19,3.19,0,0,1-1.087.731,3.855,3.855,0,0,1-1.49.269h-2.038l.115,1.307h2.038a4.536,4.536,0,0,0,1.941-.4,4.355,4.355,0,0,0,1.461-1.086A4.809,4.809,0,0,0,1474.9,1060.246Zm-2.624-2.9a4.912,4.912,0,0,1-1.115-.105,1.661,1.661,0,0,1-.7-.327,1.178,1.178,0,0,1-.365-.567,2.847,2.847,0,0,1-.106-.826,2.547,2.547,0,0,1,.5-1.653,1.727,1.727,0,0,1,1.423-.615,1.972,1.972,0,0,1,1.538.615,3,3,0,0,1,.558,2.038v1.442Z" transform="translate(-1400.885 -1046.462)" fill="#231f20"/><path d="M1948.217,954.051V956.7a2.805,2.805,0,0,1-.759,2.105,2.837,2.837,0,0,1-2.067.74h-14.706a2.535,2.535,0,0,1-.913-.173,1.667,1.667,0,0,1-.76-.6v.423a5.612,5.612,0,0,1-.326,1.922,4.857,4.857,0,0,1-.932,1.586,4.432,4.432,0,0,1-1.481,1.086,4.609,4.609,0,0,1-1.951.4h-1.134a4.267,4.267,0,0,1-3.346-1.326,5.235,5.235,0,0,1-1.192-3.634v-3.365h1.23V959.2a5.222,5.222,0,0,0,.2,1.5,3.058,3.058,0,0,0,.635,1.163,2.887,2.887,0,0,0,1.086.76,4.146,4.146,0,0,0,1.576.269h.846a3.847,3.847,0,0,0,1.576-.3,3.281,3.281,0,0,0,1.125-.8,3.234,3.234,0,0,0,.673-1.172,4.489,4.489,0,0,0,.221-1.4V947.63h1.23v9.132a1.345,1.345,0,0,0,.449,1.067,1.732,1.732,0,0,0,1.182.394h14.631a1.738,1.738,0,0,0,1.2-.4,1.416,1.416,0,0,0,.452-1.115v-2.653Z" transform="translate(-1828.623 -947.342)" fill="#231f20"/><rect width="1.538" height="1.365" transform="translate(117.614 14.438)" fill="#231f20"/><rect width="1.538" height="1.365" transform="translate(116.403 16.745)" fill="#231f20"/><rect width="1.538" height="1.365" transform="translate(115.173 14.438)" fill="#231f20"/></g><path d="M131.516,427.745v6.91a5.069,5.069,0,0,1-3.19,4.794,4.4,4.4,0,0,0-2.766,4.095V444h.15a9.854,9.854,0,0,0,7.15-2.661,8.937,8.937,0,0,0,2.812-6.682V424a4.146,4.146,0,0,0-3.068,1.1A3.658,3.658,0,0,0,131.516,427.745Z" transform="translate(-9.32 -356.712)" fill="#0079e2"/><path d="M378.632,249.853v4.958a1.548,1.548,0,0,1-1.542,1.542h-3.961a1.548,1.548,0,0,1-1.542-1.542V237.17a4.181,4.181,0,0,0-3.069,1.089,3.685,3.685,0,0,0-1.089,2.661v13.892a5.73,5.73,0,0,0,5.38,5.691v.008h4.278a5.677,5.677,0,0,0,5.7-5.7v-8.723a4.146,4.146,0,0,0-3.068,1.1A3.69,3.69,0,0,0,378.632,249.853Z" transform="translate(-239.112 -179.211)" fill="#0079e2"/><path d="M583.016,762.1a2.358,2.358,0,1,0,1.678,4.021,2.3,2.3,0,0,0,.68-1.663,2.328,2.328,0,0,0-.68-1.663A2.287,2.287,0,0,0,583.016,762.1Z" transform="translate(-441.698 -677.933)" fill="#0079e2"/><path d="M482.737,762.106a2.374,2.374,0,1,0,1.663.694A2.267,2.267,0,0,0,482.737,762.106Z" transform="translate(-346.392 -677.934)" fill="#0079e2"/><path d="M1671.554,303.865a2.357,2.357,0,0,0,3.341,3.326,2.293,2.293,0,0,0,.681-1.663,2.328,2.328,0,0,0-.681-1.663,2.355,2.355,0,0,0-3.341,0Z" transform="translate(-1477.463 -241.915)" fill="#0079e2"/><path d="M1985.663,310.313a2.357,2.357,0,1,0-2.27-1.754A2.347,2.347,0,0,0,1985.663,310.313Z" transform="translate(-1774.309 -244.223)" fill="#0079e2"/><path d="M1091.315,732.445a2.358,2.358,0,1,0,1.678,4.022,2.293,2.293,0,0,0,.68-1.663,2.329,2.329,0,0,0-.68-1.663A2.288,2.288,0,0,0,1091.315,732.445Z" transform="translate(-924.616 -649.754)" fill="#0079e2"/><path d="M1573.559,308a2.358,2.358,0,1,0-1.664-.7A2.269,2.269,0,0,0,1573.559,308Z" transform="translate(-1382.779 -242.03)" fill="#0079e2"/><path d="M2152.63,241.229V260.79a4.148,4.148,0,0,0,3.069-1.1,3.637,3.637,0,0,0,1.089-2.647V237.48a4.161,4.161,0,0,0-3.054,1.088A3.63,3.63,0,0,0,2152.63,241.229Z" transform="translate(-1935.169 -179.505)" fill="#0079e2"/><path d="M1630.839,204.675a2.358,2.358,0,1,0-1.663-.7A2.267,2.267,0,0,0,1630.839,204.675Z" transform="translate(-1437.202 -143.859)" fill="#0079e2"/><path d="M2283.043,421.226a8.226,8.226,0,0,0-2.086-2.8,10.205,10.205,0,0,0-3.431-1.92,15.928,15.928,0,0,0-5.14-.71v1.421a2.864,2.864,0,0,0,.649,1.86,2.926,2.926,0,0,0,1.723,1.058l1.3.272a4.424,4.424,0,0,1,2.615,1.648,4.139,4.139,0,0,1,.922,2.479,1.548,1.548,0,0,1-1.527,1.527H2272.9a3.637,3.637,0,0,0-2.646,1.089,4.144,4.144,0,0,0-1.1,3.068h8.919a5.5,5.5,0,0,0,2.858-.772,5.741,5.741,0,0,0,2.056-2.055,5.452,5.452,0,0,0,.771-2.857A8.022,8.022,0,0,0,2283.043,421.226Z" transform="translate(-2045.871 -348.921)" fill="#0079e2"/><path d="M799.845,419.554v4.958a1.548,1.548,0,0,1-1.542,1.542h-5.019a1.548,1.548,0,0,1-1.542-1.542V415.79a4.147,4.147,0,0,0-3.068,1.1,3.683,3.683,0,0,0-1.089,2.661v5.23a1.261,1.261,0,0,1-2.162.892,1.212,1.212,0,0,1-.363-.892v-7.935a4.148,4.148,0,0,0-3.069,1.1A3.667,3.667,0,0,0,780.9,420.6v4.187a1.27,1.27,0,0,1-2.54,0V417.9a4.132,4.132,0,0,0-3.054,1.1,3.613,3.613,0,0,0-1.1,2.66v2.857a1.483,1.483,0,0,1-.453,1.089,1.452,1.452,0,0,1-1.089.453H768.37a14.463,14.463,0,0,0-1.058-3.854,11.277,11.277,0,0,0-3.507-4.611,8.85,8.85,0,0,0-4.671-1.769c-.111-.01-.219-.017-.325-.022s-.214-.008-.325-.008a.6.6,0,0,0-.181.015h-.043a7.118,7.118,0,0,0-4.974,2.23,7.7,7.7,0,0,0-2.011,5.51h1.557a3.175,3.175,0,0,0,2.872-1.8,3.1,3.1,0,0,1,1.209-1.33,3.278,3.278,0,0,1,1.587-.438,5.2,5.2,0,0,1,3.326,1.433,7.913,7.913,0,0,1,2.283,4.644H749.355a1.484,1.484,0,0,1-1.089-.453,1.424,1.424,0,0,1-.453-1.089V415.8a14.636,14.636,0,0,0-6.425,1.209,10.258,10.258,0,0,0-2.132,1.413,8.134,8.134,0,0,0-1.542,1.807,8,8,0,0,0-1.254,4.308,5.677,5.677,0,0,0,5.684,5.669.224.224,0,0,1-.045.076,4.616,4.616,0,0,1-1.618.967,4.386,4.386,0,0,0-2.781,4.095v.438h.349a9.809,9.809,0,0,0,5.82-1.693,8.813,8.813,0,0,0,3.341-4.278,4.852,4.852,0,0,0,2.147.393h23.307a5.061,5.061,0,0,0,3.356-1.073,4.226,4.226,0,0,0,3.054,1.073h1.119a4.981,4.981,0,0,1,5.563,0h1.119a4.228,4.228,0,0,0,3.054-1.073,5.06,5.06,0,0,0,3.356,1.073H798.3a5.677,5.677,0,0,0,5.7-5.7v-8.72a4.147,4.147,0,0,0-3.068,1.1A3.684,3.684,0,0,0,799.845,419.554Zm-57.762,6.483a1.467,1.467,0,0,1-1.073-.449,1.386,1.386,0,0,1-.453-1.058,4.161,4.161,0,0,1,.922-2.494,3.82,3.82,0,0,1,2.117-1.527V424.5a4.357,4.357,0,0,0,.181,1.542Z" transform="translate(-589.715 -348.912)" fill="#0079e2"/></g></svg>