<svg xmlns="http://www.w3.org/2000/svg" width="25.237" height="25.237" viewBox="0 0 25.237 25.237">
  <g id="error-svg" transform="translate(-902 -633)">
    <g id="Ellipse_5" data-name="Ellipse 5" transform="translate(906 637)" fill="#fff" stroke="#707070" stroke-width="1">
      <circle cx="9" cy="9" r="9" stroke="none"/>
      <circle cx="9" cy="9" r="8.5" fill="none"/>
    </g>
    <path id="close-circle" d="M14.618,2A12.618,12.618,0,1,0,27.237,14.618,12.639,12.639,0,0,0,14.618,2Zm4.24,15.521a.952.952,0,0,1,0,1.338.944.944,0,0,1-1.338,0l-2.9-2.9-2.9,2.9a.944.944,0,0,1-1.338,0,.952.952,0,0,1,0-1.338l2.9-2.9-2.9-2.9a.946.946,0,0,1,1.338-1.338l2.9,2.9,2.9-2.9a.946.946,0,1,1,1.338,1.338l-2.9,2.9Z" transform="translate(900 631)" fill="red"/>
  </g>
</svg>
