<svg xmlns="http://www.w3.org/2000/svg" xmlns:xlink="http://www.w3.org/1999/xlink" width="209.949" height="90.968" viewBox="0 0 209.949 90.968">
  <defs>
    <linearGradient id="linear-gradient" y1="0.604" x2="1" y2="0.5" gradientUnits="objectBoundingBox">
      <stop offset="0" stop-color="#ac4fff"/>
      <stop offset="1" stop-color="#5c40ff"/>
    </linearGradient>
  </defs>
  <g id="Logo" transform="translate(-1404.069 -276.051)">
    <path id="Path_164" data-name="Path 164" d="M45,0C69.385,6.361,90.736,19.584,90,45S70.069,89.274,45,90,1.539,69.574,0,45,20.615-6.361,45,0Z" transform="translate(1524 277)" fill="url(#linear-gradient)"/>
    <g id="music-library-svgrepo-com" transform="translate(1540.223 295.223)">
      <path id="Path_160" data-name="Path 160" d="M19.362,17.092l-.91,1.706h0ZM21.636,18.3l.91-1.706h0ZM24.2,13.488l.91-1.706h0ZM21.93,12.275l.91-1.706h0Zm-4.009,2,1.93.117h0Zm3.646-2.188-.8,1.758h0Zm4.081,3.637,1.932-.061h0Zm-1.292-2.153.964-1.676h0ZM22,18.493l.8-1.758h0Zm3.646-2.188-1.93-.117h0Zm-6.436.7-.964,1.676h0Zm-1.292-2.153-1.932.061h0ZM15.983,26.89a1.933,1.933,0,0,1-1.933,1.933V32.69a5.8,5.8,0,0,0,5.8-5.8ZM14.05,28.823a1.933,1.933,0,0,1-1.933-1.933H8.25a5.8,5.8,0,0,0,5.8,5.8ZM12.117,26.89a1.933,1.933,0,0,1,1.933-1.933V21.09a5.8,5.8,0,0,0-5.8,5.8Zm1.933-1.933a1.933,1.933,0,0,1,1.933,1.933H19.85a5.8,5.8,0,0,0-5.8-5.8Zm5.8,1.933V15.29H15.983v11.6Zm-1.4-8.092,2.275,1.213L22.545,16.6l-2.274-1.213Zm6.663-7.015L22.84,10.57l-1.819,3.412,2.274,1.213Zm-5.265,2.9c0-.114,0-.186,0-.24s0-.063,0-.052l-3.86-.234c-.009.152-.008.34-.008.526Zm2.99-4.114c-.164-.088-.329-.177-.468-.24l-1.61,3.515.046.024.212.113Zm-2.989,3.822a.644.644,0,0,1,.911-.547l1.61-3.515a4.511,4.511,0,0,0-6.381,3.828Zm7.732,1.5c0-.075,0-.155,0-.234l-3.865.123a.185.185,0,0,0,0,.019V15.9Zm-4.288-.7.081.044.017.009,1.927-3.352c-.069-.039-.139-.077-.206-.112Zm4.286.468a4.511,4.511,0,0,0-2.26-3.768l-1.927,3.352a.644.644,0,0,1,.323.538Zm-6.854,4.348c.164.087.329.177.468.24l1.61-3.516-.046-.023-.212-.113Zm2.99-4.114c0,.114,0,.186,0,.24s0,.063,0,.052l3.86.234c.009-.152.008-.34.008-.526Zm-2.522,4.354a4.511,4.511,0,0,0,6.381-3.828l-3.86-.234a.644.644,0,0,1-.911.547Zm-.923-4.865-.081-.044-.017-.009-1.927,3.352c.069.039.139.077.206.112Zm-4.288-.7c0,.075,0,.155,0,.234l3.865-.123a.175.175,0,0,0,0-.019v-.093Zm4.19.65a.645.645,0,0,1-.323-.538l-3.865.123a4.512,4.512,0,0,0,2.26,3.768Z" transform="translate(9.861 12.488)" fill="#fff"/>
      <path id="Path_161" data-name="Path 161" d="M44.952,11.2,42,10.685A4,4,0,0,0,38.061,6H9.9a4,4,0,0,0-3.936,4.685L3.012,11.2A7,7,0,0,1,9.9,3H38.061a7,7,0,0,1,6.891,8.2Z" transform="translate(3.795 3.944)" fill="#fff"/>
      <path id="Path_162" data-name="Path 162" d="M36.413,8.608l-2.982-.327c.065-.594.1-.922.1-1.117a3.647,3.647,0,0,0-3.265-3.643c-.194-.021-.524-.021-1.122-.021h-16.8c-.6,0-.928,0-1.122.021A3.647,3.647,0,0,0,7.957,7.163c0,.2.036.523.1,1.117l-2.982.327A14.007,14.007,0,0,1,4.957,7.17,6.641,6.641,0,0,1,10.9.538,14,14,0,0,1,12.344.5h16.8a14,14,0,0,1,1.442.038A6.655,6.655,0,0,1,36.533,7.17,13.959,13.959,0,0,1,36.413,8.608Z" transform="translate(7.032)" fill="#fff"/>
      <path id="Path_163" data-name="Path 163" d="M35.264,47.166H20.29a74.028,74.028,0,0,1-8.143-.25,9.784,9.784,0,0,1-5.36-2.009,8.986,8.986,0,0,1-2.85-4.825,63.052,63.052,0,0,1-1.344-7.629L1.5,24.72a72.534,72.534,0,0,1-1-9.725c.022-2.859.671-4.825,2.106-6.375,1.416-1.529,3.36-2.386,6.3-2.777A85.459,85.459,0,0,1,19.2,5.5H36.355a85.458,85.458,0,0,1,10.29.343c2.943.392,4.887,1.248,6.3,2.777a7.955,7.955,0,0,1,2.024,4.826,29.664,29.664,0,0,1-.292,6.624,1.5,1.5,0,0,1-2.978-.363c.654-5.361.422-7.56-.956-9.049C48.748,8.5,44.606,8.5,36.355,8.5H19.2c-8.252,0-12.394,0-14.392,2.158C2.849,12.774,3.392,16.627,4.474,24.3l1.09,7.733c.846,6,1.271,9.017,3.136,10.562,1.9,1.57,5.136,1.57,11.589,1.57H35.264c6.454,0,9.693,0,11.589-1.57,1.865-1.544,2.29-4.557,3.136-10.559l1.486.207,1.485.212a63.033,63.033,0,0,1-1.344,7.627,8.985,8.985,0,0,1-2.849,4.824,9.784,9.784,0,0,1-5.36,2.009A74.03,74.03,0,0,1,35.264,47.166Z" transform="translate(0 7.889)" fill="#fff"/>
    </g>
    <path id="musicjooyar" d="M-50.211-5.586q.42,0,.42,2.9a11.48,11.48,0,0,1-.126,2.205Q-50.043,0-50.211,0h-6.3q-.42,0-.42-2.688,0-2.9.42-2.9Zm11.13,0a3.883,3.883,0,0,0,1.995-.42,1.309,1.309,0,0,0,.693-1.176,2.476,2.476,0,0,0-.315-1.26A6.462,6.462,0,0,0-37.737-9.7l-9.114-8.9v-4.368l15.918-6.132,1.512,5.208-10.836,4.074,6.552,6.51q3.654,3.654,5.439,5.208a12.81,12.81,0,0,0,2.877,2.037,6.29,6.29,0,0,0,2.562.483q.42,0,.42,2.9,0,2.688-.42,2.688a16.524,16.524,0,0,1-3.465-.294,7.652,7.652,0,0,1-2.52-1.071,17.66,17.66,0,0,1-2.835-2.457,5.188,5.188,0,0,1-2.6,2.814A9.969,9.969,0,0,1-38.913,0h-11.3q-.42,0-.42-2.688,0-2.9.42-2.9Zm26.5,0a2.434,2.434,0,0,0,1.659-.567,1.978,1.978,0,0,0,.651-1.575v-6.72h5.334v6.972A7.238,7.238,0,0,1-7.014-2a7.759,7.759,0,0,1-5.607,2H-22.827q-.42,0-.42-2.688,0-2.9.42-2.9Zm2.016,9.954V9.156H-22.407V4.368ZM10.605-1.554A12.808,12.808,0,0,1,9.219,4.515,9.849,9.849,0,0,1,5.25,8.589,12.027,12.027,0,0,1-.735,10.038H-2.079l-.462-5.586H-.819A6.124,6.124,0,0,0,3.675,2.877a5.945,5.945,0,0,0,1.6-4.431V-14.448h5.334ZM4.893-18.816V-23.6h5.712v4.788ZM33.579-5.586q.42,0,.42,2.9Q34,0,33.579,0H30.261a10.914,10.914,0,0,1-3.318,7.371,10.665,10.665,0,0,1-7.518,2.667H13.671l-.462-5.586h6.552a5.724,5.724,0,0,0,3.864-1.2A4.078,4.078,0,0,0,25.011,0h-2.94q-4.536,0-6.489-1.89T13.629-7.9a10.563,10.563,0,0,1,1.05-4.788A7.9,7.9,0,0,1,17.64-15.96a8.282,8.282,0,0,1,4.431-1.176,7.644,7.644,0,0,1,6.069,2.52,10.233,10.233,0,0,1,2.2,6.972v2.058ZM18.921-8.106a2.4,2.4,0,0,0,.735,1.953,4.221,4.221,0,0,0,2.625.609h2.73V-7.728a5.006,5.006,0,0,0-.8-3.066,2.725,2.725,0,0,0-2.31-1.05A2.6,2.6,0,0,0,19.7-10.815,4.381,4.381,0,0,0,18.921-8.106Zm15.75,2.52a2.374,2.374,0,0,0,1.659-.462,2.02,2.02,0,0,0,.483-1.512V-8.736a8.8,8.8,0,0,1,2.331-6.447,8.456,8.456,0,0,1,6.321-2.373,7.92,7.92,0,0,1,6.111,2.289Q53.7-12.978,53.7-8.694a8.8,8.8,0,0,1-2.226,6.405A8.27,8.27,0,0,1,45.255,0a9.935,9.935,0,0,1-3.486-.525,4.243,4.243,0,0,1-2.058-1.491A4.656,4.656,0,0,1,37.716-.483,8.212,8.212,0,0,1,34.671,0H33.579q-.42,0-.42-2.688,0-2.9.42-2.9ZM48.405-8.694q0-3.528-3.15-3.528t-3.15,3.528a3.256,3.256,0,0,0,.777,2.331,3.128,3.128,0,0,0,2.373.819,3.229,3.229,0,0,0,2.373-.777A3.229,3.229,0,0,0,48.405-8.694Zm-90.51,47.14a12.808,12.808,0,0,1-1.386,6.069,9.849,9.849,0,0,1-3.969,4.074,12.027,12.027,0,0,1-5.985,1.449h-1.344l-.462-5.586h1.722a6.124,6.124,0,0,0,4.494-1.575,5.945,5.945,0,0,0,1.6-4.431V25.552h5.334Zm14.7-4.032q.21,0,.315.546a16.007,16.007,0,0,1,.1,2.352,13.779,13.779,0,0,1-.1,2.184q-.1.5-.315.5h-1.512a6.822,6.822,0,0,1-5.355-2.037A8.424,8.424,0,0,1-36.1,32.146V12.952h5.376V31.768a3.146,3.146,0,0,0,.525,2,2.006,2.006,0,0,0,1.659.651Zm11.8-1.89a7.238,7.238,0,0,1-2.079,5.481A7.759,7.759,0,0,1-23.289,40h-4.116q-.42,0-.42-2.688,0-2.9.42-2.9h4.116a2.5,2.5,0,0,0,1.7-.567,1.978,1.978,0,0,0,.651-1.575v-6.72H-15.6Zm-2.52,11.844v4.788H-29.967V44.368Zm28.14-9.954q.42,0,.42,2.9,0,2.688-.42,2.688H6.7a10.914,10.914,0,0,1-3.318,7.371,10.665,10.665,0,0,1-7.518,2.667H-9.891l-.462-5.586H-3.8a5.724,5.724,0,0,0,3.864-1.2A4.078,4.078,0,0,0,1.449,40h-2.94q-4.536,0-6.489-1.89T-9.933,32.1a10.563,10.563,0,0,1,1.05-4.788A7.9,7.9,0,0,1-5.922,24.04a8.282,8.282,0,0,1,4.431-1.176,7.644,7.644,0,0,1,6.069,2.52,10.233,10.233,0,0,1,2.2,6.972v2.058Zm-14.658-2.52a2.4,2.4,0,0,0,.735,1.953,4.221,4.221,0,0,0,2.625.609h2.73V32.272a5.006,5.006,0,0,0-.8-3.066,2.725,2.725,0,0,0-2.31-1.05,2.6,2.6,0,0,0-2.205,1.029A4.381,4.381,0,0,0-4.641,31.894Zm28.56-10.08a8.919,8.919,0,0,1,4.242.882,6.813,6.813,0,0,1,2.73,2.961A25.4,25.4,0,0,1,32.865,31.6l-2.646,1.68a2.375,2.375,0,0,0,1.218.84,5.98,5.98,0,0,0,1.974.294h2.52q.42,0,.42,2.9a11.48,11.48,0,0,1-.126,2.2Q36.1,40,35.931,40H33.117a7.654,7.654,0,0,1-3.927-.924,8.2,8.2,0,0,1-2.835-3.15l-1.6,1.008a19.509,19.509,0,0,1-5.46,2.415A26.958,26.958,0,0,1,12.873,40H10.017q-.42,0-.42-2.688,0-2.9.42-2.9h3.108a27.349,27.349,0,0,0,5.271-.42,14.7,14.7,0,0,0,4.305-1.68l3.906-2.226a3.663,3.663,0,0,0-1.239-2.163,4.335,4.335,0,0,0-2.457-.567H13.293l.63-5.544Zm-7.1,27.342V44.368h5.712v4.788Zm25.41-14.742q.42,0,.42,2.9a11.48,11.48,0,0,1-.126,2.2Q42.4,40,42.231,40h-6.3q-.42,0-.42-2.688,0-2.9.42-2.9Zm6.3,0q.42,0,.42,2.9a11.48,11.48,0,0,1-.126,2.2Q48.7,40,48.531,40h-6.3q-.42,0-.42-2.688,0-2.9.42-2.9Zm6.3,0q.42,0,.42,2.9a11.48,11.48,0,0,1-.126,2.2Q55,40,54.831,40h-6.3q-.42,0-.42-2.688,0-2.9.42-2.9Z" transform="translate(1461 311)" fill="#735bff"/>
  </g>
</svg>
